<?xml version="1.0" encoding="UTF-8" standalone="no"?>
<!-- Created with Inkscape (http://www.inkscape.org/) -->

<svg
   xmlns:dc="http://purl.org/dc/elements/1.1/"
   xmlns:cc="http://creativecommons.org/ns#"
   xmlns:rdf="http://www.w3.org/1999/02/22-rdf-syntax-ns#"
   xmlns:svg="http://www.w3.org/2000/svg"
   xmlns="http://www.w3.org/2000/svg"
   xmlns:sodipodi="http://sodipodi.sourceforge.net/DTD/sodipodi-0.dtd"
   xmlns:inkscape="http://www.inkscape.org/namespaces/inkscape"
   width="788.14502mm"
   height="642.60901mm"
   viewBox="0 0 2792.6399 2276.9611"
   id="svg2"
   version="1.1"
   inkscape:version="0.91 r13725"
   sodipodi:docname="onTheGlass_monochrome_square_black_resize.svg">
  <defs
     id="defs4" />
  <sodipodi:namedview
     id="base"
     pagecolor="#ffffff"
     bordercolor="#666666"
     borderopacity="1.0"
     inkscape:pageopacity="0.0"
     inkscape:pageshadow="2"
     inkscape:zoom="0.12191378"
     inkscape:cx="1967.8402"
     inkscape:cy="1948.8189"
     inkscape:document-units="px"
     inkscape:current-layer="layer1"
     showgrid="false"
     inkscape:window-width="1470"
     inkscape:window-height="841"
     inkscape:window-x="-8"
     inkscape:window-y="-8"
     inkscape:window-maximized="1"
     showborder="true" />
  <metadata
     id="metadata7">
    <rdf:RDF>
      <cc:Work
         rdf:about="">
        <dc:format>image/svg+xml</dc:format>
        <dc:type
           rdf:resource="http://purl.org/dc/dcmitype/StillImage" />
        <dc:title></dc:title>
      </cc:Work>
    </rdf:RDF>
  </metadata>
  <g
     inkscape:groupmode="layer"
     id="layer2"
     inkscape:label="haikei"
     transform="translate(0,1224.599)" />
  <g
     inkscape:label="レイヤー 1"
     inkscape:groupmode="layer"
     id="layer1"
     transform="translate(0,1224.599)">
    <g
       id="g4167"
       transform="matrix(1.2803543,0,0,1.2803543,-1098.8585,931.00508)"
       style="fill:#000000;fill-opacity:1">
      <g
         transform="matrix(2.0194562,0,0,2.0194562,515.59168,-1957.43)"
         id="g4162"
         style="fill:#000000;fill-opacity:1">
        <g
           transform="matrix(2.6903071,0,0,2.6903071,92.343608,-353.75042)"
           id="g4395"
           style="display:inline;fill:#000000;fill-opacity:1">
          <g
             style="opacity:1;fill:#000000;fill-opacity:1"
             id="g4176">
            <path
               style="opacity:1;fill:#000000;fill-opacity:1;stroke:none;stroke-width:14.03800011;stroke-linejoin:round;stroke-miterlimit:4;stroke-dasharray:none;stroke-opacity:1"
               d="m 423.15047,319.43747 a 22.552542,22.552542 0 0 1 -22.55254,22.55254 22.552542,22.552542 0 0 1 -22.55254,-22.55254 22.552542,22.552542 0 0 1 22.55254,-22.55254 22.552542,22.552542 0 0 1 22.55254,22.55254 z"
               id="path4257-53"
               inkscape:connector-curvature="0" />
            <path
               style="opacity:1;fill:#000000;fill-opacity:1;stroke:none;stroke-width:14.03800011;stroke-linejoin:round;stroke-miterlimit:4;stroke-dasharray:none;stroke-opacity:1"
               d="m 313.70093,200.05057 a 18.158049,18.158049 0 0 1 -18.15805,18.15805 18.158049,18.158049 0 0 1 -18.15805,-18.15805 18.158049,18.158049 0 0 1 18.15805,-18.15805 18.158049,18.158049 0 0 1 18.15805,18.15805 z"
               id="path4257-5-6"
               inkscape:connector-curvature="0" />
            <path
               style="opacity:1;fill:#000000;fill-opacity:1;stroke:none;stroke-width:14.03800011;stroke-linejoin:round;stroke-miterlimit:4;stroke-dasharray:none;stroke-opacity:1"
               d="m 159.16128,366.42191 a 13.031139,13.031139 0 0 1 -13.03114,13.03113 13.031139,13.031139 0 0 1 -13.03114,-13.03113 13.031139,13.031139 0 0 1 13.03114,-13.03114 13.031139,13.031139 0 0 1 13.03114,13.03114 z"
               id="path4257-5-5-0"
               inkscape:connector-curvature="0" />
            <path
               style="opacity:1;fill:#000000;fill-opacity:1;stroke:none;stroke-width:14.03800011;stroke-linejoin:round;stroke-miterlimit:4;stroke-dasharray:none;stroke-opacity:1"
               d="m 337.98723,432.34717 a 8.6366463,8.6366463 0 0 1 -8.63664,8.63664 8.6366463,8.6366463 0 0 1 -8.63665,-8.63664 8.6366463,8.6366463 0 0 1 8.63665,-8.63665 8.6366463,8.6366463 0 0 1 8.63664,8.63665 z"
               id="path4257-5-5-6-8"
               inkscape:connector-curvature="0" />
            <path
               style="opacity:1;fill:#000000;fill-opacity:1;stroke:none;stroke-width:14.03800011;stroke-linejoin:round;stroke-miterlimit:4;stroke-dasharray:none;stroke-opacity:1"
               d="m 69.074177,307.71561 a 4.2421536,4.2421536 0 0 1 -4.242153,4.24215 4.2421536,4.2421536 0 0 1 -4.242154,-4.24215 4.2421536,4.2421536 0 0 1 4.242154,-4.24216 4.2421536,4.2421536 0 0 1 4.242153,4.24216 z"
               id="path4257-5-5-6-0-1"
               inkscape:connector-curvature="0" />
          </g>
          <g
             style="font-style:normal;font-variant:normal;font-weight:900;font-stretch:normal;font-size:53.74999237px;line-height:129.99999523%;font-family:'Rounded-X M+ 1c';-inkscape-font-specification:'Rounded-X M+ 1c, Heavy';text-align:center;letter-spacing:0px;word-spacing:0px;writing-mode:lr-tb;text-anchor:middle;opacity:1;fill:#000000;fill-opacity:1;stroke:none;stroke-width:1px;stroke-linecap:butt;stroke-linejoin:miter;stroke-opacity:1"
             id="text8483-8">
            <path
               d="m 80.742419,231.56448 q 1.88125,0 3.225,1.34375 1.343749,1.34375 1.343749,3.225 l 0,0.80625 q 0,1.88125 -1.343749,3.225 -1.34375,1.34375 -3.225,1.34375 l -27.412496,0 q -1.88125,0 -3.225,-1.34375 -1.343749,-1.34375 -1.343749,-3.225 l 0,-0.80625 q 0,-1.88125 1.343749,-3.225 1.34375,-1.34375 3.225,-1.34375 l 27.412496,0 z m 3.762499,29.83124 q 1.88125,0 3.225,1.34375 1.34375,1.34375 1.34375,3.225 l 0,0.80625 q 0,1.88125 -1.34375,3.225 -1.34375,1.34375 -3.225,1.34375 l -34.937495,0 q -1.881249,0 -3.224999,-1.34375 -1.34375,-1.34375 -1.34375,-3.225 l 0,-0.80625 q 0,-1.88125 1.34375,-3.225 1.34375,-1.34375 3.224999,-1.34375 l 34.937495,0 z"
               style="font-style:normal;font-variant:normal;font-weight:900;font-stretch:normal;font-size:53.74999237px;line-height:129.99999523%;font-family:'Rounded-X M+ 1c';-inkscape-font-specification:'Rounded-X M+ 1c, Heavy';text-align:center;writing-mode:lr-tb;text-anchor:middle;fill:#000000;fill-opacity:1"
               id="path4191"
               inkscape:connector-curvature="0" />
            <path
               d="m 135.56741,231.56448 q 1.88125,0 3.225,1.34375 1.34375,1.34375 1.34375,3.225 l 0,30.63749 q 0,1.88125 -1.34375,3.225 -1.34375,1.34375 -3.225,1.34375 l -30.63749,0 q -1.88125,0 -3.225,-1.34375 -1.34375,-1.34375 -1.34375,-3.225 0,-1.88125 1.34375,-3.225 1.34375,-1.34375 3.225,-1.34375 l 24.40249,0 q 0.59125,0 0.59125,-0.59125 l 0,-20.31749 q 0,-0.59125 -0.59125,-0.59125 l -24.40249,0 q -1.88125,0 -3.225,-1.34375 -1.34375,-1.34375 -1.34375,-3.225 0,-1.88125 1.34375,-3.225 1.34375,-1.34375 3.225,-1.34375 l 30.63749,0 z"
               style="font-style:normal;font-variant:normal;font-weight:900;font-stretch:normal;font-size:53.74999237px;line-height:129.99999523%;font-family:'Rounded-X M+ 1c';-inkscape-font-specification:'Rounded-X M+ 1c, Heavy';text-align:center;writing-mode:lr-tb;text-anchor:middle;fill:#000000;fill-opacity:1"
               id="path4193"
               inkscape:connector-curvature="0" />
            <path
               d="m 188.2424,231.56448 q 1.88125,0 3.225,1.34375 1.34375,1.34375 1.34375,3.225 l 0,0.80625 q 0,1.88125 -1.34375,3.225 -1.34375,1.34375 -3.225,1.34375 l -27.41249,0 q -1.88125,0 -3.225,-1.34375 -1.34375,-1.34375 -1.34375,-3.225 l 0,-0.80625 q 0,-1.88125 1.34375,-3.225 1.34375,-1.34375 3.225,-1.34375 l 27.41249,0 z m 3.7625,29.83124 q 1.88125,0 3.225,1.34375 1.34375,1.34375 1.34375,3.225 l 0,0.80625 q 0,1.88125 -1.34375,3.225 -1.34375,1.34375 -3.225,1.34375 l -34.93749,0 q -1.88125,0 -3.225,-1.34375 -1.34375,-1.34375 -1.34375,-3.225 l 0,-0.80625 q 0,-1.88125 1.34375,-3.225 1.34375,-1.34375 3.225,-1.34375 l 34.93749,0 z"
               style="font-style:normal;font-variant:normal;font-weight:900;font-stretch:normal;font-size:53.74999237px;line-height:129.99999523%;font-family:'Rounded-X M+ 1c';-inkscape-font-specification:'Rounded-X M+ 1c, Heavy';text-align:center;writing-mode:lr-tb;text-anchor:middle;fill:#000000;fill-opacity:1"
               id="path4195"
               inkscape:connector-curvature="0" />
            <path
               d="m 243.06739,231.56448 q 1.88125,0 3.225,1.34375 1.34375,1.34375 1.34375,3.225 l 0,30.63749 q 0,1.88125 -1.34375,3.225 -1.34375,1.34375 -3.225,1.34375 l -30.6375,0 q -1.88125,0 -3.225,-1.34375 -1.34375,-1.34375 -1.34375,-3.225 0,-1.88125 1.34375,-3.225 1.34375,-1.34375 3.225,-1.34375 l 24.4025,0 q 0.59125,0 0.59125,-0.59125 l 0,-20.31749 q 0,-0.59125 -0.59125,-0.59125 l -24.4025,0 q -1.88125,0 -3.225,-1.34375 -1.34375,-1.34375 -1.34375,-3.225 0,-1.88125 1.34375,-3.225 1.34375,-1.34375 3.225,-1.34375 l 30.6375,0 z"
               style="font-style:normal;font-variant:normal;font-weight:900;font-stretch:normal;font-size:53.74999237px;line-height:129.99999523%;font-family:'Rounded-X M+ 1c';-inkscape-font-specification:'Rounded-X M+ 1c, Heavy';text-align:center;writing-mode:lr-tb;text-anchor:middle;fill:#000000;fill-opacity:1"
               id="path4197"
               inkscape:connector-curvature="0" />
            <path
               d="m 268.38364,227.26448 q 1.88125,0.3225 2.95625,1.935 1.12875,1.55875 0.69875,3.44 -0.9675,4.67625 -2.6875,8.97625 -0.215,0.48375 -0.215,1.12875 l 0,28.86374 q 0,1.88125 -1.34375,3.225 -1.34375,1.34375 -3.225,1.34375 l -0.26875,0 q -1.88125,0 -3.225,-1.34375 -1.34375,-1.34375 -1.34375,-3.225 l 0,-14.99625 q 0,-0.1075 -0.1075,-0.16125 -0.0537,-0.0537 -0.16125,0 -0.645,0.91375 -1.72,0.645 -1.02125,-0.3225 -1.1825,-1.3975 l -0.5375,-3.7625 q -0.5375,-4.13875 1.88125,-8.33124 2.95625,-5.16 4.8375,-12.685 0.48375,-1.88125 2.0425,-2.9025 1.6125,-1.075 3.49375,-0.7525 l 0.1075,0 z m 36.2275,36.28124 q 1.6125,1.23625 2.09625,3.17125 0.5375,1.88125 -0.26875,3.655 l -0.16125,0.3225 q -0.7525,1.55875 -2.4725,1.935 -1.66625,0.37625 -2.9025,-0.80625 -3.49375,-3.225 -6.45,-7.04125 -0.0537,-0.1075 -0.215,-0.0537 -0.1075,0.0537 -0.1075,0.215 l 0,6.665 q 0,1.88125 -1.34375,3.225 -1.34375,1.34375 -3.225,1.34375 l -0.80625,0 q -1.88125,0 -3.225,-1.34375 -1.34375,-1.34375 -1.34375,-3.225 l 0,-6.665 q 0,-0.16125 -0.16125,-0.16125 -0.16125,-0.0537 -0.215,0.0537 -3.1175,3.9775 -6.39625,7.04125 -1.29,1.1825 -3.01,0.80625 -1.72,-0.3225 -2.52625,-1.935 l -0.37625,-0.69875 q -0.86,-1.72 -0.37625,-3.60125 0.48375,-1.935 2.0425,-3.06375 3.5475,-2.63375 5.6975,-4.78375 0.1075,-0.1075 0.0537,-0.26875 -0.0537,-0.16125 -0.215,-0.16125 l -3.5475,0 q -1.6125,0 -2.74125,-1.12875 -1.12875,-1.1825 -1.12875,-2.795 0,-1.6125 1.12875,-2.74125 1.12875,-1.12875 2.74125,-1.12875 l 8.43875,0 q 0.59125,0 0.59125,-0.59125 l 0,-1.23625 q 0,-0.59125 -0.59125,-0.59125 l -0.48375,0 -5.10625,0 q -1.88125,0 -3.225,-1.34375 -1.34375,-1.34374 -1.34375,-3.22499 l 0,-11.2875 q 0,-1.88125 1.34375,-3.225 1.34375,-1.34375 3.225,-1.34375 l 22.575,0 q 1.88125,0 3.225,1.34375 1.34375,1.34375 1.34375,3.225 l 0,11.2875 q 0,1.88125 -1.34375,3.22499 -1.34375,1.34375 -3.225,1.34375 l -5.85875,0 q -0.59125,0 -0.59125,0.59125 l 0,1.23625 q 0,0.59125 0.59125,0.59125 l 8.11625,0 q 1.6125,0 2.74125,1.12875 1.1825,1.12875 1.1825,2.74125 0,1.6125 -1.1825,2.795 -1.12875,1.12875 -2.74125,1.12875 l -3.81625,0 q -0.16125,0 -0.215,0.215 0,0.16125 0.1075,0.26875 2.52625,2.4725 5.6975,4.89125 z m -20.90875,-23.11249 11.18,0 q 0.59125,0 0.59125,-0.59125 l 0,-3.92375 q 0,-0.59125 -0.59125,-0.59125 l -11.18,0 q -0.59125,0 -0.59125,0.59125 l 0,3.92375 q 0,0.59125 0.59125,0.59125 z"
               style="font-style:normal;font-variant:normal;font-weight:900;font-stretch:normal;font-size:53.74999237px;line-height:129.99999523%;font-family:'Rounded-X M+ 1c';-inkscape-font-specification:'Rounded-X M+ 1c, Heavy';text-align:center;writing-mode:lr-tb;text-anchor:middle;fill:#000000;fill-opacity:1"
               id="path4199"
               inkscape:connector-curvature="0" />
            <path
               d="m 356.74864,229.14573 q 1.55875,0 2.63375,1.12875 1.12875,1.075 1.12875,2.63375 0,1.55875 -1.12875,2.6875 -1.075,1.075 -2.63375,1.075 l -3.655,0 q -0.16125,0 -0.26875,0.16125 -0.1075,0.16125 0,0.26875 2.9025,3.5475 5.16,6.82625 1.02125,1.45125 0.48375,3.11749 -0.5375,1.6125 -2.20375,2.2575 l -0.43,0.16125 q -0.48375,0.215 -0.16125,0.645 1.075,1.23625 1.075,2.95625 l 0,11.2875 q 0,2.52625 -0.1075,4.03125 -0.1075,1.505 -0.48375,3.01 -0.3225,1.505 -0.9675,2.2575 -0.59125,0.80625 -1.72,1.45125 -1.12875,0.645 -2.74125,0.86 -1.6125,0.215 -3.92375,0.215 -2.41875,0 -4.89125,-0.1075 -1.505,-0.0538 -2.52625,-1.12875 -1.02125,-1.02125 -1.075,-2.52625 -0.0537,-1.3975 0.9675,-2.365 1.02125,-1.02125 2.41875,-0.9675 3.225,0.1075 3.7625,0.1075 0.80625,0 0.91375,-0.1075 0.16125,-0.16125 0.16125,-0.9675 l 0,-0.215 q 0,-0.59125 -0.59125,-0.59125 l -20.3175,0 q -0.59125,0 -0.59125,0.59125 l 0,3.70875 q 0,1.88125 -1.34375,3.225 -1.34375,1.34375 -3.225,1.34375 l -1.075,0 q -1.88125,0 -3.225,-1.34375 -1.34375,-1.34375 -1.34375,-3.225 l 0,-18.54375 q 0,-1.88125 1.34375,-3.225 1.34375,-1.34375 3.225,-1.34375 l 29.885,0 q 0.16125,0 0.215,-0.1075 0.1075,-0.16125 0,-0.26875 -0.26875,-0.26875 -0.59125,-0.80625 -0.1075,-0.215 -0.43,-0.59125 -0.3225,-0.43 -0.43,-0.645 -0.3225,-0.53749 -0.9675,-0.42999 -15.31875,1.23624 -30.26125,1.66624 -1.505,0.0538 -2.63375,-0.9675 -1.12875,-1.02124 -1.23625,-2.57999 -0.1075,-1.505 0.86,-2.58 1.02125,-1.075 2.52625,-1.12875 l 4.515,-0.16125 q 0.645,0 0.91375,-0.48375 0.16125,-0.3225 0.5375,-1.075 0.37625,-0.7525 0.59125,-1.075 0.1075,-0.215 0,-0.37625 -0.1075,-0.215 -0.3225,-0.215 l -7.74,0 q -1.55875,0 -2.6875,-1.075 -1.075,-1.12875 -1.075,-2.6875 0,-1.55875 1.075,-2.63375 1.12875,-1.12875 2.6875,-1.12875 l 15.42625,0 q 0.43,0 0.43,-0.43 0,-1.29 0.86,-2.15 0.91375,-0.91375 2.20375,-0.91375 l 4.085,0 q 1.29,0 2.15,0.91375 0.91375,0.86 0.91375,2.15 0,0.43 0.43,0.43 l 15.42625,0 z m -10.2125,32.73374 0,-0.43 q 0,-0.59125 -0.59125,-0.59125 l -20.3175,0 q -0.59125,0 -0.59125,0.59125 l 0,0.43 q 0,0.59125 0.59125,0.59125 l 20.3175,0 q 0.59125,0 0.59125,-0.59125 z m 0,-6.45 0,-0.43 q 0,-0.59125 -0.59125,-0.59125 l -20.3175,0 q -0.59125,0 -0.59125,0.59125 l 0,0.43 q 0,0.59125 0.59125,0.59125 l 20.3175,0 q 0.59125,0 0.59125,-0.59125 z m -3.9775,-16.93124 q -0.43,-0.59125 -0.43,-1.23625 0,-0.59125 -0.48375,-0.59125 l -8.815,0 q -0.48375,0 -0.48375,0.5375 0.0538,0.86 -0.37625,1.77375 -0.215,0.43 0.26875,0.43 3.1175,-0.16125 10.15875,-0.59125 0.1075,0 0.16125,-0.1075 0.1075,-0.16125 0,-0.215 z"
               style="font-style:normal;font-variant:normal;font-weight:900;font-stretch:normal;font-size:53.74999237px;line-height:129.99999523%;font-family:'Rounded-X M+ 1c';-inkscape-font-specification:'Rounded-X M+ 1c, Heavy';text-align:center;writing-mode:lr-tb;text-anchor:middle;fill:#000000;fill-opacity:1"
               id="path4201"
               inkscape:connector-curvature="0" />
            <path
               d="m 409.69236,226.99573 q 1.88125,0 3.225,1.34375 1.34375,1.34375 1.34375,3.225 l 0,40.31249 q 0,1.88125 -1.34375,3.225 -1.34375,1.34375 -3.225,1.34375 l -3.17125,0 q -0.69875,0 -1.1825,-0.48375 -0.48375,-0.48375 -0.48375,-1.1825 0,-0.215 -0.215,-0.215 l -30.2075,0 q -0.215,0 -0.215,0.215 0,0.69875 -0.48375,1.1825 -0.48375,0.48375 -1.1825,0.48375 l -3.17125,0 q -1.88125,0 -3.225,-1.34375 -1.34375,-1.34375 -1.34375,-3.225 l 0,-40.31249 q 0,-1.88125 1.34375,-3.225 1.34375,-1.34375 3.225,-1.34375 l 40.3125,0 z m -4.8375,40.25874 0,-32.67999 q 0,-0.59125 -0.59125,-0.59125 l -29.455,0 q -0.59125,0 -0.59125,0.59125 l 0,32.67999 q 0,0.59125 0.59125,0.59125 l 29.455,0 q 0.59125,0 0.59125,-0.59125 z m -20.47875,-24.93999 q 0.59125,0 0.59125,-0.59125 l 0,-0.16125 q 0,-0.59125 -0.59125,-0.59125 l -5.59,0 q -0.86,0 -1.505,-0.59125 -0.645,-0.645 -0.645,-1.55875 0,-0.91375 0.645,-1.505 0.645,-0.645 1.505,-0.645 l 5.96625,0 q 0.215,0 0.215,-0.215 0,-0.69875 0.48375,-1.1825 0.48375,-0.48375 1.1825,-0.48375 l 5.805,0 q 0.69875,0 1.1825,0.48375 0.48375,0.48375 0.48375,1.1825 0,0.215 0.215,0.215 l 5.96625,0 q 0.86,0 1.505,0.645 0.645,0.59125 0.645,1.505 0,0.91375 -0.645,1.55875 -0.645,0.59125 -1.505,0.59125 l -5.59,0 q -0.59125,0 -0.59125,0.59125 l 0,0.16125 q 0,0.59125 0.59125,0.59125 l 6.02,0 q 0.91375,0 1.55875,0.69875 0.69875,0.645 0.69875,1.55875 0,0.91375 -0.69875,1.61249 -0.645,0.69875 -1.55875,0.69875 l -22.36,0 q -0.91375,0 -1.6125,-0.69875 -0.645,-0.69874 -0.645,-1.61249 0,-0.91375 0.645,-1.55875 0.69875,-0.69875 1.6125,-0.69875 l 6.02,0 z m 18.22125,20.26374 q 1.02125,0.5375 1.1825,1.77375 0.215,1.1825 -0.5375,2.0425 -0.7525,0.9675 -1.98875,1.12875 -1.23625,0.16125 -2.2575,-0.59125 -1.88125,-1.34375 -4.8375,-3.225 -0.1075,-0.0538 -0.215,0.0537 -0.1075,0.0537 -0.1075,0.1075 0,1.075 -0.80625,1.88125 -0.7525,0.7525 -1.8275,0.7525 l -3.655,0 q -0.9675,0 -1.66625,-0.645 -0.645,-0.69875 -0.645,-1.66625 0,-0.26875 -0.215,-0.16125 -2.09625,1.12875 -4.945,2.31125 -1.34375,0.59125 -2.74125,0.1075 -1.34375,-0.5375 -2.0425,-1.8275 -0.59125,-1.12875 -0.1075,-2.2575 0.48375,-1.1825 1.72,-1.6125 3.70875,-1.1825 7.31,-2.84875 0.1075,-0.0537 0.0538,-0.16125 -0.0538,-0.1075 -0.16125,-0.1075 l -2.365,0 q -1.88125,0 -3.225,-1.34375 -1.34375,-1.34375 -1.34375,-3.225 l 0,-0.5375 q 0,-1.88125 1.34375,-3.225 1.34375,-1.34375 3.225,-1.34375 l 15.5875,0 q 1.88125,0 3.225,1.34375 1.34375,1.34375 1.34375,3.225 l 0,2.95625 q 0,0.48375 0.37625,0.7525 1.1825,0.80625 1.3975,2.2575 0.26875,1.3975 -0.59125,2.52625 -0.1075,0.16125 -0.37625,0.48375 -0.26875,0.26875 -0.43,0.43 -0.26875,0.26875 0.1075,0.5375 0.0537,0.0538 0.1075,0.0538 0.0537,0 0.1075,0.0537 z m -8.76125,-9.29875 0,-0.9675 q 0,-0.59125 -0.59125,-0.59125 l -7.4175,0 q -0.59125,0 -0.59125,0.59125 l 0,0.9675 q 0,0.59125 0.59125,0.59125 l 7.4175,0 q 0.59125,0 0.59125,-0.59125 z m 4.89125,4.8375 q 0.1075,-0.16125 0,-0.3225 -0.0537,-0.16125 -0.26875,-0.16125 l -3.01,0 q -0.43,0 -0.69875,0.215 -0.3225,0.3225 0,0.43 0.37625,0.16125 1.075,0.5375 0.69875,0.37625 1.02125,0.5375 0.59125,0.3225 0.9675,-0.16125 0.16125,-0.215 0.43,-0.5375 0.3225,-0.3225 0.48375,-0.5375 z"
               style="font-style:normal;font-variant:normal;font-weight:900;font-stretch:normal;font-size:53.74999237px;line-height:129.99999523%;font-family:'Rounded-X M+ 1c';-inkscape-font-specification:'Rounded-X M+ 1c, Heavy';text-align:center;writing-mode:lr-tb;text-anchor:middle;fill:#000000;fill-opacity:1"
               id="path4203"
               inkscape:connector-curvature="0" />
            <path
               d="m 140.94241,299.02071 q 1.88125,0 3.225,1.34375 1.34375,1.34375 1.34375,3.225 l 0,36.81875 q 0,1.88125 -1.34375,3.225 -1.34375,1.34375 -3.225,1.34375 l -2.74125,0 q -0.9675,0 -1.66625,-0.69875 -0.69875,-0.69875 -0.69875,-1.66625 0,-0.3225 -0.3225,-0.3225 l -4.73,0 q -0.3225,0 -0.3225,0.3225 0,0.9675 -0.69875,1.66625 -0.69875,0.69875 -1.66625,0.69875 l -2.4725,0 q -1.88125,0 -3.225,-1.34375 -1.34375,-1.34375 -1.34375,-3.225 l 0,-36.81875 q 0,-1.88125 1.34375,-3.225 1.34375,-1.34375 3.225,-1.34375 l 15.31875,0 z m -5.10625,34.615 0,-25.6925 q 0,-0.59125 -0.59125,-0.59125 l -4.1925,0 q -0.59125,0 -0.59125,0.59125 l 0,25.6925 q 0,0.59125 0.59125,0.59125 l 4.1925,0 q 0.59125,0 0.59125,-0.59125 z m -20.90875,-13.70625 q 0.9675,1.55875 2.58,4.35375 1.6125,2.795 2.09625,3.5475 0.86,1.45125 0.5375,3.17125 -0.26875,1.66625 -1.6125,2.6875 -1.1825,0.91375 -2.63375,0.5375 -1.3975,-0.43 -1.935,-1.77375 -0.215,-0.5375 -0.645,-1.55875 -0.43,-1.075 -0.645,-1.6125 -0.0538,-0.0538 -0.16125,-0.0538 -0.0538,0 -0.0538,0.1075 l 0,12.1475 q 0,1.88125 -1.34375,3.225 -1.34375,1.34375 -3.22499,1.34375 -1.88125,0 -3.225,-1.34375 -1.34375,-1.34375 -1.34375,-3.225 l 0,-7.525 q 0,-0.1075 -0.1075,-0.1075 -0.0537,0 -0.1075,0.0537 -0.7525,2.0425 -1.505,3.655 -0.69875,1.3975 -2.257504,1.3975 -1.558749,-0.0537 -2.364999,-1.45125 l -0.215,-0.37625 q -1.02125,-1.8275 -0.91375,-3.87 0.16125,-2.0425 1.29,-3.81625 3.117503,-4.67625 4.730003,-9.46 0.0538,-0.215 -0.1075,-0.37625 -0.1075,-0.16125 -0.3225,-0.16125 l -1.612504,0 q -1.666249,0 -2.848749,-1.1825 -1.1825,-1.1825 -1.1825,-2.84875 0,-1.66625 1.1825,-2.84875 1.1825,-1.1825 2.848749,-1.1825 l 2.902504,0 q 0.59125,0 0.59125,-0.59125 l 0,-4.03125 q 0,-0.5375 -0.59125,-0.5375 l -2.09625,0.16125 q -1.558754,0.1075 -2.795003,-0.9675 -1.23625,-1.075 -1.3975,-2.63375 -0.16125,-1.505 0.80625,-2.6875 1.02125,-1.1825 2.579999,-1.29 6.503754,-0.48375 13.437494,-1.88124 1.6125,-0.3225 3.06375,0.48375 1.505,0.80624 2.0425,2.31124 0.5375,1.505 -0.16125,2.9025 -0.69875,1.34375 -2.2575,1.72 -1.72,0.43 -2.9025,0.59125 -0.59125,0.1075 -0.59125,0.69875 l 0,5.16 q 0,0.59125 0.59125,0.59125 l 2.365,0 q 1.66625,0 2.84875,1.1825 1.1825,1.1825 1.1825,2.84875 0,1.66625 -1.1825,2.84875 -1.1825,1.1825 -2.84875,1.1825 l -0.215,0 q -0.215,0 -0.3225,0.16125 -0.0538,0.16125 0.0537,0.3225 z"
               style="font-style:normal;font-variant:normal;font-weight:900;font-stretch:normal;font-size:53.74999237px;line-height:129.99999523%;font-family:'Rounded-X M+ 1c';-inkscape-font-specification:'Rounded-X M+ 1c, Heavy';text-align:center;writing-mode:lr-tb;text-anchor:middle;fill:#000000;fill-opacity:1"
               id="path4205"
               inkscape:connector-curvature="0" />
            <path
               d="m 166.47366,335.14071 q -3.225,4.46125 -8.97625,8.2775 -1.66625,1.075 -3.5475,0.645 -1.88125,-0.37625 -3.01,-1.98875 l -0.1075,-0.1075 q -1.02125,-1.45125 -0.59125,-3.17125 0.43,-1.72 1.98875,-2.63375 3.27875,-1.935 5.2675,-3.655 0.0538,-0.0537 0.0538,-0.16125 0.0537,-0.1075 0,-0.16125 -0.0538,-0.1075 -0.16125,-0.1075 l -3.38625,0 q -1.505,0 -2.58,-1.075 -1.075,-1.075 -1.075,-2.58 0,-1.505 1.075,-2.52625 1.075,-1.075 2.58,-1.075 l 10.75,0 q 1.505,0 2.52625,1.075 1.075,1.02125 1.075,2.52625 0,4.13875 -1.88125,6.71875 z m 30.42249,0.9675 q 1.55875,0.91375 1.935,2.6875 0.43,1.72 -0.59125,3.17125 l -0.1075,0.1075 q -1.12875,1.6125 -3.06375,2.0425 -1.88125,0.43 -3.49375,-0.645 -5.96625,-3.92375 -10.75,-9.51375 -0.0538,-0.1075 -0.215,-0.0538 -0.16125,0.0538 -0.16125,0.215 l 0,1.1825 q 0,2.74125 -0.1075,4.3 -0.0538,1.55875 -0.48375,2.9025 -0.42999,1.34375 -0.96749,1.935 -0.5375,0.59125 -1.8275,1.02125 -1.23625,0.43 -2.63375,0.48375 -1.3975,0.1075 -3.92375,0.1075 -0.26875,0 -3.49375,-0.1075 -1.72,-0.1075 -2.95625,-1.29 -1.23625,-1.1825 -1.34375,-2.9025 -0.1075,-1.6125 1.02125,-2.74125 1.1825,-1.1825 2.795,-1.075 1.02125,0.0538 2.09625,0.0538 1.3975,0 1.6125,-0.26875 0.26875,-0.26875 0.26875,-1.6125 l 0,-12.84625 q 0,-0.59125 -0.59125,-0.59125 l -5.85875,0 -5.375,0 q -1.88125,0 -3.225,-1.34375 -1.34375,-1.34375 -1.34375,-3.225 l 0,-14.24375 q 0,-1.88125 1.34375,-3.225 1.34375,-1.34375 3.225,-1.34375 l 9.245,0 q 0.43,0 0.5375,-0.43 0.3225,-1.39749 1.45125,-2.31124 1.1825,-0.91375 2.63375,-0.86 l 3.92375,0.215 q 1.12875,0.1075 1.8275,1.02125 0.69875,0.86 0.48375,1.98874 -0.1075,0.37625 0.3225,0.37625 l 11.28749,0 q 1.88125,0 3.225,1.34375 1.34375,1.34375 1.34375,3.225 l 0,14.24375 q 0,1.88125 -1.34375,3.225 -1.34375,1.34375 -3.225,1.34375 l -7.8475,0 q -0.215,0 -0.26875,0.16125 -0.0538,0.16125 0.0538,0.3225 1.6125,2.2575 3.38625,4.085 0.37625,0.43 0.86,0.0537 1.77375,-1.34375 4.03125,-3.3325 1.3975,-1.23625 3.27875,-1.1825 1.88125,0 3.225,1.23625 1.34375,1.23625 1.34375,3.01 0.0537,1.77375 -1.29,2.95625 -2.4725,2.15 -3.7625,3.1175 -0.5375,0.43 -0.0538,0.69875 1.45125,1.02125 3.5475,2.31125 z m -32.84124,-29.24 0,1.23625 q 0,0.59125 0.59125,0.59125 l 19.77999,0 q 0.59125,0 0.59125,-0.59125 l 0,-1.23625 q 0,-0.59125 -0.59125,-0.59125 l -19.77999,0 q -0.59125,0 -0.59125,0.59125 z m 0.59125,9.89 19.77999,0 q 0.59125,0 0.59125,-0.59125 l 0,-1.23625 q 0,-0.59125 -0.59125,-0.59125 l -19.77999,0 q -0.59125,0 -0.59125,0.59125 l 0,1.23625 q 0,0.59125 0.59125,0.59125 z"
               style="font-style:normal;font-variant:normal;font-weight:900;font-stretch:normal;font-size:53.74999237px;line-height:129.99999523%;font-family:'Rounded-X M+ 1c';-inkscape-font-specification:'Rounded-X M+ 1c, Heavy';text-align:center;writing-mode:lr-tb;text-anchor:middle;fill:#000000;fill-opacity:1"
               id="path4207"
               inkscape:connector-curvature="0" />
            <path
               d="m 247.3674,304.39571 q 1.88125,0 3.22499,1.34375 1.34375,1.34375 1.34375,3.225 l 0,20.9625 q 0,1.88125 -1.34375,3.225 -1.34374,1.34375 -3.22499,1.34375 l -2.4725,0 q -0.9675,0 -1.66625,-0.69875 -0.69875,-0.69875 -0.69875,-1.66625 0,-0.3225 -0.3225,-0.3225 l -8.22375,0 q -0.59125,0 -0.59125,0.59125 l 0,9.62125 q 0,1.88125 -1.34375,3.225 -1.34375,1.34375 -3.225,1.34375 l -1.075,0 q -1.88125,0 -3.225,-1.34375 -1.34375,-1.34375 -1.34375,-3.225 l 0,-9.62125 q 0,-0.59125 -0.59125,-0.59125 l -8.22375,0 q -0.3225,0 -0.3225,0.3225 0,0.9675 -0.69875,1.66625 -0.69875,0.69875 -1.66625,0.69875 l -2.4725,0 q -1.88125,0 -3.225,-1.34375 -1.34375,-1.34375 -1.34375,-3.225 l 0,-20.9625 q 0,-1.88125 1.34375,-3.225 1.34375,-1.34375 3.225,-1.34375 l 13.38375,0 q 0.59125,0 0.59125,-0.59125 l 0,-3.17125 q 0,-1.88125 1.34375,-3.22499 1.34375,-1.34375 3.225,-1.34375 l 1.075,0 q 1.88125,0 3.225,1.34375 1.34375,1.34374 1.34375,3.22499 l 0,3.17125 q 0,0.59125 0.59125,0.59125 l 13.38375,0 z m -32.73375,19.35 7.955,0 q 0.59125,0 0.59125,-0.59125 l 0,-9.83625 q 0,-0.59125 -0.59125,-0.59125 l -7.955,0 q -0.59125,0 -0.59125,0.59125 l 0,9.83625 q 0,0.59125 0.59125,0.59125 z m 27.89625,-0.59125 0,-9.83625 q 0,-0.59125 -0.59125,-0.59125 l -7.955,0 q -0.59125,0 -0.59125,0.59125 l 0,9.83625 q 0,0.59125 0.59125,0.59125 l 7.955,0 q 0.59125,0 0.59125,-0.59125 z"
               style="font-style:normal;font-variant:normal;font-weight:900;font-stretch:normal;font-size:53.74999237px;line-height:129.99999523%;font-family:'Rounded-X M+ 1c';-inkscape-font-specification:'Rounded-X M+ 1c, Heavy';text-align:center;writing-mode:lr-tb;text-anchor:middle;fill:#000000;fill-opacity:1"
               id="path4209"
               inkscape:connector-curvature="0" />
            <path
               d="m 303.96613,319.98321 q 1.3975,0 2.365,1.02125 0.9675,0.9675 0.9675,2.31125 l 0,0.69875 q 0,1.66625 -1.1825,2.84875 -1.1825,1.1825 -2.84875,1.1825 l -12.52375,0 q -0.215,0 -0.26875,0.16125 -0.0537,0.16125 0.0538,0.3225 3.655,4.67625 12.47,8.17 1.72,0.69875 2.41875,2.365 0.69875,1.66625 -0.1075,3.3325 l -0.0538,0.0538 q -0.86,1.77375 -2.6875,2.52625 -1.77375,0.7525 -3.60125,0 -10.15875,-4.4075 -16.0175,-12.5775 -0.1075,-0.215 -0.37625,-0.215 -0.26875,0 -0.37625,0.215 -6.235,8.2775 -17.09249,12.685 -1.77375,0.69875 -3.60125,-0.1075 -1.8275,-0.7525 -2.6875,-2.52625 l -0.0538,-0.0538 q -0.80625,-1.66625 -0.1075,-3.3325 0.69875,-1.66625 2.41875,-2.365 8.76124,-3.49375 12.46999,-8.17 0.1075,-0.16125 0,-0.3225 -0.0537,-0.16125 -0.26875,-0.16125 l -12.46999,0 q -1.66625,0 -2.84875,-1.1825 -1.1825,-1.1825 -1.1825,-2.84875 l 0,-0.69875 q 0,-1.34375 0.9675,-2.31125 0.9675,-1.02125 2.365,-1.02125 0.43,0 0.43,-0.43 l 0,-12.73875 q 0,-1.88125 1.34375,-3.225 1.34375,-1.34375 3.225,-1.34375 l 11.23374,0 q 0.59125,0 0.59125,-0.59125 l 0,-1.02125 q 0,-1.88125 1.34375,-3.22499 1.34375,-1.34375 3.225,-1.34375 l 1.075,0 q 1.88125,0 3.225,1.34375 1.34375,1.34374 1.34375,3.22499 l 0,1.02125 q 0,0.59125 0.59125,0.59125 l 11.23375,0 q 1.88125,0 3.225,1.34375 1.34375,1.34375 1.34375,3.225 l 0,12.73875 q 0,0.43 0.43,0.43 z m -27.03625,-1.88125 0,-6.93375 q 0,-0.59125 -0.59125,-0.59125 l -6.07375,0 q -0.59125,0 -0.59125,0.59125 l 0,8.22375 q 0,0.59125 0.59125,0.59125 l 5.96625,0 q 0.645,0 0.645,-0.59125 0,-0.215 0,-0.645 0.0538,-0.43 0.0538,-0.645 z m 17.46875,1.29 0,-8.22375 q 0,-0.59125 -0.59125,-0.59125 l -6.07375,0 q -0.59125,0 -0.59125,0.59125 l 0,6.93375 q 0,0.215 0,0.645 0.0537,0.43 0.0537,0.645 0,0.59125 0.645,0.59125 l 5.96625,0 q 0.59125,0 0.59125,-0.59125 z"
               style="font-style:normal;font-variant:normal;font-weight:900;font-stretch:normal;font-size:53.74999237px;line-height:129.99999523%;font-family:'Rounded-X M+ 1c';-inkscape-font-specification:'Rounded-X M+ 1c, Heavy';text-align:center;writing-mode:lr-tb;text-anchor:middle;fill:#000000;fill-opacity:1"
               id="path4211"
               inkscape:connector-curvature="0" />
            <path
               d="m 355.94238,296.87072 q 1.88125,0 3.225,1.34374 1.34375,1.34375 1.34375,3.225 l 0,40.3125 q 0,1.88125 -1.34375,3.225 -1.34375,1.34375 -3.225,1.34375 l -3.17125,0 q -0.69875,0 -1.1825,-0.48375 -0.48375,-0.48375 -0.48375,-1.1825 0,-0.215 -0.215,-0.215 l -30.2075,0 q -0.215,0 -0.215,0.215 0,0.69875 -0.48374,1.1825 -0.48375,0.48375 -1.1825,0.48375 l -3.17125,0 q -1.88125,0 -3.225,-1.34375 -1.34375,-1.34375 -1.34375,-3.225 l 0,-40.3125 q 0,-1.88125 1.34375,-3.225 1.34375,-1.34374 3.225,-1.34374 l 40.31249,0 z m -4.8375,40.25874 0,-32.68 q 0,-0.59125 -0.59125,-0.59125 l -29.455,0 q -0.59125,0 -0.59125,0.59125 l 0,32.68 q 0,0.59125 0.59125,0.59125 l 29.455,0 q 0.59125,0 0.59125,-0.59125 z m -20.47875,-24.94 q 0.59125,0 0.59125,-0.59125 l 0,-0.16125 q 0,-0.59125 -0.59125,-0.59125 l -5.59,0 q -0.86,0 -1.505,-0.59125 -0.645,-0.645 -0.645,-1.55875 0,-0.91375 0.645,-1.505 0.645,-0.645 1.505,-0.645 l 5.96625,0 q 0.215,0 0.215,-0.215 0,-0.69875 0.48375,-1.1825 0.48375,-0.48375 1.1825,-0.48375 l 5.805,0 q 0.69875,0 1.1825,0.48375 0.48375,0.48375 0.48375,1.1825 0,0.215 0.215,0.215 l 5.96625,0 q 0.86,0 1.505,0.645 0.645,0.59125 0.645,1.505 0,0.91375 -0.645,1.55875 -0.645,0.59125 -1.505,0.59125 l -5.59,0 q -0.59125,0 -0.59125,0.59125 l 0,0.16125 q 0,0.59125 0.59125,0.59125 l 6.02,0 q 0.91375,0 1.55875,0.69875 0.69875,0.645 0.69875,1.55875 0,0.91375 -0.69875,1.6125 -0.645,0.69875 -1.55875,0.69875 l -22.36,0 q -0.91375,0 -1.6125,-0.69875 -0.645,-0.69875 -0.645,-1.6125 0,-0.91375 0.645,-1.55875 0.69875,-0.69875 1.6125,-0.69875 l 6.02,0 z m 18.22125,20.26375 q 1.02125,0.5375 1.1825,1.77375 0.215,1.1825 -0.5375,2.0425 -0.7525,0.9675 -1.98875,1.12875 -1.23625,0.16125 -2.2575,-0.59125 -1.88125,-1.34375 -4.8375,-3.225 -0.1075,-0.0537 -0.215,0.0538 -0.1075,0.0537 -0.1075,0.1075 0,1.075 -0.80625,1.88125 -0.7525,0.7525 -1.8275,0.7525 l -3.655,0 q -0.9675,0 -1.66625,-0.645 -0.645,-0.69875 -0.645,-1.66625 0,-0.26875 -0.215,-0.16125 -2.09625,1.12875 -4.945,2.31125 -1.34375,0.59125 -2.74125,0.1075 -1.34375,-0.5375 -2.0425,-1.8275 -0.59125,-1.12875 -0.1075,-2.2575 0.48375,-1.1825 1.72,-1.6125 3.70875,-1.1825 7.31,-2.84875 0.1075,-0.0537 0.0537,-0.16125 -0.0537,-0.1075 -0.16125,-0.1075 l -2.365,0 q -1.88125,0 -3.225,-1.34375 -1.34375,-1.34375 -1.34375,-3.225 l 0,-0.5375 q 0,-1.88125 1.34375,-3.225 1.34375,-1.34375 3.225,-1.34375 l 15.5875,0 q 1.88125,0 3.225,1.34375 1.34375,1.34375 1.34375,3.225 l 0,2.95625 q 0,0.48375 0.37625,0.7525 1.1825,0.80625 1.3975,2.2575 0.26875,1.3975 -0.59125,2.52625 -0.1075,0.16125 -0.37625,0.48375 -0.26875,0.26875 -0.43,0.43 -0.26875,0.26875 0.1075,0.5375 0.0537,0.0537 0.1075,0.0537 0.0537,0 0.1075,0.0538 z m -8.76125,-9.29875 0,-0.9675 q 0,-0.59125 -0.59125,-0.59125 l -7.4175,0 q -0.59125,0 -0.59125,0.59125 l 0,0.9675 q 0,0.59125 0.59125,0.59125 l 7.4175,0 q 0.59125,0 0.59125,-0.59125 z m 4.89125,4.8375 q 0.1075,-0.16125 0,-0.3225 -0.0537,-0.16125 -0.26875,-0.16125 l -3.01,0 q -0.43,0 -0.69875,0.215 -0.3225,0.3225 0,0.43 0.37625,0.16125 1.075,0.5375 0.69875,0.37625 1.02125,0.5375 0.59125,0.3225 0.9675,-0.16125 0.16125,-0.215 0.43,-0.5375 0.3225,-0.3225 0.48375,-0.5375 z"
               style="font-style:normal;font-variant:normal;font-weight:900;font-stretch:normal;font-size:53.74999237px;line-height:129.99999523%;font-family:'Rounded-X M+ 1c';-inkscape-font-specification:'Rounded-X M+ 1c, Heavy';text-align:center;writing-mode:lr-tb;text-anchor:middle;fill:#000000;fill-opacity:1"
               id="path4213"
               inkscape:connector-curvature="0" />
          </g>
          <g
             style="font-style:normal;font-variant:normal;font-weight:900;font-stretch:normal;font-size:24.03325844px;line-height:125%;font-family:'Rounded-X M+ 1c';-inkscape-font-specification:'Rounded-X M+ 1c, Heavy';text-align:start;letter-spacing:0px;word-spacing:0px;writing-mode:lr-tb;text-anchor:start;opacity:1;fill:#000000;fill-opacity:1;stroke:none;stroke-width:1px;stroke-linecap:butt;stroke-linejoin:miter;stroke-opacity:1"
             id="text4251-0">
            <path
               d="m 36.772073,394.10204 q 0.480665,0.40857 1.225696,0.40857 0.745031,0 1.201663,-0.40857 0.480665,-0.40856 0.480665,-1.03343 0,-0.62486 -0.480665,-1.03343 -0.456632,-0.40856 -1.201663,-0.40856 -0.745031,0 -1.225696,0.40856 -0.456632,0.40857 -0.456632,1.03343 0,0.62487 0.456632,1.03343 z m 11.319665,-10.16606 q 0.745031,0 1.273762,0.52873 0.528732,0.52873 0.528732,1.27376 0,0.74503 -0.528732,1.27376 -0.528731,0.52874 -1.273762,0.52874 l -4.181787,0 q -0.264366,0 -0.264366,0.26436 l 0,3.79726 q 0,0.2163 0.120166,0.50469 0.720998,1.49007 0.720998,3.12433 0,3.41272 -1.874594,5.23925 -1.850561,1.82653 -6.176548,2.47542 -0.817131,0.12017 -1.490062,-0.38453 -0.648898,-0.5047 -0.793097,-1.32183 -0.1442,-0.76906 0.336465,-1.39393 0.480665,-0.62486 1.24973,-0.72099 2.259126,-0.26437 3.052224,-0.5768 0.793097,-0.31243 1.081496,-0.96133 0.02403,-0.024 0.02403,-0.0721 0,-0.0481 0.02403,-0.0721 l 0,-0.0481 -0.04807,0 q -1.225696,0.48067 -2.475425,0.48067 -2.35526,0 -3.821289,-1.32183 -1.466028,-1.32183 -1.466028,-3.48483 0,-2.18702 1.490062,-3.48482 1.490062,-1.32183 4.037587,-1.32183 0.745031,0 1.610228,0.24034 l 0.04807,0 q 0.02403,0 0.02403,-0.024 l 0,-0.67293 q 0,-0.26436 -0.264366,-0.26436 l -8.507773,0 q -0.745031,0 -1.273763,-0.52874 -0.528732,-0.52873 -0.528732,-1.27376 0,-0.74503 0.528732,-1.27376 0.528732,-0.52873 1.273763,-0.52873 l 8.507773,0 q 0.264366,0 0.264366,-0.26437 0,-0.7931 0.552765,-1.34586 0.552765,-0.55277 1.345863,-0.55277 l 0.528731,0 q 0.793098,0 1.345863,0.55277 0.552765,0.55276 0.552765,1.34586 0,0.26437 0.264366,0.26437 l 4.181787,0 z"
               style="font-style:normal;font-variant:normal;font-weight:900;font-stretch:normal;font-size:24.03325844px;line-height:125%;font-family:'Rounded-X M+ 1c';-inkscape-font-specification:'Rounded-X M+ 1c, Heavy';text-align:start;writing-mode:lr-tb;text-anchor:start;fill:#000000;fill-opacity:1"
               id="path4216"
               inkscape:connector-curvature="0" />
            <path
               d="m 68.83244,383.69564 q 0.81713,0 1.393929,0.5768 0.576798,0.5768 0.576798,1.39393 0,0.84117 -0.576798,1.41796 -0.576799,0.5768 -1.393929,0.5768 l -10.718834,0 q -0.81713,0 -1.393929,-0.5768 -0.576798,-0.57679 -0.576798,-1.41796 0,-0.81713 0.576798,-1.39393 0.576799,-0.5768 1.393929,-0.5768 l 10.718834,0 z m 3.004157,16.03019 q 0.192266,0.84116 -0.264366,1.56216 -0.456632,0.721 -1.297796,0.88923 -3.941454,0.74503 -6.921578,0.74503 -4.42212,0 -6.897546,-1.51409 -2.475425,-1.5141 -2.475425,-4.01356 0,-1.17763 0.552765,-2.33122 0.576798,-1.1536 1.970727,-2.69173 0.600831,-0.6489 1.490062,-0.721 0.889231,-0.0961 1.610228,0.4326 l 0.04807,0.0481 q 0.648898,0.45663 0.696964,1.27376 0.0721,0.7931 -0.480665,1.39393 -1.201663,1.34586 -1.201663,2.11493 0,0.86519 1.153597,1.39393 1.177629,0.52873 3.532889,0.52873 2.403325,0 6.080414,-0.74503 0.817131,-0.16824 1.514095,0.28839 0.696965,0.4326 0.865198,1.24973 l 0.02403,0.0961 z"
               style="font-style:normal;font-variant:normal;font-weight:900;font-stretch:normal;font-size:24.03325844px;line-height:125%;font-family:'Rounded-X M+ 1c';-inkscape-font-specification:'Rounded-X M+ 1c, Heavy';text-align:start;writing-mode:lr-tb;text-anchor:start;fill:#000000;fill-opacity:1"
               id="path4218"
               inkscape:connector-curvature="0" />
            <path
               d="m 92.673432,385.13764 q 2.667692,0 4.325986,1.65829 1.682329,1.63427 1.682329,4.35002 0,3.10029 -1.826528,4.85472 -1.826528,1.75443 -4.902785,1.75443 -0.648898,0 -1.009397,-0.024 -0.841164,-0.0481 -1.369895,-0.69697 -0.504699,-0.67293 -0.432599,-1.53813 0.0721,-0.81713 0.720998,-1.34586 0.648898,-0.52873 1.490062,-0.52873 l 0.120166,0 q 1.153596,0 1.898627,-0.60083 0.745031,-0.62487 0.745031,-1.63426 0,-2.13896 -2.090893,-2.163 -0.120166,0 -0.168233,0.0961 -0.04807,0.0961 -0.02403,0.19226 0.02403,0.0481 0.04807,0.1442 0.02403,0.0721 0.02403,0.12017 0.216299,0.81713 -0.2163,1.56216 -0.408565,0.74503 -1.225696,0.98536 l -0.144199,0.0481 q -0.817131,0.24033 -1.562162,-0.16823 -0.720998,-0.40857 -0.985364,-1.2257 0,-0.0721 -0.04807,-0.16823 -0.04807,-0.0961 -0.0721,-0.16823 -0.09613,-0.26437 -0.312432,-0.19227 -0.240333,0.0961 -0.745031,0.26437 -0.480666,0.16823 -0.745031,0.26436 -0.2884,0.0961 -0.192267,0.3605 1.490062,5.09505 2.547526,9.10861 0.216299,0.81713 -0.240333,1.53812 -0.432598,0.74503 -1.249729,0.9373 l -0.456632,0.12017 q -0.817131,0.19226 -1.562162,-0.24034 -0.720998,-0.43259 -0.937297,-1.27376 -1.297796,-4.90278 -2.355259,-8.53181 -0.09613,-0.26436 -0.312433,-0.19226 -0.0721,0.024 -0.745031,0.2884 -0.672931,0.26436 -1.03343,0.40856 -0.793097,0.31244 -1.586195,0 -0.769064,-0.33646 -1.081496,-1.12956 l -0.02403,-0.0481 q -0.336465,-0.79309 0,-1.56216 0.336466,-0.7931 1.129563,-1.10553 0.432599,-0.16823 1.24973,-0.48066 0.817131,-0.33647 0.88923,-0.3605 0.264366,-0.0961 0.168233,-0.3605 -0.120166,-0.38453 -0.360499,-1.10553 -0.216299,-0.721 -0.336465,-1.10553 -0.264366,-0.7931 0.120166,-1.53813 0.384532,-0.76906 1.201663,-1.0094 l 0.432599,-0.12016 q 0.81713,-0.24033 1.562161,0.16823 0.745031,0.38453 1.009397,1.20166 0.09613,0.33647 0.288399,0.96133 0.2163,0.62487 0.312433,0.96133 0.09613,0.26437 0.360499,0.16824 0.865197,-0.31244 1.466028,-0.5047 0.264366,-0.0961 0.192266,-0.31243 -0.04807,-0.1442 -0.168232,-0.5047 -0.09613,-0.3605 -0.168233,-0.55277 -0.264366,-0.79309 0.120166,-1.53813 0.408566,-0.74503 1.225696,-0.96133 l 0.384532,-0.0961 q 0.817131,-0.24033 1.562162,0.16823 0.745031,0.40857 0.985364,1.2257 0.04807,0.16823 0.144199,0.55276 0.120167,0.38454 0.168233,0.55277 0.09613,0.26437 0.384532,0.2163 0.961331,-0.1442 1.730395,-0.1442 z"
               style="font-style:normal;font-variant:normal;font-weight:900;font-stretch:normal;font-size:24.03325844px;line-height:125%;font-family:'Rounded-X M+ 1c';-inkscape-font-specification:'Rounded-X M+ 1c, Heavy';text-align:start;writing-mode:lr-tb;text-anchor:start;fill:#000000;fill-opacity:1"
               id="path4220"
               inkscape:connector-curvature="0" />
            <path
               d="m 109.73705,386.09897 q 1.34586,0 1.97072,0 0.62487,0 1.442,0.16823 0.84116,0.1442 1.10553,0.24034 0.2884,0.0961 0.69696,0.62486 0.40857,0.52873 0.48067,0.91326 0.0721,0.38454 0.19227,1.46603 0.12016,1.05747 0.12016,1.89863 0,0.84116 0,2.61963 0,4.78261 -1.17763,6.84947 -1.15359,2.04283 -3.38869,2.04283 -1.27376,0 -3.38869,-0.45663 -0.79309,-0.16823 -1.20166,-0.88923 -0.40856,-0.721 -0.2163,-1.53813 0.19227,-0.7931 0.88923,-1.20166 0.721,-0.4326 1.5141,-0.24034 1.03343,0.24034 1.44199,0.24034 0.96133,0 0.96133,-5.52765 0,-2.49946 -0.19226,-2.93206 -0.16824,-0.4326 -1.24973,-0.4326 l -1.61023,0 q -0.26437,0 -0.31243,0.26437 -1.17763,5.31135 -3.19643,11.10336 -0.26436,0.76907 -1.00939,1.12957 -0.74503,0.38453 -1.5141,0.12016 -0.76906,-0.26436 -1.12956,-0.98536 -0.33647,-0.69697 -0.0961,-1.442 1.63427,-4.90278 2.78786,-9.94977 0.0481,-0.24033 -0.2163,-0.24033 l -0.91326,0 q -0.7931,0 -1.3699,-0.55276 -0.55276,-0.5768 -0.55276,-1.3699 0,-0.7931 0.55276,-1.34586 0.5768,-0.5768 1.3699,-0.5768 l 1.70636,0 q 0.2884,0 0.33647,-0.2884 0.31243,-1.63426 0.40856,-2.30719 0.1442,-0.84117 0.7931,-1.3699 0.67293,-0.52873 1.51409,-0.48066 0.81714,0.0481 1.32183,0.67293 0.5047,0.62486 0.38454,1.41796 -0.0961,0.69696 -0.33647,2.09089 -0.024,0.0961 0.0481,0.19227 0.0721,0.0721 0.19226,0.0721 l 0.84117,0 z m 10.52656,0.48066 q 1.2978,3.84533 2.42736,8.14728 0.2163,0.7931 -0.24033,1.51409 -0.4326,0.721 -1.24973,0.91327 l -0.19226,0.0481 q -0.81714,0.19226 -1.56217,-0.24034 -0.72099,-0.4326 -0.93729,-1.27376 -1.12957,-4.15775 -2.42736,-8.02711 -0.26437,-0.7931 0.12016,-1.51409 0.38454,-0.74503 1.17763,-0.9373 l 0.24034,-0.0481 q 0.84116,-0.2163 1.61022,0.19227 0.76907,0.40856 1.03343,1.22569 z"
               style="font-style:normal;font-variant:normal;font-weight:900;font-stretch:normal;font-size:24.03325844px;line-height:125%;font-family:'Rounded-X M+ 1c';-inkscape-font-specification:'Rounded-X M+ 1c, Heavy';text-align:start;writing-mode:lr-tb;text-anchor:start;fill:#000000;fill-opacity:1"
               id="path4222"
               inkscape:connector-curvature="0" />
            <path
               d="m 129.34818,397.20234 q 0.16824,0.19226 2.04283,2.54752 0.48067,0.62487 0.3605,1.39393 -0.12017,0.74503 -0.74503,1.17763 -0.6489,0.45663 -1.442,0.33646 -0.76906,-0.12016 -1.27376,-0.74503 -0.5047,-0.62486 -1.89863,-2.30719 -0.50469,-0.60083 -0.45663,-1.39393 0.0721,-0.7931 0.67293,-1.29779 0.62487,-0.5047 1.41797,-0.40857 0.81713,0.0721 1.32182,0.69697 z"
               style="font-style:normal;font-variant:normal;font-weight:900;font-stretch:normal;font-size:24.03325844px;line-height:125%;font-family:'Rounded-X M+ 1c';-inkscape-font-specification:'Rounded-X M+ 1c, Heavy';text-align:start;writing-mode:lr-tb;text-anchor:start;fill:#000000;fill-opacity:1"
               id="path4224"
               inkscape:connector-curvature="0" />
            <path
               d="m 161.16822,388.74263 q 3.74918,0 5.71991,1.46603 1.97073,1.46603 1.97073,4.06162 0,7.08981 -11.94453,8.4597 -0.84116,0.0961 -1.5141,-0.43259 -0.64889,-0.5047 -0.76906,-1.34587 -0.12017,-0.81713 0.3605,-1.46603 0.48066,-0.67293 1.2978,-0.76906 8.00307,-1.12956 8.00307,-4.20582 0,-0.84116 -0.76906,-1.24973 -0.76907,-0.4326 -2.5956,-0.4326 -2.71575,0 -8.12324,1.12957 -0.84116,0.16823 -1.56216,-0.2884 -0.69696,-0.45664 -0.88923,-1.27377 -0.19227,-0.84116 0.24033,-1.56216 0.4326,-0.721 1.24973,-0.88923 5.47959,-1.20166 9.32491,-1.20166 z m -5.45555,-6.03235 q 3.70112,0.3605 7.71467,0.48067 0.84117,0.024 1.442,0.62486 0.62486,0.60083 0.62486,1.442 0,0.84116 -0.60083,1.44199 -0.5768,0.5768 -1.41796,0.55277 -3.58096,-0.0961 -8.24341,-0.5768 -0.84116,-0.0961 -1.34586,-0.74503 -0.5047,-0.6489 -0.40857,-1.46603 0.0961,-0.81713 0.74503,-1.32183 0.6489,-0.5047 1.49007,-0.4326 z"
               style="font-style:normal;font-variant:normal;font-weight:900;font-stretch:normal;font-size:24.03325844px;line-height:125%;font-family:'Rounded-X M+ 1c';-inkscape-font-specification:'Rounded-X M+ 1c, Heavy';text-align:start;writing-mode:lr-tb;text-anchor:start;fill:#000000;fill-opacity:1"
               id="path4226"
               inkscape:connector-curvature="0" />
            <path
               d="m 185.80231,389.94429 q 3.79726,0 5.50362,1.46603 1.70636,1.442 1.70636,4.54229 0,3.22045 -2.76382,5.09505 -2.7398,1.87459 -7.81081,1.87459 -2.21106,0 -4.20582,-0.16823 -0.7931,-0.0721 -1.2978,-0.69697 -0.5047,-0.62486 -0.4326,-1.41796 0.0721,-0.7931 0.69697,-1.29779 0.62486,-0.5047 1.41796,-0.4326 2.01879,0.16823 3.82129,0.16823 2.52349,0 3.96548,-0.8652 1.442,-0.88923 1.442,-2.25912 0,-2.163 -2.76383,-2.163 -1.77846,0 -4.92681,1.56216 -1.92266,0.9373 -3.79726,0.55277 l -0.0961,-0.024 q -0.84117,-0.19227 -1.32183,-0.88923 -0.48067,-0.69697 -0.33647,-1.5141 0.024,-0.1442 0.24034,-1.442 0.24033,-1.32182 0.33646,-1.99476 0.12017,-0.84116 0.7931,-1.36989 0.67293,-0.55277 1.53813,-0.48067 l 0.3605,0.024 q 0.84116,0.0721 1.34586,0.74503 0.52873,0.6489 0.4326,1.46603 -0.0721,0.52873 -0.2163,1.53812 l 0,0.024 0.0481,0 q 3.41272,-2.04283 6.32074,-2.04283 z m -5.86411,-6.75334 q 4.13372,0.40856 8.26744,0.48066 0.7931,0.024 1.34586,0.60083 0.5768,0.55277 0.5768,1.34586 0,0.7931 -0.5768,1.3699 -0.55276,0.55277 -1.34586,0.52873 -4.56632,-0.0721 -8.74811,-0.48066 -0.7931,-0.0721 -1.29779,-0.69697 -0.5047,-0.6489 -0.40857,-1.44199 0.0961,-0.7931 0.721,-1.27377 0.6489,-0.50469 1.46603,-0.43259 z"
               style="font-style:normal;font-variant:normal;font-weight:900;font-stretch:normal;font-size:24.03325844px;line-height:125%;font-family:'Rounded-X M+ 1c';-inkscape-font-specification:'Rounded-X M+ 1c, Heavy';text-align:start;writing-mode:lr-tb;text-anchor:start;fill:#000000;fill-opacity:1"
               id="path4228"
               inkscape:connector-curvature="0" />
            <path
               d="m 209.83556,389.94429 q 3.79726,0 5.50362,1.46603 1.70636,1.442 1.70636,4.54229 0,3.22045 -2.76383,5.09505 -2.73979,1.87459 -7.81081,1.87459 -2.21105,0 -4.20582,-0.16823 -0.79309,-0.0721 -1.29779,-0.69697 -0.5047,-0.62486 -0.4326,-1.41796 0.0721,-0.7931 0.69696,-1.29779 0.62487,-0.5047 1.41797,-0.4326 2.01879,0.16823 3.82128,0.16823 2.5235,0 3.96549,-0.8652 1.442,-0.88923 1.442,-2.25912 0,-2.163 -2.76383,-2.163 -1.77846,0 -4.92681,1.56216 -1.92267,0.9373 -3.79726,0.55277 l -0.0961,-0.024 q -0.84117,-0.19227 -1.32183,-0.88923 -0.48067,-0.69697 -0.33647,-1.5141 0.024,-0.1442 0.24034,-1.442 0.24033,-1.32182 0.33646,-1.99476 0.12017,-0.84116 0.7931,-1.36989 0.67293,-0.55277 1.53813,-0.48067 l 0.3605,0.024 q 0.84116,0.0721 1.34586,0.74503 0.52873,0.6489 0.4326,1.46603 -0.0721,0.52873 -0.2163,1.53812 l 0,0.024 0.0481,0 q 3.41273,-2.04283 6.32075,-2.04283 z m -5.86411,-6.75334 q 4.13372,0.40856 8.26744,0.48066 0.79309,0.024 1.34586,0.60083 0.5768,0.55277 0.5768,1.34586 0,0.7931 -0.5768,1.3699 -0.55277,0.55277 -1.34586,0.52873 -4.56632,-0.0721 -8.74811,-0.48066 -0.7931,-0.0721 -1.2978,-0.69697 -0.50469,-0.6489 -0.40856,-1.44199 0.0961,-0.7931 0.721,-1.27377 0.6489,-0.50469 1.46603,-0.43259 z"
               style="font-style:normal;font-variant:normal;font-weight:900;font-stretch:normal;font-size:24.03325844px;line-height:125%;font-family:'Rounded-X M+ 1c';-inkscape-font-specification:'Rounded-X M+ 1c, Heavy';text-align:start;writing-mode:lr-tb;text-anchor:start;fill:#000000;fill-opacity:1"
               id="path4230"
               inkscape:connector-curvature="0" />
            <path
               d="m 229.90334,386.09897 q 1.34586,0 1.97072,0 0.62487,0 1.442,0.16823 0.84116,0.1442 1.10553,0.24034 0.2884,0.0961 0.69696,0.62486 0.40857,0.52873 0.48067,0.91326 0.0721,0.38454 0.19227,1.46603 0.12016,1.05747 0.12016,1.89863 0,0.84116 0,2.61963 0,4.78261 -1.17763,6.84947 -1.15359,2.04283 -3.38869,2.04283 -1.27376,0 -3.38869,-0.45663 -0.79309,-0.16823 -1.20166,-0.88923 -0.40856,-0.721 -0.2163,-1.53813 0.19227,-0.7931 0.88923,-1.20166 0.721,-0.4326 1.5141,-0.24034 1.03343,0.24034 1.44199,0.24034 0.96133,0 0.96133,-5.52765 0,-2.49946 -0.19226,-2.93206 -0.16824,-0.4326 -1.24973,-0.4326 l -1.61023,0 q -0.26437,0 -0.31243,0.26437 -1.17763,5.31135 -3.19643,11.10336 -0.26436,0.76907 -1.00939,1.12957 -0.74503,0.38453 -1.5141,0.12016 -0.76906,-0.26436 -1.12956,-0.98536 -0.33647,-0.69697 -0.0961,-1.442 1.63426,-4.90278 2.78785,-9.94977 0.0481,-0.24033 -0.2163,-0.24033 l -0.91326,0 q -0.7931,0 -1.3699,-0.55276 -0.55276,-0.5768 -0.55276,-1.3699 0,-0.7931 0.55276,-1.34586 0.5768,-0.5768 1.3699,-0.5768 l 1.70636,0 q 0.2884,0 0.33647,-0.2884 0.31243,-1.63426 0.40856,-2.30719 0.1442,-0.84117 0.7931,-1.3699 0.67293,-0.52873 1.5141,-0.48066 0.81713,0.0481 1.32182,0.67293 0.5047,0.62486 0.38454,1.41796 -0.0961,0.69696 -0.33647,2.09089 -0.024,0.0961 0.0481,0.19227 0.0721,0.0721 0.19226,0.0721 l 0.84117,0 z m 10.52656,0.48066 q 1.2978,3.84533 2.42736,8.14728 0.2163,0.7931 -0.24033,1.51409 -0.4326,0.721 -1.24973,0.91327 l -0.19226,0.0481 q -0.81713,0.19226 -1.56217,-0.24034 -0.72099,-0.4326 -0.93729,-1.27376 -1.12957,-4.15775 -2.42736,-8.02711 -0.26437,-0.7931 0.12016,-1.51409 0.38454,-0.74503 1.17763,-0.9373 l 0.24034,-0.0481 q 0.84116,-0.2163 1.61022,0.19227 0.76907,0.40856 1.03343,1.22569 z"
               style="font-style:normal;font-variant:normal;font-weight:900;font-stretch:normal;font-size:24.03325844px;line-height:125%;font-family:'Rounded-X M+ 1c';-inkscape-font-specification:'Rounded-X M+ 1c, Heavy';text-align:start;writing-mode:lr-tb;text-anchor:start;fill:#000000;fill-opacity:1"
               id="path4232"
               inkscape:connector-curvature="0" />
            <path
               d="m 249.51448,397.20234 q 0.16824,0.19226 2.04283,2.54752 0.48066,0.62487 0.3605,1.39393 -0.12017,0.74503 -0.74503,1.17763 -0.6489,0.45663 -1.442,0.33646 -0.76906,-0.12016 -1.27376,-0.74503 -0.5047,-0.62486 -1.89863,-2.30719 -0.5047,-0.60083 -0.45663,-1.39393 0.0721,-0.7931 0.67293,-1.29779 0.62487,-0.5047 1.41796,-0.40857 0.81713,0.0721 1.32183,0.69697 z"
               style="font-style:normal;font-variant:normal;font-weight:900;font-stretch:normal;font-size:24.03325844px;line-height:125%;font-family:'Rounded-X M+ 1c';-inkscape-font-specification:'Rounded-X M+ 1c, Heavy';text-align:start;writing-mode:lr-tb;text-anchor:start;fill:#000000;fill-opacity:1"
               id="path4234"
               inkscape:connector-curvature="0" />
            <path
               d="m 277.70548,387.94953 q 0.024,-0.0961 -0.0481,-0.1442 -0.0721,-0.0481 -0.16823,-0.024 -2.06686,0.69696 -3.19643,2.33122 -1.12956,1.63427 -1.12956,3.91743 0,1.36989 0.52873,2.61962 0.52873,1.2257 0.91326,1.2257 0.38454,0 0.84117,-0.88923 0.48066,-0.91327 1.0815,-3.24449 0.62486,-2.35526 1.17762,-5.79202 z m 2.90803,-4.73455 q 4.25389,0 7.04174,2.71576 2.8119,2.69172 2.8119,6.89754 0,3.72516 -1.6583,6.20058 -1.63426,2.4514 -4.49422,3.29256 -0.81713,0.24033 -1.53813,-0.26437 -0.721,-0.5047 -0.93729,-1.36989 l -0.0481,-0.0961 q -0.19227,-0.76906 0.24033,-1.49006 0.45663,-0.721 1.24973,-1.08149 2.85996,-1.32183 2.85996,-5.19119 0,-1.87459 -0.98537,-3.26852 -0.96133,-1.39393 -2.59559,-1.94669 -0.26436,-0.0961 -0.31243,0.19226 -0.6489,4.32599 -1.44199,7.20998 -0.7931,2.88399 -1.77847,4.44615 -0.98536,1.53813 -2.01879,2.13896 -1.03343,0.60083 -2.40333,0.60083 -2.13896,0 -3.96548,-2.37929 -1.8025,-2.40333 -1.8025,-5.79201 0,-4.80666 3.24449,-7.81081 3.24449,-3.00416 8.53181,-3.00416 z"
               style="font-style:normal;font-variant:normal;font-weight:900;font-stretch:normal;font-size:24.03325844px;line-height:125%;font-family:'Rounded-X M+ 1c';-inkscape-font-specification:'Rounded-X M+ 1c, Heavy';text-align:start;writing-mode:lr-tb;text-anchor:start;fill:#000000;fill-opacity:1"
               id="path4236"
               inkscape:connector-curvature="0" />
            <path
               d="m 313.80344,382.30171 q 0.52874,0.96134 0.7931,1.46603 0.26437,0.5047 0.0721,1.05747 -0.19226,0.52873 -0.721,0.79309 -0.52873,0.26437 -1.08149,0.0961 -0.55277,-0.19227 -0.81713,-0.721 -0.24034,-0.48067 -0.76907,-1.442 -0.26436,-0.50469 -0.12016,-1.05746 0.16823,-0.5768 0.69696,-0.81713 0.52873,-0.26437 1.0815,-0.0721 0.5768,0.16823 0.86519,0.69696 z m -0.16823,8.05115 q 0.6489,0.55276 0.76907,1.39393 0.12016,0.81713 -0.38454,1.51409 -0.48066,0.67293 -1.32183,0.76907 -0.81713,0.0961 -1.44199,-0.4326 -0.67293,-0.5768 -0.98536,-0.8652 -0.024,-0.024 -0.0481,0 l 0,0.0481 q 0.67293,1.92266 0.67293,3.89338 0,2.81189 -2.35526,4.66246 -2.33122,1.82652 -6.29671,1.82652 -3.79726,0 -6.05638,-2.04282 -2.2351,-2.06686 -2.2351,-5.64782 0,-1.87459 1.05747,-4.01355 1.05746,-2.13896 2.88399,-3.84532 0.024,-0.024 0.024,-0.0481 0,-0.024 -0.024,-0.024 l -2.37929,0 q -0.7931,0 -1.3699,-0.55277 -0.55277,-0.5768 -0.55277,-1.3699 0,-0.79309 0.55277,-1.34586 0.5768,-0.5768 1.3699,-0.5768 l 5.16715,0 q 0.84116,0 1.44199,0.60084 0.60083,0.60083 0.60083,1.44199 0,1.7304 -1.53813,3.38869 -1.22569,1.2978 -1.94669,2.95609 -0.721,1.63426 -0.721,3.14836 0,1.97073 1.0094,3.02819 1.0094,1.05746 2.71576,1.05746 2.01879,0 3.10029,-1.05746 1.10553,-1.05746 1.10553,-3.02819 0,-1.89863 -0.16824,-2.93206 -0.16823,-1.05746 -0.86519,-2.83592 -0.33647,-0.8652 -0.12017,-1.75443 0.2163,-0.88923 0.91327,-1.49006 0.74503,-0.6489 1.77846,-0.48067 0.0721,0.024 0.12016,-0.0481 0.0481,-0.0721 0,-0.1442 -0.0961,-0.19226 -0.31243,-0.57679 -0.2163,-0.40857 -0.31243,-0.60083 -0.26437,-0.5047 -0.0961,-1.03343 0.16824,-0.55277 0.67294,-0.81714 0.52873,-0.26436 1.08149,-0.0961 0.55277,0.16823 0.81713,0.69697 0.12017,0.24033 0.3605,0.72099 0.26437,0.45664 0.38453,0.69697 0.26437,0.5047 0.0721,1.05746 -0.16823,0.55277 -0.67293,0.7931 -0.12016,0.0721 -0.45663,0.12017 -0.0721,0 -0.0961,0.0721 -0.024,0.0721 0.024,0.12017 1.97073,1.9467 4.06162,3.65306 z"
               style="font-style:normal;font-variant:normal;font-weight:900;font-stretch:normal;font-size:24.03325844px;line-height:125%;font-family:'Rounded-X M+ 1c';-inkscape-font-specification:'Rounded-X M+ 1c, Heavy';text-align:start;writing-mode:lr-tb;text-anchor:start;fill:#000000;fill-opacity:1"
               id="path4238"
               inkscape:connector-curvature="0" />
            <path
               d="m 325.77201,387.94953 q 0.024,-0.0961 -0.0481,-0.1442 -0.0721,-0.0481 -0.16824,-0.024 -2.06686,0.69696 -3.19642,2.33122 -1.12956,1.63427 -1.12956,3.91743 0,1.36989 0.52873,2.61962 0.52873,1.2257 0.91326,1.2257 0.38453,0 0.84117,-0.88923 0.48066,-0.91327 1.08149,-3.24449 0.62487,-2.35526 1.17763,-5.79202 z m 2.90803,-4.73455 q 4.25388,0 7.04174,2.71576 2.81189,2.69172 2.81189,6.89754 0,3.72516 -1.65829,6.20058 -1.63426,2.4514 -4.49422,3.29256 -0.81713,0.24033 -1.53813,-0.26437 -0.721,-0.5047 -0.9373,-1.36989 l -0.0481,-0.0961 q -0.19227,-0.76906 0.24033,-1.49006 0.45663,-0.721 1.24973,-1.08149 2.85996,-1.32183 2.85996,-5.19119 0,-1.87459 -0.98537,-3.26852 -0.96133,-1.39393 -2.59559,-1.94669 -0.26436,-0.0961 -0.31243,0.19226 -0.6489,4.32599 -1.442,7.20998 -0.79309,2.88399 -1.77846,4.44615 -0.98536,1.53813 -2.01879,2.13896 -1.03343,0.60083 -2.40333,0.60083 -2.13896,0 -3.96548,-2.37929 -1.8025,-2.40333 -1.8025,-5.79201 0,-4.80666 3.24449,-7.81081 3.24449,-3.00416 8.53181,-3.00416 z"
               style="font-style:normal;font-variant:normal;font-weight:900;font-stretch:normal;font-size:24.03325844px;line-height:125%;font-family:'Rounded-X M+ 1c';-inkscape-font-specification:'Rounded-X M+ 1c, Heavy';text-align:start;writing-mode:lr-tb;text-anchor:start;fill:#000000;fill-opacity:1"
               id="path4240"
               inkscape:connector-curvature="0" />
            <path
               d="m 361.86997,382.30171 q 0.52873,0.96134 0.7931,1.46603 0.26437,0.5047 0.0721,1.05747 -0.19227,0.52873 -0.721,0.79309 -0.52873,0.26437 -1.08149,0.0961 -0.55277,-0.19227 -0.81713,-0.721 -0.24034,-0.48067 -0.76907,-1.442 -0.26436,-0.50469 -0.12017,-1.05746 0.16824,-0.5768 0.69697,-0.81713 0.52873,-0.26437 1.0815,-0.0721 0.57679,0.16823 0.86519,0.69696 z m -0.16823,8.05115 q 0.6489,0.55276 0.76906,1.39393 0.12017,0.81713 -0.38453,1.51409 -0.48066,0.67293 -1.32183,0.76907 -0.81713,0.0961 -1.44199,-0.4326 -0.67293,-0.5768 -0.98537,-0.8652 -0.024,-0.024 -0.0481,0 l 0,0.0481 q 0.67293,1.92266 0.67293,3.89338 0,2.81189 -2.35526,4.66246 -2.33123,1.82652 -6.29671,1.82652 -3.79726,0 -6.05639,-2.04282 -2.23509,-2.06686 -2.23509,-5.64782 0,-1.87459 1.05746,-4.01355 1.05747,-2.13896 2.884,-3.84532 0.024,-0.024 0.024,-0.0481 0,-0.024 -0.024,-0.024 l -2.3793,0 q -0.79309,0 -1.36989,-0.55277 -0.55277,-0.5768 -0.55277,-1.3699 0,-0.79309 0.55277,-1.34586 0.5768,-0.5768 1.36989,-0.5768 l 5.16715,0 q 0.84117,0 1.442,0.60084 0.60083,0.60083 0.60083,1.44199 0,1.7304 -1.53813,3.38869 -1.22569,1.2978 -1.94669,2.95609 -0.721,1.63426 -0.721,3.14836 0,1.97073 1.0094,3.02819 1.00939,1.05746 2.71576,1.05746 2.01879,0 3.10029,-1.05746 1.10553,-1.05746 1.10553,-3.02819 0,-1.89863 -0.16824,-2.93206 -0.16823,-1.05746 -0.86519,-2.83592 -0.33647,-0.8652 -0.12017,-1.75443 0.2163,-0.88923 0.91326,-1.49006 0.74503,-0.6489 1.77846,-0.48067 0.0721,0.024 0.12017,-0.0481 0.0481,-0.0721 0,-0.1442 -0.0961,-0.19226 -0.31243,-0.57679 -0.2163,-0.40857 -0.31243,-0.60083 -0.26437,-0.5047 -0.0961,-1.03343 0.16824,-0.55277 0.67293,-0.81714 0.52874,-0.26436 1.0815,-0.0961 0.55277,0.16823 0.81713,0.69697 0.12017,0.24033 0.3605,0.72099 0.26437,0.45664 0.38453,0.69697 0.26437,0.5047 0.0721,1.05746 -0.16823,0.55277 -0.67293,0.7931 -0.12017,0.0721 -0.45663,0.12017 -0.0721,0 -0.0961,0.0721 -0.024,0.0721 0.024,0.12017 1.97073,1.9467 4.06162,3.65306 z"
               style="font-style:normal;font-variant:normal;font-weight:900;font-stretch:normal;font-size:24.03325844px;line-height:125%;font-family:'Rounded-X M+ 1c';-inkscape-font-specification:'Rounded-X M+ 1c, Heavy';text-align:start;writing-mode:lr-tb;text-anchor:start;fill:#000000;fill-opacity:1"
               id="path4242"
               inkscape:connector-curvature="0" />
            <path
               d="m 377.9482,397.7551 0,-0.0961 q 0,-0.2884 -0.26437,-0.33647 -0.24033,-0.0481 -0.69696,-0.0481 -1.68233,0 -1.68233,0.96134 0,0.50469 0.31243,0.74503 0.33647,0.2163 1.12957,0.2163 1.20166,0 1.20166,-1.442 z m 4.59035,-5.40748 q -0.26437,0 -0.26437,0.26436 l 0,2.42736 q 0,0.2884 0.2163,0.4326 1.17763,0.88923 2.76383,2.52349 0.5768,0.60083 0.55276,1.41796 -0.024,0.81714 -0.60083,1.39393 -0.5768,0.5768 -1.36989,0.55277 -0.7931,-0.024 -1.34587,-0.60083 l -0.40856,-0.40857 q -0.19227,-0.19226 -0.31243,0.0721 -0.5768,1.24973 -1.75443,1.92266 -1.17763,0.69697 -2.78786,0.69697 -6.00831,0 -6.00831,-4.80665 0,-4.68649 6.00831,-4.68649 l 0.45663,0 q 0.26437,0 0.26437,-0.24033 l 0,-0.69697 q 0,-0.26436 -0.26437,-0.26436 l -3.62902,0 q -0.76906,0 -1.32183,-0.55277 -0.55276,-0.55276 -0.55276,-1.32183 0,-0.76906 0.55276,-1.29779 0.55277,-0.55277 1.32183,-0.55277 l 3.62902,0 q 0.26437,0 0.26437,-0.26436 l 0,-0.91327 q 0,-0.26436 -0.26437,-0.26436 l -3.58095,0 q -0.7931,0 -1.3699,-0.55277 -0.55276,-0.5768 -0.55276,-1.36989 0,-0.7931 0.55276,-1.34587 0.5768,-0.57679 1.3699,-0.57679 l 10.09397,0 q 0.79309,0 1.34586,0.57679 0.5768,0.55277 0.5768,1.34587 0,0.79309 -0.5768,1.36989 -0.55277,0.55277 -1.34586,0.55277 l -1.6583,0 q -0.26437,0 -0.26437,0.26436 l 0,0.91327 q 0,0.26436 0.26437,0.26436 l 1.70636,0 q 0.76907,0 1.32183,0.55277 0.55277,0.52873 0.55277,1.29779 0,0.76907 -0.55277,1.32183 -0.55276,0.55277 -1.32183,0.55277 l -1.70636,0 z m -13.67492,-9.37297 q 0.81713,0.0961 1.27376,0.76906 0.48066,0.6489 0.33646,1.442 -0.69696,3.67708 -0.69696,7.64257 0,3.96549 0.69696,7.64258 0.1442,0.7931 -0.33646,1.44199 -0.45663,0.67294 -1.27376,0.76907 l -0.19227,0 q -0.8652,0.0961 -1.58619,-0.40857 -0.721,-0.48066 -0.88924,-1.34586 -0.74503,-3.74919 -0.74503,-8.09921 0,-4.35002 0.74503,-8.09921 0.16824,-0.86519 0.88924,-1.34586 0.72099,-0.5047 1.58619,-0.40856 l 0.19227,0 z"
               style="font-style:normal;font-variant:normal;font-weight:900;font-stretch:normal;font-size:24.03325844px;line-height:125%;font-family:'Rounded-X M+ 1c';-inkscape-font-specification:'Rounded-X M+ 1c, Heavy';text-align:start;writing-mode:lr-tb;text-anchor:start;fill:#000000;fill-opacity:1"
               id="path4244"
               inkscape:connector-curvature="0" />
            <path
               d="m 404.93755,384.72907 q 0.8652,-0.24033 1.6583,0.1442 0.7931,0.3605 1.10553,1.17763 2.11492,5.50362 2.40332,12.18487 0.024,0.84116 -0.57679,1.44199 -0.5768,0.60083 -1.41797,0.60083 l -0.48066,0 q -0.84117,0 -1.442,-0.60083 -0.60083,-0.60083 -0.6489,-1.46603 -0.28839,-5.62378 -2.11492,-10.9111 -0.26437,-0.76906 0.0961,-1.51409 0.3605,-0.74503 1.1536,-0.96133 l 0.26436,-0.0961 z m -3.67709,9.78154 q 0.81714,0.31243 1.17763,1.0815 0.3605,0.74503 0,1.51409 -1.27376,2.76383 -3.05222,4.30196 -1.75443,1.51409 -3.41272,1.51409 -2.21106,0 -4.10969,-2.85996 -1.89863,-2.85995 -1.89863,-6.99368 0,-3.29255 0.76907,-6.68124 0.19226,-0.8652 0.93729,-1.34586 0.76907,-0.5047 1.6583,-0.40857 l 0.3605,0.0481 q 0.7931,0.0961 1.24973,0.76906 0.48066,0.6489 0.31243,1.442 -0.721,3.48482 -0.721,6.17654 0,1.12957 0.16824,2.163 0.19226,1.00939 0.48066,1.68233 0.2884,0.64889 0.5768,1.05746 0.31243,0.38453 0.5768,0.38453 0.3605,0 0.93729,-0.67293 0.5768,-0.69696 1.2257,-1.99476 0.38453,-0.76906 1.17763,-1.12956 0.81713,-0.3605 1.58619,-0.0481 z"
               style="font-style:normal;font-variant:normal;font-weight:900;font-stretch:normal;font-size:24.03325844px;line-height:125%;font-family:'Rounded-X M+ 1c';-inkscape-font-specification:'Rounded-X M+ 1c, Heavy';text-align:start;writing-mode:lr-tb;text-anchor:start;fill:#000000;fill-opacity:1"
               id="path4246"
               inkscape:connector-curvature="0" />
            <path
               d="m 429.42745,399.2692 q 0.67293,0.50469 0.76906,1.34586 0.0961,0.84116 -0.45663,1.46603 l -0.24033,0.24033 q -0.55277,0.6489 -1.41796,0.74503 -0.84117,0.0961 -1.5141,-0.40857 -2.93206,-2.18702 -6.84948,-4.87875 -2.35526,-1.63426 -3.24449,-2.37929 -0.88923,-0.76906 -1.20166,-1.36989 -0.31243,-0.62487 -0.31243,-1.68233 0,-1.5862 0.74503,-2.40333 0.76906,-0.81713 3.96549,-2.83592 2.78785,-1.75443 6.34478,-4.18179 0.69696,-0.48067 1.53813,-0.33647 0.84116,0.1442 1.34586,0.84117 l 0.24033,0.2884 q 0.5047,0.69696 0.3605,1.51409 -0.1442,0.81713 -0.84117,1.2978 -2.95609,2.04283 -6.10444,3.94145 -1.442,0.88923 -1.8746,1.24973 -0.4326,0.33647 -0.4326,0.62487 0,0.2884 0.3605,0.62486 0.38454,0.31243 1.8025,1.27376 3.10029,2.04283 7.01771,5.02296 z"
               style="font-style:normal;font-variant:normal;font-weight:900;font-stretch:normal;font-size:24.03325844px;line-height:125%;font-family:'Rounded-X M+ 1c';-inkscape-font-specification:'Rounded-X M+ 1c, Heavy';text-align:start;writing-mode:lr-tb;text-anchor:start;fill:#000000;fill-opacity:1"
               id="path4248"
               inkscape:connector-curvature="0" />
          </g>
        </g>
      </g>
      <g
         style="fill:#000000;fill-opacity:1"
         transform="matrix(3.2390248,0,0,3.2390248,-999.93324,-3035.5408)"
         id="g4191">
        <g
           style="font-style:normal;font-variant:normal;font-weight:900;font-stretch:normal;font-size:51.02481842px;line-height:125%;font-family:'Rounded-X M+ 1c';-inkscape-font-specification:'Rounded-X M+ 1c, Heavy';text-align:start;letter-spacing:0px;word-spacing:0px;writing-mode:lr-tb;text-anchor:start;fill:#000000;fill-opacity:1;stroke:none;stroke-width:1px;stroke-linecap:butt;stroke-linejoin:miter;stroke-opacity:1"
           id="text4239-2">
          <path
             d="m 685.32359,942.71401 q 3.16354,-3.82687 7.80679,-3.82687 4.64326,0 6.63323,2.65329 2.04099,2.6533 2.04099,9.08242 l 0,10.97034 q 0,1.78587 -1.27562,3.06149 -1.27562,1.27562 -3.06149,1.27562 l -0.76537,0 q -1.78587,0 -3.06149,-1.27562 -1.27562,-1.27562 -1.27562,-3.06149 l 0,-10.97034 q 0,-2.34714 -0.66332,-3.21456 -0.66332,-0.86742 -2.39817,-0.86742 -1.42869,0 -2.65329,1.12254 -1.17357,1.12255 -1.17357,2.44919 l 0,11.48059 q 0,1.78587 -1.27562,3.06149 -1.27562,1.27562 -3.06149,1.27562 l -1.02049,0 q -1.78587,0 -3.06149,-1.27562 -1.27562,-1.27562 -1.27562,-3.06149 l 0,-17.85869 q 0,-1.78587 1.27562,-3.06149 1.27562,-1.27562 3.06149,-1.27562 l 1.98996,0 q 1.2246,0 2.09202,0.86742 0.91845,0.86743 0.96947,2.09202 l 0,0.35718 q 0,0.051 0.051,0.051 0.10205,0 0.10205,-0.051 z"
             id="path4251"
             inkscape:connector-curvature="0" />
          <path
             d="m 714.85978,939.39739 q 1.78587,0 3.06149,1.27562 1.27562,1.27562 1.27562,3.06149 l 0,17.85869 q 0,1.78587 -1.27562,3.06149 -1.27562,1.27562 -3.06149,1.27562 l -1.53074,0 q -1.78587,0 -3.06149,-1.27562 -1.27562,-1.27562 -1.27562,-3.06149 l 0,-17.85869 q 0,-1.78587 1.27562,-3.06149 1.27562,-1.27562 3.06149,-1.27562 l 1.53074,0 z m 0.76537,-11.73571 q 1.47972,0 2.50022,1.07153 1.07152,1.02049 1.07152,2.50021 0,1.47972 -1.07152,2.55124 -1.0205,1.0205 -2.50022,1.0205 l -3.06149,0 q -1.47972,0 -2.55124,-1.0205 -1.02049,-1.07152 -1.02049,-2.55124 0,-1.47972 1.02049,-2.50021 1.07152,-1.07153 2.55124,-1.07153 l 3.06149,0 z"
             id="path4253"
             inkscape:connector-curvature="0" />
          <path
             d="m 744.26203,959.04195 q 1.37767,-0.2041 2.4492,0.66332 1.07152,0.8164 1.07152,2.14304 0,1.58177 -1.0205,2.80637 -0.96947,1.17357 -2.50022,1.37767 -3.11251,0.4082 -5.40863,0.4082 -6.7863,0 -10.40906,-3.46969 -3.62276,-3.46969 -3.62276,-10.30701 0,-6.68426 3.46969,-10.20497 3.52071,-3.57174 10.05189,-3.57174 2.29611,0 5.40863,0.4082 1.53074,0.2041 2.50021,1.4287 1.0205,1.17357 1.0205,2.75534 0,1.32664 -1.07152,2.19406 -1.07152,0.8164 -2.44919,0.6123 -1.53075,-0.25512 -3.62277,-0.25512 -2.60226,0 -3.87788,1.58177 -1.2246,1.58177 -1.2246,5.05146 0,3.52071 1.32665,5.10248 1.37767,1.53074 4.28608,1.53074 2.09202,0 3.62276,-0.25512 z"
             id="path4255"
             inkscape:connector-curvature="0" />
          <path
             d="m 762.79202,958.22555 q 0.96947,1.58177 3.11251,1.58177 2.14304,0 3.11251,-1.58177 0.96948,-1.63279 0.96948,-5.5617 0,-3.92892 -0.96948,-5.51069 -0.96947,-1.63279 -3.11251,-1.63279 -2.14304,0 -3.11251,1.63279 -0.96947,1.58177 -0.96947,5.51069 0,3.92891 0.96947,5.5617 z m -7.04143,-15.66462 q 3.62276,-3.67379 10.15394,-3.67379 6.53118,0 10.15394,3.67379 3.62276,3.62276 3.62276,10.10292 0,6.48015 -3.62276,10.15393 -3.62276,3.62277 -10.15394,3.62277 -6.53118,0 -10.15394,-3.62277 -3.62276,-3.67378 -3.62276,-10.15393 0,-6.48016 3.62276,-10.10292 z"
             id="path4257"
             inkscape:connector-curvature="0" />
          <path
             d="m 793.85098,942.71401 q 3.16354,-3.82687 7.80679,-3.82687 4.64326,0 6.63323,2.65329 2.04099,2.6533 2.04099,9.08242 l 0,10.97034 q 0,1.78587 -1.27562,3.06149 -1.27562,1.27562 -3.06149,1.27562 l -0.76537,0 q -1.78587,0 -3.06149,-1.27562 -1.27562,-1.27562 -1.27562,-3.06149 l 0,-10.97034 q 0,-2.34714 -0.66332,-3.21456 -0.66332,-0.86742 -2.39817,-0.86742 -1.42869,0 -2.65329,1.12254 -1.17357,1.12255 -1.17357,2.44919 l 0,11.48059 q 0,1.78587 -1.27562,3.06149 -1.27562,1.27562 -3.06149,1.27562 l -1.02049,0 q -1.78587,0 -3.06149,-1.27562 -1.27562,-1.27562 -1.27562,-3.06149 l 0,-17.85869 q 0,-1.78587 1.27562,-3.06149 1.27562,-1.27562 3.06149,-1.27562 l 1.98996,0 q 1.2246,0 2.09202,0.86742 0.91845,0.86743 0.96947,2.09202 l 0,0.35718 q 0,0.051 0.051,0.051 0.10205,0 0.10205,-0.051 z"
             id="path4259"
             inkscape:connector-curvature="0" />
          <path
             d="m 823.38717,939.39739 q 1.78587,0 3.06149,1.27562 1.27562,1.27562 1.27562,3.06149 l 0,17.85869 q 0,1.78587 -1.27562,3.06149 -1.27562,1.27562 -3.06149,1.27562 l -1.53074,0 q -1.78587,0 -3.06149,-1.27562 -1.27562,-1.27562 -1.27562,-3.06149 l 0,-17.85869 q 0,-1.78587 1.27562,-3.06149 1.27562,-1.27562 3.06149,-1.27562 l 1.53074,0 z m 0.76537,-11.73571 q 1.47972,0 2.50022,1.07153 1.07152,1.02049 1.07152,2.50021 0,1.47972 -1.07152,2.55124 -1.0205,1.0205 -2.50022,1.0205 l -3.06149,0 q -1.47972,0 -2.55124,-1.0205 -1.02049,-1.07152 -1.02049,-2.55124 0,-1.47972 1.02049,-2.50021 1.07152,-1.07153 2.55124,-1.07153 l 3.06149,0 z"
             id="path4261"
             inkscape:connector-curvature="0" />
          <path
             d="m 852.78942,959.04195 q 1.37767,-0.2041 2.44919,0.66332 1.07153,0.8164 1.07153,2.14304 0,1.58177 -1.0205,2.80637 -0.96947,1.17357 -2.50022,1.37767 -3.11251,0.4082 -5.40863,0.4082 -6.7863,0 -10.40906,-3.46969 -3.62276,-3.46969 -3.62276,-10.30701 0,-6.68426 3.46969,-10.20497 3.52071,-3.57174 10.05188,-3.57174 2.29612,0 5.40864,0.4082 1.53074,0.2041 2.50021,1.4287 1.0205,1.17357 1.0205,2.75534 0,1.32664 -1.07152,2.19406 -1.07152,0.8164 -2.44919,0.6123 -1.53075,-0.25512 -3.62277,-0.25512 -2.60226,0 -3.87788,1.58177 -1.2246,1.58177 -1.2246,5.05146 0,3.52071 1.32665,5.10248 1.37767,1.53074 4.28608,1.53074 2.09202,0 3.62276,-0.25512 z"
             id="path4263"
             inkscape:connector-curvature="0" />
          <path
             d="m 871.31941,958.22555 q 0.96948,1.58177 3.11252,1.58177 2.14304,0 3.11251,-1.58177 0.96947,-1.63279 0.96947,-5.5617 0,-3.92892 -0.96947,-5.51069 -0.96947,-1.63279 -3.11251,-1.63279 -2.14304,0 -3.11252,1.63279 -0.96947,1.58177 -0.96947,5.51069 0,3.92891 0.96947,5.5617 z m -7.04142,-15.66462 q 3.62276,-3.67379 10.15394,-3.67379 6.53117,0 10.15394,3.67379 3.62276,3.62276 3.62276,10.10292 0,6.48015 -3.62276,10.15393 -3.62277,3.62277 -10.15394,3.62277 -6.53118,0 -10.15394,-3.62277 -3.62276,-3.67378 -3.62276,-10.15393 0,-6.48016 3.62276,-10.10292 z"
             id="path4265"
             inkscape:connector-curvature="0" />
          <path
             d="m 908.13221,947.30624 q 1.58177,0 2.70432,1.12255 1.12255,1.12254 1.12255,2.70431 0,1.58177 -1.12255,2.70432 -1.12255,1.12254 -2.70432,1.12254 l -10.71521,0 q -1.58177,0 -2.70431,-1.12254 -1.12255,-1.12255 -1.12255,-2.70432 0,-1.58177 1.12255,-2.70431 1.12254,-1.12255 2.70431,-1.12255 l 10.71521,0 z"
             id="path4267"
             inkscape:connector-curvature="0" />
          <path
             d="m 936.25167,938.88714 q 4.74531,0 6.68426,2.75534 1.98996,2.70432 1.98996,10.00087 l 0,9.94984 q 0,1.78587 -1.27562,3.06149 -1.27562,1.27562 -3.06149,1.27562 l -0.76537,0 q -1.78587,0 -3.06149,-1.27562 -1.27562,-1.27562 -1.27562,-3.06149 l 0,-8.92934 q 0,-3.77584 -0.66332,-4.94941 -0.6123,-1.17357 -2.39817,-1.17357 -1.42869,0 -2.65329,1.12254 -1.17357,1.12255 -1.17357,2.44919 l 0,11.48059 q 0,1.78587 -1.27562,3.06149 -1.27562,1.27562 -3.06149,1.27562 l -1.02049,0 q -1.78587,0 -3.06149,-1.27562 -1.27562,-1.27562 -1.27562,-3.06149 l 0,-29.5944 q 0,-1.78587 1.27562,-3.06149 1.27562,-1.27562 3.06149,-1.27562 l 1.02049,0 q 1.78587,0 3.06149,1.27562 1.27562,1.27562 1.27562,3.06149 l 0,9.89882 q 0,0.051 0.051,0.051 0.051,0 0.10205,-0.051 3.62276,-3.01047 7.50064,-3.01047 z"
             id="path4269"
             inkscape:connector-curvature="0" />
          <path
             d="m 960.01488,958.22555 q 0.96947,1.58177 3.11251,1.58177 2.14305,0 3.11252,-1.58177 0.96947,-1.63279 0.96947,-5.5617 0,-3.92892 -0.96947,-5.51069 -0.96947,-1.63279 -3.11252,-1.63279 -2.14304,0 -3.11251,1.63279 -0.96947,1.58177 -0.96947,5.51069 0,3.92891 0.96947,5.5617 z m -7.04143,-15.66462 q 3.62277,-3.67379 10.15394,-3.67379 6.53118,0 10.15394,3.67379 3.62276,3.62276 3.62276,10.10292 0,6.48015 -3.62276,10.15393 -3.62276,3.62277 -10.15394,3.62277 -6.53117,0 -10.15394,-3.62277 -3.62276,-3.67378 -3.62276,-10.15393 0,-6.48016 3.62276,-10.10292 z"
             id="path4271"
             inkscape:connector-curvature="0" />
          <path
             d="m 988.42057,939.39739 q 1.78587,0 3.06149,1.27562 1.27562,1.27562 1.27562,3.06149 l 0,17.85869 q 0,1.78587 -1.27562,3.06149 -1.27562,1.27562 -3.06149,1.27562 l -1.53074,0 q -1.78587,0 -3.06149,-1.27562 -1.27562,-1.27562 -1.27562,-3.06149 l 0,-17.85869 q 0,-1.78587 1.27562,-3.06149 1.27562,-1.27562 3.06149,-1.27562 l 1.53074,0 z m 0.76537,-11.73571 q 1.47972,0 2.50022,1.07153 1.07152,1.02049 1.07152,2.50021 0,1.47972 -1.07152,2.55124 -1.0205,1.0205 -2.50022,1.0205 l -3.06149,0 q -1.47972,0 -2.55124,-1.0205 -1.02049,-1.07152 -1.02049,-2.55124 0,-1.47972 1.02049,-2.50021 1.07152,-1.07153 2.55124,-1.07153 l 3.06149,0 z"
             id="path4273"
             inkscape:connector-curvature="0" />
          <path
             d="m 1018.129,952.61282 7.2455,9.84779 q 0.8164,1.07152 0.2041,2.29612 -0.6123,1.17357 -1.9389,1.17357 l -2.2962,0 q -4.3881,0 -6.8373,-3.57174 l -4.235,-6.07195 q 0,-0.051 -0.1021,-0.051 -0.051,0 -0.051,0.051 l 0,5.30658 q 0,1.78587 -1.2756,3.06149 -1.2757,1.27562 -3.0615,1.27562 l -1.0205,0 q -1.7859,0 -3.0615,-1.27562 -1.2756,-1.27562 -1.2756,-3.06149 l 0,-29.5944 q 0,-1.78587 1.2756,-3.06149 1.2756,-1.27562 3.0615,-1.27562 l 1.0205,0 q 1.7858,0 3.0615,1.27562 1.2756,1.27562 1.2756,3.06149 l 0,16.53204 q 0,0.051 0.051,0.051 l 0.1021,-0.051 4.133,-5.66375 q 2.6022,-3.46969 6.9393,-3.46969 l 2.2962,0 q 1.3266,0 1.8879,1.17357 0.5612,1.17357 -0.2552,2.19407 l -7.1434,8.92934 q -0.3572,0.45923 0,0.91845 z"
             id="path4275"
             inkscape:connector-curvature="0" />
          <path
             d="m 1037.1772,955.21509 q 1.7859,0 3.0615,1.27562 1.2756,1.27562 1.2756,3.06149 l 0,2.04099 q 0,1.78587 -1.2756,3.06149 -1.2756,1.27562 -3.0615,1.27562 l -2.5513,0 q -1.7858,0 -3.0614,-1.27562 -1.2757,-1.27562 -1.2757,-3.06149 l 0,-2.04099 q 0,-1.78587 1.2757,-3.06149 1.2756,-1.27562 3.0614,-1.27562 l 2.5513,0 z"
             id="path4277"
             inkscape:connector-curvature="0" />
          <path
             d="m 1066.1569,959.04195 q 1.3776,-0.2041 2.4492,0.66332 1.0715,0.8164 1.0715,2.14304 0,1.58177 -1.0205,2.80637 -0.9695,1.17357 -2.5002,1.37767 -3.1125,0.4082 -5.4087,0.4082 -6.7863,0 -10.409,-3.46969 -3.6228,-3.46969 -3.6228,-10.30701 0,-6.68426 3.4697,-10.20497 3.5207,-3.57174 10.0519,-3.57174 2.2961,0 5.4086,0.4082 1.5308,0.2041 2.5002,1.4287 1.0205,1.17357 1.0205,2.75534 0,1.32664 -1.0715,2.19406 -1.0715,0.8164 -2.4492,0.6123 -1.5307,-0.25512 -3.6227,-0.25512 -2.6023,0 -3.8779,1.58177 -1.2246,1.58177 -1.2246,5.05146 0,3.52071 1.3266,5.10248 1.3777,1.53074 4.2861,1.53074 2.092,0 3.6228,-0.25512 z"
             id="path4279"
             inkscape:connector-curvature="0" />
          <path
             d="m 1084.6868,958.22555 q 0.9695,1.58177 3.1126,1.58177 2.143,0 3.1125,-1.58177 0.9694,-1.63279 0.9694,-5.5617 0,-3.92892 -0.9694,-5.51069 -0.9695,-1.63279 -3.1125,-1.63279 -2.1431,0 -3.1126,1.63279 -0.9694,1.58177 -0.9694,5.51069 0,3.92891 0.9694,5.5617 z m -7.0414,-15.66462 q 3.6228,-3.67379 10.154,-3.67379 6.5311,0 10.1539,3.67379 3.6228,3.62276 3.6228,10.10292 0,6.48015 -3.6228,10.15393 -3.6228,3.62277 -10.1539,3.62277 -6.5312,0 -10.154,-3.62277 -3.6227,-3.67378 -3.6227,-10.15393 0,-6.48016 3.6227,-10.10292 z"
             id="path4281"
             inkscape:connector-curvature="0" />
          <path
             d="m 1136.564,938.88714 q 4.3881,0 6.3781,2.39817 2.0409,2.34714 2.0409,7.8068 l 0,12.50108 q 0,1.78587 -1.2756,3.06149 -1.2756,1.27562 -3.0615,1.27562 l -0.7143,0 q -1.7859,0 -3.1125,-1.27562 -1.2756,-1.27562 -1.2756,-3.06149 l 0,-12.50108 q 0,-1.73485 -0.5103,-2.34714 -0.4592,-0.6123 -1.7859,-0.6123 -1.0205,0 -1.9389,0.66332 -0.8674,0.66332 -0.8674,1.27562 l 0,13.52158 q 0,1.78587 -1.2756,3.06149 -1.2757,1.27562 -3.0615,1.27562 l -0.7144,0 q -1.7858,0 -3.0615,-1.27562 -1.2756,-1.27562 -1.2756,-3.06149 l 0,-12.50108 q 0,-1.73485 -0.5102,-2.34714 -0.5103,-0.6123 -1.8369,-0.6123 -1.0205,0 -1.939,0.66332 -0.8674,0.66332 -0.8674,1.27562 l 0,13.52158 q 0,1.78587 -1.2756,3.06149 -1.2756,1.27562 -3.0615,1.27562 l -1.0205,0 q -1.7859,0 -3.0615,-1.27562 -1.2756,-1.27562 -1.2756,-3.06149 l 0,-17.85869 q 0,-1.78587 1.2756,-3.06149 1.2756,-1.27562 3.0615,-1.27562 l 1.4287,0 q 1.3266,0 2.2961,0.91845 1.0205,0.91845 1.0715,2.24509 l 0,0.35717 q 0,0.051 0.051,0.051 0.102,0 0.102,-0.051 1.3777,-1.88791 3.2656,-2.95943 1.9389,-1.07153 3.7758,-1.07153 2.3472,0 3.7248,0.8164 1.4287,0.8164 2.7044,2.95944 0,0.051 0.051,0.051 0.102,0 0.1531,-0.051 3.7758,-3.77584 7.3986,-3.77584 z"
             id="path4283"
             inkscape:connector-curvature="0" />
        </g>
      </g>
    </g>
  </g>
</svg>
