<?xml version="1.0" encoding="UTF-8" standalone="no"?>
<!-- Created with Inkscape (http://www.inkscape.org/) -->

<svg
   xmlns:dc="http://purl.org/dc/elements/1.1/"
   xmlns:cc="http://creativecommons.org/ns#"
   xmlns:rdf="http://www.w3.org/1999/02/22-rdf-syntax-ns#"
   xmlns:svg="http://www.w3.org/2000/svg"
   xmlns="http://www.w3.org/2000/svg"
   xmlns:sodipodi="http://sodipodi.sourceforge.net/DTD/sodipodi-0.dtd"
   xmlns:inkscape="http://www.inkscape.org/namespaces/inkscape"
   width="1300"
   height="900"
   viewBox="0 0 1300 900.00002"
   id="svg2"
   version="1.1"
   inkscape:version="0.92.1 r15371"
   sodipodi:docname="1300_900_ennavi.svg"
   inkscape:export-filename="C:\Users\FMVA77HWZ\Desktop\rogo.png"
   inkscape:export-xdpi="96"
   inkscape:export-ydpi="96">
  <defs
     id="defs4" />
  <sodipodi:namedview
     id="base"
     pagecolor="#ffffff"
     bordercolor="#666666"
     borderopacity="1.0"
     inkscape:pageopacity="0"
     inkscape:pageshadow="2"
     inkscape:zoom="0.84923077"
     inkscape:cx="650"
     inkscape:cy="450"
     inkscape:document-units="px"
     inkscape:current-layer="svg2"
     showgrid="false"
     inkscape:window-width="1853"
     inkscape:window-height="1057"
     inkscape:window-x="-8"
     inkscape:window-y="-8"
     inkscape:window-maximized="1"
     units="px"
     inkscape:pagecheckerboard="true" />
  <metadata
     id="metadata7">
    <rdf:RDF>
      <cc:Work
         rdf:about="">
        <dc:format>image/svg+xml</dc:format>
        <dc:type
           rdf:resource="http://purl.org/dc/dcmitype/StillImage" />
        <dc:title></dc:title>
      </cc:Work>
    </rdf:RDF>
  </metadata>
  <circle
     r="45.708523"
     cy="466.21274"
     cx="996.81885"
     id="path4257-53"
     style="opacity:0.85;fill:#ffc30c;fill-opacity:1;stroke:none;stroke-width:29.59454536;stroke-linejoin:round;stroke-miterlimit:4;stroke-dasharray:none;stroke-opacity:1" />
  <circle
     r="36.801949"
     cy="224.24449"
     cx="783.89777"
     id="path4257-5-6"
     style="opacity:0.85;fill:#ffc30c;fill-opacity:1;stroke:none;stroke-width:29.59454536;stroke-linejoin:round;stroke-miterlimit:4;stroke-dasharray:none;stroke-opacity:1" />
  <circle
     r="26.410952"
     cy="561.43872"
     cx="481.07446"
     id="path4257-5-5-0"
     style="opacity:0.85;fill:#ffc30c;fill-opacity:1;stroke:none;stroke-width:29.59454536;stroke-linejoin:round;stroke-miterlimit:4;stroke-dasharray:none;stroke-opacity:1" />
  <circle
     r="17.504383"
     cy="695.0531"
     cx="852.41772"
     id="path4257-5-5-6-8"
     style="opacity:0.85;fill:#ffc30c;fill-opacity:1;stroke:none;stroke-width:29.59454536;stroke-linejoin:round;stroke-miterlimit:4;stroke-dasharray:none;stroke-opacity:1" />
  <circle
     r="8.5978136"
     cy="442.45541"
     cx="316.30292"
     id="path4257-5-5-6-0-1"
     style="opacity:0.85;fill:#ffc30c;fill-opacity:1;stroke:none;stroke-width:29.59454536;stroke-linejoin:round;stroke-miterlimit:4;stroke-dasharray:none;stroke-opacity:1" />
  <path
     d="m 348.54946,288.11552 q 3.81284,0 6.53628,2.72346 2.72347,2.72345 2.72347,6.53629 v 1.63407 q 0,3.81284 -2.72347,6.53631 -2.72344,2.72344 -6.53628,2.72344 H 292.991 q -3.81285,0 -6.53629,-2.72344 -2.72347,-2.72347 -2.72347,-6.53631 v -1.63407 q 0,-3.81284 2.72347,-6.53629 2.72344,-2.72346 6.53629,-2.72346 z m 7.62566,60.46068 q 3.81284,0 6.53631,2.72346 2.72344,2.72345 2.72344,6.53629 v 1.63407 q 0,3.81284 -2.72344,6.53628 -2.72347,2.72347 -6.53631,2.72347 h -70.80981 q -3.81282,0 -6.53629,-2.72347 -2.72344,-2.72344 -2.72344,-6.53628 v -1.63407 q 0,-3.81284 2.72344,-6.53629 2.72347,-2.72346 6.53629,-2.72346 z"
     style="font-style:normal;font-variant:normal;font-weight:900;font-stretch:normal;font-size:53.74999237px;line-height:129.99999523%;font-family:'Rounded-X M+ 1c';-inkscape-font-specification:'Rounded-X M+ 1c, Heavy';text-align:center;letter-spacing:0px;word-spacing:0px;writing-mode:lr-tb;text-anchor:middle;fill:#003586;fill-opacity:1;stroke:none;stroke-width:2.10817385px;stroke-linecap:butt;stroke-linejoin:miter;stroke-opacity:1"
     id="path4202"
     inkscape:connector-curvature="0" />
  <path
     d="m 459.66639,288.11552 q 3.81282,0 6.53629,2.72346 2.72344,2.72345 2.72344,6.53629 v 62.09475 q 0,3.81284 -2.72344,6.53628 -2.72347,2.72347 -6.53629,2.72347 h -62.09474 q -3.81285,0 -6.53629,-2.72347 -2.72347,-2.72344 -2.72347,-6.53628 0,-3.81285 2.72347,-6.53629 2.72344,-2.72347 6.53629,-2.72347 h 49.4579 q 1.19833,0 1.19833,-1.1983 v -41.17863 q 0,-1.19831 -1.19833,-1.19831 h -49.4579 q -3.81285,0 -6.53629,-2.72346 -2.72347,-2.72345 -2.72347,-6.53629 0,-3.81284 2.72347,-6.53629 2.72344,-2.72346 6.53629,-2.72346 z"
     style="font-style:normal;font-variant:normal;font-weight:900;font-stretch:normal;font-size:53.74999237px;line-height:129.99999523%;font-family:'Rounded-X M+ 1c';-inkscape-font-specification:'Rounded-X M+ 1c, Heavy';text-align:center;letter-spacing:0px;word-spacing:0px;writing-mode:lr-tb;text-anchor:middle;fill:#003586;fill-opacity:1;stroke:none;stroke-width:2.10817385px;stroke-linecap:butt;stroke-linejoin:miter;stroke-opacity:1"
     id="path4204"
     inkscape:connector-curvature="0" />
  <path
     d="m 566.42578,288.11552 q 3.81284,0 6.5363,2.72346 2.72345,2.72345 2.72345,6.53629 v 1.63407 q 0,3.81284 -2.72345,6.53631 -2.72346,2.72344 -6.5363,2.72344 h -55.55844 q -3.81284,0 -6.53629,-2.72344 -2.72346,-2.72347 -2.72346,-6.53631 v -1.63407 q 0,-3.81284 2.72346,-6.53629 2.72345,-2.72346 6.53629,-2.72346 z m 7.62568,60.46068 q 3.81285,0 6.53629,2.72346 2.72347,2.72345 2.72347,6.53629 v 1.63407 q 0,3.81284 -2.72347,6.53628 -2.72344,2.72347 -6.53629,2.72347 h -70.80981 q -3.81282,0 -6.53629,-2.72347 -2.72344,-2.72344 -2.72344,-6.53628 v -1.63407 q 0,-3.81284 2.72344,-6.53629 2.72347,-2.72346 6.53629,-2.72346 z"
     style="font-style:normal;font-variant:normal;font-weight:900;font-stretch:normal;font-size:53.74999237px;line-height:129.99999523%;font-family:'Rounded-X M+ 1c';-inkscape-font-specification:'Rounded-X M+ 1c, Heavy';text-align:center;letter-spacing:0px;word-spacing:0px;writing-mode:lr-tb;text-anchor:middle;fill:#003586;fill-opacity:1;stroke:none;stroke-width:2.10817385px;stroke-linecap:butt;stroke-linejoin:miter;stroke-opacity:1"
     id="path4206"
     inkscape:connector-curvature="0" />
  <path
     d="m 677.54271,288.11552 q 3.81285,0 6.53629,2.72346 2.72344,2.72345 2.72344,6.53629 v 62.09475 q 0,3.81284 -2.72344,6.53628 -2.72344,2.72347 -6.53629,2.72347 h -62.09476 q -3.81285,0 -6.53629,-2.72347 -2.72347,-2.72344 -2.72347,-6.53628 0,-3.81285 2.72347,-6.53629 2.72344,-2.72347 6.53629,-2.72347 h 49.45792 q 1.19833,0 1.19833,-1.1983 v -41.17863 q 0,-1.19831 -1.19833,-1.19831 h -49.45792 q -3.81285,0 -6.53629,-2.72346 -2.72347,-2.72345 -2.72347,-6.53629 0,-3.81284 2.72347,-6.53629 2.72344,-2.72346 6.53629,-2.72346 z"
     style="font-style:normal;font-variant:normal;font-weight:900;font-stretch:normal;font-size:53.74999237px;line-height:129.99999523%;font-family:'Rounded-X M+ 1c';-inkscape-font-specification:'Rounded-X M+ 1c, Heavy';text-align:center;letter-spacing:0px;word-spacing:0px;writing-mode:lr-tb;text-anchor:middle;fill:#003586;fill-opacity:1;stroke:none;stroke-width:2.10817385px;stroke-linecap:butt;stroke-linejoin:miter;stroke-opacity:1"
     id="path4208"
     inkscape:connector-curvature="0" />
  <path
     d="m 728.85259,279.40047 q 3.81284,0.65364 5.9916,3.92178 2.2877,3.1592 1.4162,6.97204 -1.96089,9.47762 -5.44691,18.19268 -0.43575,0.98045 -0.43575,2.28771 v 58.49978 q 0,3.81284 -2.72345,6.53629 -2.72346,2.72346 -6.53629,2.72346 h -0.54469 q -3.81284,0 -6.53631,-2.72346 -2.72344,-2.72345 -2.72344,-6.53629 V 338.8807 q 0,-0.21788 -0.21788,-0.3268 -0.10878,-0.10879 -0.32681,0 -1.30726,1.85194 -3.48603,1.30725 -2.06983,-0.65364 -2.39664,-2.83239 l -1.08938,-7.62567 q -1.08937,-8.38825 3.81285,-16.88542 5.9916,-10.45806 9.80442,-25.70939 0.98045,-3.81284 4.13965,-5.88267 3.26816,-2.17875 7.08098,-1.52514 z m 73.42434,73.53326 q 3.26814,2.50558 4.24859,6.42736 1.08937,3.81282 -0.54469,7.40778 l -0.32681,0.65364 q -1.52514,3.15921 -5.01115,3.92178 -3.37709,0.76256 -5.88267,-1.63407 -7.08098,-6.53631 -13.0726,-14.27091 -0.10878,-0.21788 -0.43574,-0.10878 -0.21788,0.10878 -0.21788,0.43574 v 13.50834 q 0,3.81284 -2.72346,6.53628 -2.72345,2.72347 -6.53629,2.72347 h -1.63407 q -3.81282,0 -6.53629,-2.72347 -2.72344,-2.72344 -2.72344,-6.53628 v -13.50834 q 0,-0.32681 -0.32683,-0.32681 -0.32681,-0.10878 -0.43574,0.10878 -6.31843,8.06143 -12.96364,14.27091 -2.61452,2.39663 -6.10055,1.63406 -3.48602,-0.65361 -5.12011,-3.92177 l -0.76256,-1.41619 q -1.743,-3.48603 -0.76255,-7.29885 0.98043,-3.9218 4.13965,-6.20948 7.18991,-5.33798 11.54744,-9.69549 0.21788,-0.21788 0.10878,-0.54471 -0.10878,-0.32681 -0.43576,-0.32681 h -7.18993 q -3.26813,0 -5.55584,-2.28771 -2.2877,-2.39663 -2.2877,-5.66477 0,-3.26815 2.2877,-5.55586 2.28771,-2.2877 5.55584,-2.2877 h 17.1033 q 1.19833,0 1.19833,-1.19831 v -2.50559 q 0,-1.19832 -1.19833,-1.19832 h -0.98045 -10.34911 q -3.81284,0 -6.5363,-2.72345 -2.72345,-2.72342 -2.72345,-6.53627 v -22.87701 q 0,-3.81285 2.72345,-6.53629 2.72346,-2.72347 6.5363,-2.72347 h 45.75404 q 3.81282,0 6.53627,2.72347 2.72346,2.72344 2.72346,6.53629 v 22.87701 q 0,3.81285 -2.72346,6.53627 -2.72345,2.72345 -6.53627,2.72345 h -11.87427 q -1.19833,0 -1.19833,1.19832 v 2.50559 q 0,1.19831 1.19833,1.19831 h 16.44966 q 3.26814,0 5.55584,2.2877 2.39666,2.28771 2.39666,5.55586 0,3.26814 -2.39666,5.66477 -2.2877,2.28771 -5.55584,2.28771 h -7.73461 q -0.32681,0 -0.43574,0.43576 0,0.32681 0.21788,0.54469 5.12008,5.01115 11.54744,9.91337 z m -42.37695,-46.84339 h 22.65914 q 1.19831,0 1.19831,-1.19833 v -7.9525 q 0,-1.19831 -1.19831,-1.19831 h -22.65914 q -1.19833,0 -1.19833,1.19831 v 7.9525 q 0,1.19833 1.19833,1.19833 z"
     style="font-style:normal;font-variant:normal;font-weight:900;font-stretch:normal;font-size:53.74999237px;line-height:129.99999523%;font-family:'Rounded-X M+ 1c';-inkscape-font-specification:'Rounded-X M+ 1c, Heavy';text-align:center;letter-spacing:0px;word-spacing:0px;writing-mode:lr-tb;text-anchor:middle;fill:#003586;fill-opacity:1;stroke:none;stroke-width:2.10817385px;stroke-linecap:butt;stroke-linejoin:miter;stroke-opacity:1"
     id="path4210"
     inkscape:connector-curvature="0" />
  <path
     d="m 907.94696,283.21332 q 3.1592,0 5.33798,2.2877 2.28771,2.17876 2.28771,5.33796 0,3.15921 -2.28771,5.44691 -2.17878,2.17876 -5.33798,2.17876 h -7.40779 q -0.32683,0 -0.5447,0.32683 -0.21786,0.32681 0,0.54469 5.88266,7.1899 10.45808,13.83514 2.06982,2.94133 0.98045,6.31839 -1.0894,3.26815 -4.46649,4.57541 l -0.8715,0.32681 q -0.98044,0.43576 -0.3268,1.30726 2.17875,2.50558 2.17875,5.9916 v 22.87702 q 0,5.1201 -0.21788,8.17037 -0.21788,3.05025 -0.98043,6.10053 -0.65364,3.05027 -1.96089,4.57541 -1.19833,1.63407 -3.48602,2.94133 -2.2877,1.30725 -5.55586,1.74301 -3.26813,0.43576 -7.95247,0.43576 -4.90222,0 -9.91337,-0.21788 -3.05028,-0.10899 -5.1201,-2.2877 -2.06983,-2.06983 -2.17878,-5.1201 -0.10878,-2.8324 1.9609,-4.79328 2.06982,-2.06982 4.90222,-1.96089 6.53628,0.21788 7.62566,0.21788 1.63409,0 1.85195,-0.21788 0.32683,-0.32681 0.32683,-1.96088 v -0.43576 q 0,-1.19833 -1.19833,-1.19833 h -41.17862 q -1.19833,0 -1.19833,1.19833 v 7.51674 q 0,3.81284 -2.72345,6.53629 -2.72346,2.72346 -6.5363,2.72346 h -2.17876 q -3.81284,0 -6.53629,-2.72346 -2.72346,-2.72345 -2.72346,-6.53629 v -37.58368 q 0,-3.81283 2.72346,-6.53629 2.72345,-2.72345 6.53629,-2.72345 h 60.56963 q 0.32681,0 0.43574,-0.21787 0.2179,-0.32681 0,-0.54469 -0.54469,-0.54469 -1.19831,-1.63409 -0.21788,-0.43574 -0.87152,-1.19831 -0.65362,-0.87152 -0.8715,-1.30726 -0.65362,-1.08935 -1.96087,-0.87149 -31.0474,2.50556 -61.3322,3.37706 -3.05028,0.10899 -5.33798,-1.96088 -2.28771,-2.0698 -2.50557,-5.22901 -0.21788,-3.05027 1.743,-5.22903 2.06983,-2.17877 5.1201,-2.2877 l 9.1508,-0.32681 q 1.30726,0 1.85195,-0.98045 0.32683,-0.65364 1.0894,-2.17878 0.76257,-1.52513 1.19831,-2.17875 0.21788,-0.43576 0,-0.76257 -0.21788,-0.43576 -0.65362,-0.43576 h -15.68711 q -3.15921,0 -5.44691,-2.17876 -2.17876,-2.2877 -2.17876,-5.44691 0,-3.1592 2.17876,-5.33796 2.2877,-2.2877 5.44691,-2.2877 h 31.26525 q 0.87152,0 0.87152,-0.8715 0,-2.61454 1.74301,-4.35753 1.85195,-1.85195 4.46647,-1.85195 h 8.2793 q 2.61452,0 4.35751,1.85195 1.85197,1.74299 1.85197,4.35753 0,0.8715 0.8715,0.8715 z m -20.69824,66.34332 v -0.87151 q 0,-1.19831 -1.19833,-1.19831 h -41.17862 q -1.19833,0 -1.19833,1.19831 v 0.87151 q 0,1.19831 1.19833,1.19831 h 41.17862 q 1.19833,0 1.19833,-1.19831 z m 0,-13.07257 v -0.87152 q 0,-1.19831 -1.19833,-1.19831 h -41.17862 q -1.19833,0 -1.19833,1.19831 v 0.87152 q 0,1.19831 1.19833,1.19831 h 41.17862 q 1.19833,0 1.19833,-1.19831 z m -8.06143,-34.31551 q -0.87151,-1.19833 -0.87151,-2.50558 0,-1.19833 -0.98045,-1.19833 h -17.86585 q -0.98045,0 -0.98045,1.0894 0.10899,1.74299 -0.76257,3.59494 -0.43576,0.87152 0.54469,0.87152 6.31841,-0.32683 20.58931,-1.19833 0.21788,0 0.32683,-0.21788 0.21786,-0.32681 0,-0.43574 z"
     style="font-style:normal;font-variant:normal;font-weight:900;font-stretch:normal;font-size:53.74999237px;line-height:129.99999523%;font-family:'Rounded-X M+ 1c';-inkscape-font-specification:'Rounded-X M+ 1c, Heavy';text-align:center;letter-spacing:0px;word-spacing:0px;writing-mode:lr-tb;text-anchor:middle;fill:#003586;fill-opacity:1;stroke:none;stroke-width:2.10817385px;stroke-linecap:butt;stroke-linejoin:miter;stroke-opacity:1"
     id="path4212"
     inkscape:connector-curvature="0" />
  <path
     d="m 1015.251,278.85579 q 3.8128,0 6.5363,2.72346 2.7235,2.72345 2.7235,6.53627 v 81.70363 q 0,3.81284 -2.7235,6.53629 -2.7235,2.72346 -6.5363,2.72346 h -6.4273 q -1.4162,0 -2.3967,-0.98045 -0.9804,-0.98045 -0.9804,-2.39663 0,-0.43576 -0.4358,-0.43576 h -61.22328 q -0.4357,0 -0.4357,0.43576 0,1.41618 -0.98044,2.39663 -0.98045,0.98045 -2.39666,0.98045 h -6.42734 q -3.81284,0 -6.53629,-2.72346 -2.72346,-2.72345 -2.72346,-6.53629 v -81.70363 q 0,-3.81282 2.72346,-6.53627 2.72345,-2.72346 6.53629,-2.72346 z m -9.8044,81.59468 v -66.2344 q 0,-1.19833 -1.1984,-1.19833 h -59.69809 q -1.19829,0 -1.19829,1.19833 v 66.2344 q 0,1.1983 1.19829,1.1983 h 59.69809 q 1.1984,0 1.1984,-1.1983 z m -41.50544,-50.54731 q 1.19828,0 1.19828,-1.19831 v -0.32681 q 0,-1.19833 -1.19828,-1.19833 H 952.6116 q -1.74302,0 -3.05032,-1.19832 -1.30721,-1.30726 -1.30721,-3.15921 0,-1.85195 1.30721,-3.05027 1.3073,-1.30726 3.05032,-1.30726 h 12.09213 q 0.43571,0 0.43571,-0.43574 0,-1.41621 0.98043,-2.39666 0.98043,-0.98042 2.39666,-0.98042 h 11.76536 q 1.41614,0 2.39657,0.98042 0.98043,0.98045 0.98043,2.39666 0,0.43574 0.4358,0.43574 h 12.09215 q 1.74299,0 3.05021,1.30726 1.30725,1.19832 1.30725,3.05027 0,1.85195 -1.30725,3.15921 -1.30722,1.19832 -3.05021,1.19832 h -11.32956 q -1.19839,0 -1.19839,1.19833 v 0.32681 q 0,1.19831 1.19839,1.19831 h 12.20106 q 1.85194,0 3.15926,1.41621 1.4161,1.30725 1.4161,3.1592 0,1.85195 -1.4161,3.26813 -1.30732,1.41619 -3.15926,1.41619 h -45.31826 q -1.85201,0 -3.26816,-1.41619 -1.30729,-1.41618 -1.30729,-3.26813 0,-1.85195 1.30729,-3.1592 1.41615,-1.41621 3.26816,-1.41621 z m 36.92994,41.06967 q 2.0699,1.0894 2.3967,3.59497 0.4358,2.39663 -1.0894,4.13965 -1.5251,1.96089 -4.03071,2.2877 -2.50558,0.32681 -4.57537,-1.19832 -3.8128,-2.72345 -9.80442,-6.53629 -0.21794,-0.10899 -0.43578,0.10878 -0.21786,0.10878 -0.21786,0.21788 0,2.17876 -1.63409,3.81284 -1.52515,1.52514 -3.70387,1.52514 h -7.40783 q -1.96087,0 -3.3771,-1.30726 -1.3072,-1.41621 -1.3072,-3.37708 0,-0.54471 -0.4358,-0.32683 -4.2486,2.2877 -10.02226,4.68434 -2.72353,1.19833 -5.5559,0.21788 -2.72344,-1.08938 -4.13967,-3.70389 -1.19829,-2.28771 -0.21786,-4.57542 0.98043,-2.39663 3.48603,-3.26813 7.51676,-2.39666 14.81557,-5.77372 0.21795,-0.10878 0.109,-0.32683 -0.109,-0.21786 -0.32687,-0.21786 h -4.79323 q -3.81289,0 -6.53633,-2.72346 -2.72343,-2.72345 -2.72343,-6.53629 v -1.08938 q 0,-3.81284 2.72343,-6.53629 2.72344,-2.72346 6.53633,-2.72346 h 31.59204 q 3.81288,0 6.53633,2.72346 2.72342,2.72345 2.72342,6.53629 v 5.9916 q 0,0.98045 0.76263,1.52514 2.3966,1.63406 2.8323,4.57539 0.5447,2.83239 -1.1983,5.1201 -0.2179,0.32681 -0.7625,0.98045 -0.5448,0.54469 -0.8715,0.8715 -0.54477,0.54469 0.2178,1.08937 0.1088,0.109 0.2179,0.109 0.1087,0 0.2178,0.10878 z m -17.75684,-18.84629 v -1.9609 q 0,-1.19831 -1.19837,-1.19831 h -15.03345 q -1.19827,0 -1.19827,1.19831 v 1.9609 q 0,1.19833 1.19827,1.19833 h 15.03345 q 1.19837,0 1.19837,-1.19833 z m 9.91333,9.80442 q 0.21794,-0.32679 0,-0.65362 -0.10878,-0.32681 -0.54462,-0.32681 h -6.10055 q -0.8715,0 -1.41623,0.43576 -0.65364,0.65362 0,0.8715 0.76259,0.32681 2.17873,1.08938 1.41623,0.76256 2.06987,1.08937 1.19829,0.65364 1.96088,-0.32681 0.32685,-0.43573 0.87149,-1.08937 0.65364,-0.65364 0.98043,-1.0894 z"
     style="font-style:normal;font-variant:normal;font-weight:900;font-stretch:normal;font-size:53.74999237px;line-height:129.99999523%;font-family:'Rounded-X M+ 1c';-inkscape-font-specification:'Rounded-X M+ 1c, Heavy';text-align:center;letter-spacing:0px;word-spacing:0px;writing-mode:lr-tb;text-anchor:middle;fill:#003586;fill-opacity:1;stroke:none;stroke-width:2.10817385px;stroke-linecap:butt;stroke-linejoin:miter;stroke-opacity:1"
     id="path4214"
     inkscape:connector-curvature="0" />
  <path
     d="m 470.56021,424.83292 q 3.81282,0 6.53629,2.72344 2.72344,2.72347 2.72344,6.53629 v 74.62265 q 0,3.81285 -2.72344,6.53629 -2.72347,2.72347 -6.53629,2.72347 h -5.55586 q -1.96087,0 -3.37708,-1.41621 -1.41619,-1.41619 -1.41619,-3.37709 0,-0.65361 -0.65364,-0.65361 h -9.58656 q -0.65362,0 -0.65362,0.65361 0,1.9609 -1.41621,3.37709 -1.41618,1.41621 -3.37706,1.41621 h -5.01117 q -3.81282,0 -6.53629,-2.72347 -2.72344,-2.72344 -2.72344,-6.53629 v -74.62265 q 0,-3.81282 2.72344,-6.53629 2.72347,-2.72344 6.53629,-2.72344 z m -10.34913,70.15617 v -52.07245 q 0,-1.1983 -1.19833,-1.1983 h -8.49718 q -1.19831,0 -1.19831,1.1983 v 52.07245 q 0,1.19833 1.19831,1.19833 h 8.49718 q 1.19833,0 1.19833,-1.19833 z m -42.37695,-27.77922 q 1.96087,3.1592 5.22903,8.82399 3.26815,5.66477 4.24858,7.18991 1.74302,2.94132 1.0894,6.42736 -0.54471,3.37708 -3.26816,5.44691 -2.39663,1.85194 -5.33798,1.08938 -2.83239,-0.8715 -3.92177,-3.59497 -0.43574,-1.08938 -1.30726,-3.1592 -0.87149,-2.17876 -1.30725,-3.26816 -0.109,-0.10899 -0.32681,-0.10899 -0.109,0 -0.109,0.21788 v 24.62004 q 0,3.81284 -2.72346,6.53628 -2.72345,2.72345 -6.53627,2.72345 -3.81284,0 -6.53629,-2.72345 -2.72346,-2.72344 -2.72346,-6.53628 v -15.25136 q 0,-0.21788 -0.21786,-0.21788 -0.10878,0 -0.21788,0.10879 -1.52514,4.13965 -3.05027,7.4078 -1.41619,2.83238 -4.57542,2.83238 -3.1592,-0.10878 -4.79327,-2.94133 l -0.43576,-0.76257 q -2.06982,-3.70389 -1.85194,-7.84354 0.32681,-4.13965 2.61451,-7.73462 6.31843,-9.47761 9.58656,-19.1731 0.109,-0.43576 -0.21788,-0.76257 -0.21788,-0.32683 -0.65361,-0.32683 h -3.26816 q -3.37708,0 -5.77372,-2.39664 -2.39665,-2.39663 -2.39665,-5.77372 0,-3.37708 2.39665,-5.77371 2.39664,-2.39666 5.77372,-2.39666 h 5.88267 q 1.19831,0 1.19831,-1.19831 v -8.17037 q 0,-1.08938 -1.19831,-1.08938 l -4.2486,0.32681 q -3.15921,0.21788 -5.66479,-1.96088 -2.50557,-2.17878 -2.8324,-5.33798 -0.32681,-3.05027 1.63409,-5.44689 2.06983,-2.39665 5.22903,-2.61453 13.18153,-0.98043 27.23453,-3.81283 3.26816,-0.65362 6.20948,0.98045 3.05027,1.63405 4.13965,4.68434 1.08938,3.05026 -0.32681,5.88265 -1.4162,2.72345 -4.57541,3.48601 -3.48601,0.87152 -5.88267,1.19833 -1.19831,0.21788 -1.19831,1.41619 v 10.45808 q 0,1.19831 1.19831,1.19831 h 4.79329 q 3.37709,0 5.77372,2.39666 2.39664,2.39663 2.39664,5.77371 0,3.37709 -2.39664,5.77372 -2.39663,2.39664 -5.77372,2.39664 h -0.43576 q -0.43576,0 -0.65361,0.32683 -0.109,0.32681 0.10878,0.65362 z"
     style="font-style:normal;font-variant:normal;font-weight:900;font-stretch:normal;font-size:53.74999237px;line-height:129.99999523%;font-family:'Rounded-X M+ 1c';-inkscape-font-specification:'Rounded-X M+ 1c, Heavy';text-align:center;letter-spacing:0px;word-spacing:0px;writing-mode:lr-tb;text-anchor:middle;fill:#003586;fill-opacity:1;stroke:none;stroke-width:2.10817385px;stroke-linecap:butt;stroke-linejoin:miter;stroke-opacity:1"
     id="path4216"
     inkscape:connector-curvature="0" />
  <path
     d="m 522.30585,498.03936 q -6.53629,9.04188 -18.19268,16.77649 -3.37708,2.17876 -7.18993,1.30726 -3.81284,-0.76257 -6.10055,-4.03072 l -0.21785,-0.21788 q -2.06983,-2.94133 -1.19833,-6.42734 0.8715,-3.48603 4.03072,-5.33798 6.64522,-3.92177 10.67594,-7.40779 0.10899,-0.10878 0.10899,-0.32683 0.10879,-0.21788 0,-0.32681 -0.10899,-0.21788 -0.32681,-0.21788 h -6.86311 q -3.05026,0 -5.22903,-2.17875 -2.17876,-2.17878 -2.17876,-5.22903 0,-3.05028 2.17876,-5.1201 2.17877,-2.17878 5.22903,-2.17878 h 21.78764 q 3.05027,0 5.1201,2.17878 2.17875,2.06982 2.17875,5.1201 0,8.38823 -3.81282,13.61726 z m 61.65898,1.9609 q 3.15921,1.85195 3.92178,5.44691 0.87152,3.48601 -1.19831,6.42734 l -0.2179,0.21788 q -2.28769,3.26815 -6.20946,4.13965 -3.81284,0.87152 -7.08098,-1.30726 -12.09214,-7.95247 -21.78764,-19.28205 -0.10899,-0.21788 -0.43576,-0.109 -0.32681,0.109 -0.32681,0.43574 v 2.39666 q 0,5.55584 -0.21787,8.71504 -0.109,3.15921 -0.98045,5.88267 -0.87148,2.72345 -1.96088,3.92178 -1.08938,1.19832 -3.70389,2.06982 -2.50557,0.8715 -5.33796,0.98043 -2.8324,0.21788 -7.9525,0.21788 -0.54469,0 -7.08097,-0.21788 -3.48602,-0.21786 -5.9916,-2.61452 -2.50559,-2.39663 -2.72347,-5.88264 -0.21786,-3.26816 2.06983,-5.55584 2.39665,-2.39666 5.66479,-2.17878 2.06982,0.10899 4.2486,0.10899 2.83239,0 3.26813,-0.54469 0.54469,-0.54469 0.54469,-3.26813 v -26.03622 q 0,-1.19833 -1.1983,-1.19833 h -11.87427 -10.89382 q -3.81285,0 -6.53629,-2.72345 -2.72347,-2.72346 -2.72347,-6.5363 v -28.86862 q 0,-3.81282 2.72347,-6.53629 2.72344,-2.72344 6.53629,-2.72344 h 18.73736 q 0.87152,0 1.08938,-0.87152 0.65364,-2.83238 2.94135,-4.68432 2.39663,-1.85195 5.33795,-1.743 l 7.9525,0.43574 q 2.28769,0.21788 3.70389,2.06982 1.41619,1.74302 0.98045,4.03071 -0.21788,0.76257 0.65362,0.76257 h 22.877 q 3.81284,0 6.53629,2.72344 2.72346,2.72347 2.72346,6.53629 v 28.86862 q 0,3.81284 -2.72346,6.5363 -2.72345,2.72345 -6.53629,2.72345 h -15.90497 q -0.43576,0 -0.54469,0.32681 -0.10899,0.32683 0.10899,0.65364 3.26815,4.57539 6.8631,8.27928 0.76257,0.87152 1.74301,0.10878 3.59497,-2.72344 8.17038,-6.75416 2.8324,-2.50557 6.64522,-2.39664 3.81284,0 6.53629,2.50556 2.72346,2.50559 2.72346,6.10055 0.10878,3.59497 -2.61451,5.9916 -5.01115,4.35754 -7.62567,6.31841 -1.0894,0.87152 -0.10899,1.41621 2.94134,2.06983 7.18992,4.68434 z m -66.5612,-59.26237 v 2.50558 q 0,1.19831 1.19832,1.19831 h 40.08923 q 1.19831,0 1.19831,-1.19831 v -2.50558 q 0,-1.19833 -1.19831,-1.19833 h -40.08923 q -1.19832,0 -1.19832,1.19833 z m 1.19832,20.04462 h 40.08923 q 1.19831,0 1.19831,-1.19833 v -2.50556 q 0,-1.19833 -1.19831,-1.19833 h -40.08923 q -1.19832,0 -1.19832,1.19833 v 2.50556 q 0,1.19833 1.19832,1.19833 z"
     style="font-style:normal;font-variant:normal;font-weight:900;font-stretch:normal;font-size:53.74999237px;line-height:129.99999523%;font-family:'Rounded-X M+ 1c';-inkscape-font-specification:'Rounded-X M+ 1c, Heavy';text-align:center;letter-spacing:0px;word-spacing:0px;writing-mode:lr-tb;text-anchor:middle;fill:#003586;fill-opacity:1;stroke:none;stroke-width:2.10817385px;stroke-linecap:butt;stroke-linejoin:miter;stroke-opacity:1"
     id="path4218"
     inkscape:connector-curvature="0" />
  <path
     d="m 686.25778,435.72674 q 3.81284,0 6.53626,2.72344 2.72347,2.72347 2.72347,6.53629 v 42.48588 q 0,3.81284 -2.72347,6.53631 -2.72342,2.72344 -6.53626,2.72344 h -5.01115 q -1.9609,0 -3.37709,-1.41618 -1.41618,-1.41621 -1.41618,-3.37709 0,-0.65364 -0.65364,-0.65364 h -16.66754 q -1.19831,0 -1.19831,1.19833 v 19.49994 q 0,3.81284 -2.72347,6.53629 -2.72344,2.72346 -6.53628,2.72346 h -2.17878 q -3.81282,0 -6.53629,-2.72346 -2.72344,-2.72345 -2.72344,-6.53629 v -19.49994 q 0,-1.19833 -1.19833,-1.19833 h -16.66754 q -0.65362,0 -0.65362,0.65364 0,1.96088 -1.41621,3.37709 -1.41618,1.41618 -3.37708,1.41618 h -5.01115 q -3.81285,0 -6.53629,-2.72344 -2.72347,-2.72347 -2.72347,-6.53631 v -42.48588 q 0,-3.81282 2.72347,-6.53629 2.72344,-2.72344 6.53629,-2.72344 h 27.1256 q 1.19833,0 1.19833,-1.19833 v -6.42736 q 0,-3.81284 2.72344,-6.53627 2.72347,-2.72344 6.53629,-2.72344 h 2.17878 q 3.81284,0 6.53628,2.72344 2.72347,2.72343 2.72347,6.53627 v 6.42736 q 0,1.19833 1.19831,1.19833 z m -66.34335,39.21772 h 16.12285 q 1.19833,0 1.19833,-1.1983 v -19.9357 q 0,-1.19832 -1.19833,-1.19832 h -16.12285 q -1.19831,0 -1.19831,1.19832 v 19.9357 q 0,1.1983 1.19831,1.1983 z m 56.53893,-1.1983 v -19.9357 q 0,-1.19832 -1.19833,-1.19832 h -16.12285 q -1.19831,0 -1.19831,1.19832 v 19.9357 q 0,1.1983 1.19831,1.1983 h 16.12285 q 1.19833,0 1.19833,-1.1983 z"
     style="font-style:normal;font-variant:normal;font-weight:900;font-stretch:normal;font-size:53.74999237px;line-height:129.99999523%;font-family:'Rounded-X M+ 1c';-inkscape-font-specification:'Rounded-X M+ 1c, Heavy';text-align:center;letter-spacing:0px;word-spacing:0px;writing-mode:lr-tb;text-anchor:middle;fill:#003586;fill-opacity:1;stroke:none;stroke-width:2.10817385px;stroke-linecap:butt;stroke-linejoin:miter;stroke-opacity:1"
     id="path4220"
     inkscape:connector-curvature="0" />
  <path
     d="m 800.96966,467.3188 q 2.83239,0 4.79327,2.06983 1.96089,1.96089 1.96089,4.68434 v 1.4162 q 0,3.37709 -2.39665,5.7737 -2.39664,2.39666 -5.77372,2.39666 h -25.38259 q -0.43575,0 -0.54468,0.32681 -0.10879,0.32683 0.10899,0.65362 7.40778,9.47763 25.27365,16.55861 3.48602,1.4162 4.90222,4.79329 1.41619,3.37708 -0.21788,6.75417 l -0.10899,0.10899 q -1.74302,3.59496 -5.44691,5.1201 -3.59496,1.52514 -7.29886,0 -20.58931,-8.93294 -32.46358,-25.49155 -0.21788,-0.43574 -0.76257,-0.43574 -0.54468,0 -0.76256,0.43574 -12.63684,16.77649 -34.64232,25.70943 -3.59496,1.41619 -7.29886,-0.21788 -3.70391,-1.52514 -5.44691,-5.1201 l -0.10899,-0.10899 q -1.63409,-3.37709 -0.21788,-6.75417 1.41619,-3.37709 4.90222,-4.79329 17.7569,-7.08098 25.27364,-16.55861 0.21785,-0.32679 0,-0.65362 -0.10879,-0.32681 -0.54469,-0.32681 h -25.27364 q -3.37708,0 -5.77374,-2.39666 -2.39663,-2.39661 -2.39663,-5.7737 v -1.4162 q 0,-2.72345 1.96089,-4.68434 1.96088,-2.06983 4.79328,-2.06983 0.87149,0 0.87149,-0.8715 v -25.81836 q 0,-3.81283 2.72347,-6.53629 2.72344,-2.72345 6.53629,-2.72345 h 22.76804 q 1.19833,0 1.19833,-1.19832 v -2.06983 q 0,-3.81284 2.72347,-6.53627 2.72344,-2.72344 6.53629,-2.72344 h 2.17875 q 3.81284,0 6.53629,2.72344 2.72346,2.72343 2.72346,6.53627 v 2.06983 q 0,1.19832 1.19831,1.19832 h 22.76809 q 3.81284,0 6.53629,2.72345 2.72346,2.72346 2.72346,6.53629 v 25.81836 q 0,0.8715 0.8715,0.8715 z m -54.79591,-3.81284 v -14.05303 q 0,-1.19831 -1.19831,-1.19831 h -12.31003 q -1.19833,0 -1.19833,1.19831 v 16.66754 q 0,1.19833 1.19833,1.19833 h 12.09213 q 1.30726,0 1.30726,-1.19833 0,-0.43574 0,-1.30726 0.10899,-0.8715 0.10899,-1.30725 z m 35.4049,2.61451 v -16.66754 q 0,-1.19831 -1.19831,-1.19831 h -12.31002 q -1.19831,0 -1.19831,1.19831 v 14.05303 q 0,0.43575 0,1.30725 0.10878,0.87152 0.10878,1.30726 0,1.19833 1.30726,1.19833 h 12.09215 q 1.1983,0 1.1983,-1.19833 z"
     style="font-style:normal;font-variant:normal;font-weight:900;font-stretch:normal;font-size:53.74999237px;line-height:129.99999523%;font-family:'Rounded-X M+ 1c';-inkscape-font-specification:'Rounded-X M+ 1c, Heavy';text-align:center;letter-spacing:0px;word-spacing:0px;writing-mode:lr-tb;text-anchor:middle;fill:#003586;fill-opacity:1;stroke:none;stroke-width:2.10817385px;stroke-linecap:butt;stroke-linejoin:miter;stroke-opacity:1"
     id="path4222"
     inkscape:connector-curvature="0" />
  <path
     d="m 906.31287,420.47541 q 3.81283,0 6.53629,2.72342 2.72345,2.72346 2.72345,6.53629 v 81.70365 q 0,3.81282 -2.72345,6.53629 -2.72346,2.72344 -6.53629,2.72344 h -6.42736 q -1.41618,0 -2.39663,-0.98043 -0.98045,-0.98044 -0.98045,-2.39665 0,-0.43574 -0.43574,-0.43574 h -61.22327 q -0.43576,0 -0.43576,0.43574 0,1.41621 -0.9804,2.39665 -0.98045,0.98043 -2.39666,0.98043 h -6.42734 q -3.81284,0 -6.53631,-2.72344 -2.72344,-2.72347 -2.72344,-6.53629 v -81.70365 q 0,-3.81283 2.72344,-6.53629 2.72347,-2.72342 6.53631,-2.72342 z m -9.80444,81.59468 v -66.23442 q 0,-1.19833 -1.19831,-1.19833 h -59.69813 q -1.19833,0 -1.19833,1.19833 v 66.23442 q 0,1.1983 1.19833,1.1983 h 59.69813 q 1.19831,0 1.19831,-1.1983 z M 855.003,451.52276 q 1.1983,0 1.1983,-1.19831 v -0.32683 q 0,-1.19831 -1.1983,-1.19831 h -11.32958 q -1.74302,0 -3.05028,-1.19833 -1.30725,-1.30725 -1.30725,-3.1592 0,-1.85195 1.30725,-3.05027 1.30726,-1.30726 3.05028,-1.30726 h 12.09215 q 0.43573,0 0.43573,-0.43574 0,-1.41621 0.98045,-2.39666 0.98045,-0.98042 2.39664,-0.98042 h 11.76532 q 1.4162,0 2.39665,0.98042 0.98043,0.98045 0.98043,2.39666 0,0.43574 0.43576,0.43574 h 12.09215 q 1.74299,0 3.05025,1.30726 1.30726,1.19832 1.30726,3.05027 0,1.85195 -1.30726,3.1592 -1.30726,1.19833 -3.05025,1.19833 h -11.32958 q -1.19833,0 -1.19833,1.19831 v 0.32683 q 0,1.19831 1.19833,1.19831 h 12.20108 q 1.85194,0 3.1592,1.41621 1.41621,1.30725 1.41621,3.1592 0,1.85195 -1.41621,3.26813 -1.30726,1.41621 -3.1592,1.41621 h -45.31828 q -1.85197,0 -3.26816,-1.41621 -1.30725,-1.41618 -1.30725,-3.26813 0,-1.85195 1.30725,-3.1592 1.41619,-1.41621 3.26816,-1.41621 z m 36.93004,41.06969 q 2.06983,1.08938 2.39664,3.59497 0.43575,2.39663 -1.08938,4.13965 -1.52514,1.96087 -4.03073,2.2877 -2.50556,0.32681 -4.57539,-1.19832 -3.81284,-2.72345 -9.80444,-6.53629 -0.21788,-0.10878 -0.43576,0.10899 -0.21788,0.10878 -0.21788,0.21788 0,2.17876 -1.63407,3.81284 -1.52513,1.52512 -3.70389,1.52512 h -7.40781 q -1.96087,0 -3.37708,-1.30726 -1.30726,-1.41618 -1.30726,-3.37708 0,-0.54469 -0.43574,-0.32679 -4.2486,2.28769 -10.02232,4.68432 -2.72344,1.19833 -5.55584,0.21788 -2.72346,-1.08938 -4.13965,-3.70389 -1.19833,-2.28771 -0.21788,-4.57541 0.98045,-2.39664 3.48601,-3.26814 7.51674,-2.39663 14.8156,-5.77372 0.21788,-0.10878 0.10878,-0.32683 -0.10878,-0.21786 -0.32683,-0.21786 h -4.79327 q -3.81282,0 -6.53629,-2.72346 -2.72344,-2.72345 -2.72344,-6.53629 v -1.08938 q 0,-3.81284 2.72344,-6.53631 2.72347,-2.72344 6.53629,-2.72344 h 31.59208 q 3.81282,0 6.53629,2.72344 2.72344,2.72347 2.72344,6.53631 v 5.9916 q 0,0.98045 0.76257,1.52514 2.39666,1.63407 2.8324,4.57539 0.54469,2.8324 -1.19831,5.1201 -0.21788,0.32681 -0.76257,0.98043 -0.54469,0.54471 -0.87152,0.87152 -0.54469,0.54469 0.21788,1.08938 0.10878,0.10878 0.21788,0.10878 0.10878,0 0.21788,0.10899 z M 874.1761,473.74616 v -1.9609 q 0,-1.19831 -1.19831,-1.19831 h -15.03347 q -1.19833,0 -1.19833,1.19831 v 1.9609 q 0,1.1983 1.19833,1.1983 h 15.03347 q 1.19831,0 1.19831,-1.1983 z m 9.91337,9.80444 q 0.21788,-0.32683 0,-0.65364 -0.10878,-0.32683 -0.54469,-0.32683 h -6.10052 q -0.87152,0 -1.41621,0.43576 -0.65362,0.65364 0,0.87152 0.76257,0.32681 2.17877,1.08938 1.41619,0.76257 2.06983,1.08937 1.19831,0.65362 1.96088,-0.3268 0.32683,-0.43576 0.87152,-1.0894 0.65361,-0.65362 0.98042,-1.08936 z"
     style="font-style:normal;font-variant:normal;font-weight:900;font-stretch:normal;font-size:53.74999237px;line-height:129.99999523%;font-family:'Rounded-X M+ 1c';-inkscape-font-specification:'Rounded-X M+ 1c, Heavy';text-align:center;letter-spacing:0px;word-spacing:0px;writing-mode:lr-tb;text-anchor:middle;fill:#003586;fill-opacity:1;stroke:none;stroke-width:2.10817385px;stroke-linecap:butt;stroke-linejoin:miter;stroke-opacity:1"
     id="path4224"
     inkscape:connector-curvature="0" />
  <path
     d="m 259.43226,617.53964 q 0.97419,0.82807 2.48419,0.82807 1.51,0 2.43547,-0.82807 0.97419,-0.82805 0.97419,-2.09451 0,-1.26644 -0.97419,-2.09451 -0.92547,-0.82805 -2.43547,-0.82805 -1.51,0 -2.48419,0.82805 -0.92549,0.82807 -0.92549,2.09451 0,1.26646 0.92549,2.09451 z m 22.94221,-20.60413 q 1.51,0 2.5816,1.07161 1.07161,1.0716 1.07161,2.5816 0,1.51 -1.07161,2.58159 -1.0716,1.07165 -2.5816,1.07165 h -8.47548 q -0.53579,0 -0.53579,0.53579 v 7.69612 q 0,0.43839 0.24354,1.02289 1.46128,3.02 1.46128,6.33225 0,6.91675 -3.79933,10.61869 -3.75065,3.70193 -12.51836,5.01707 -1.65614,0.24356 -3.02,-0.77935 -1.31516,-1.02291 -1.60742,-2.67902 -0.29226,-1.5587 0.68193,-2.82517 0.97421,-1.26644 2.53291,-1.46126 4.5787,-0.53581 6.18612,-1.16904 1.6074,-0.63321 2.19193,-1.94838 0.0487,-0.0487 0.0487,-0.14609 0,-0.0974 0.0487,-0.1461 v -0.0974 h -0.0974 q -2.48419,0.97419 -5.01709,0.97419 -4.77354,0 -7.74482,-2.67903 -2.97129,-2.679 -2.97129,-7.06288 0,-4.43257 3.01998,-7.06289 3.02001,-2.67903 8.18324,-2.67903 1.50998,0 3.26352,0.48712 h 0.0974 q 0.0487,0 0.0487,-0.0487 v -1.36389 q 0,-0.53579 -0.53581,-0.53579 h -17.2432 q -1.50998,0 -2.58158,-1.07163 -1.07163,-1.0716 -1.07163,-2.58158 0,-1.51 1.07163,-2.58161 1.0716,-1.0716 2.58158,-1.0716 h 17.2432 q 0.53581,0 0.53581,-0.53582 0,-1.60742 1.12031,-2.72774 1.12032,-1.12033 2.72774,-1.12033 h 1.07161 q 1.60742,0 2.72774,1.12033 1.12033,1.12032 1.12033,2.72774 0,0.53582 0.53579,0.53582 h 8.47547 z"
     style="font-style:normal;font-variant:normal;font-weight:900;font-stretch:normal;font-size:24.03325844px;line-height:125%;font-family:'Rounded-X M+ 1c';-inkscape-font-specification:'Rounded-X M+ 1c, Heavy';text-align:start;letter-spacing:0px;word-spacing:0px;writing-mode:lr-tb;text-anchor:start;fill:#5d9a1f;fill-opacity:1;stroke:none;stroke-width:2.10817385px;stroke-linecap:butt;stroke-linejoin:miter;stroke-opacity:1"
     id="path4167"
     inkscape:connector-curvature="0" />
  <path
     d="m 324.41082,596.4484 q 1.65614,0 2.82517,1.16904 1.16902,1.16903 1.16902,2.82514 0,1.70486 -1.16902,2.87387 -1.16903,1.16904 -2.82517,1.16904 h -21.72446 q -1.65614,0 -2.82516,-1.16904 -1.16903,-1.16901 -1.16903,-2.87387 0,-1.65611 1.16903,-2.82514 1.16902,-1.16904 2.82516,-1.16904 z m 6.0887,32.4893 q 0.38968,1.70481 -0.53581,3.16611 -0.92547,1.46131 -2.63031,1.80226 -7.98837,1.51 -14.02835,1.51 -8.96257,0 -13.97964,-3.0687 -5.0171,-3.06872 -5.0171,-8.13451 0,-2.38677 1.12033,-4.7248 1.16902,-2.33809 3.99419,-5.45549 1.21772,-1.31516 3.01998,-1.4613 1.80225,-0.1948 3.26353,0.87679 l 0.0974,0.0974 q 1.31514,0.92547 1.41256,2.58159 0.1461,1.60742 -0.97419,2.82516 -2.43548,2.72775 -2.43548,4.28645 0,1.75354 2.33807,2.82516 2.38676,1.07161 7.1603,1.07161 4.87096,0 12.32352,-1.51 1.65614,-0.34098 3.0687,0.58451 1.41259,0.87677 1.75356,2.53289 l 0.0487,0.19479 z"
     style="font-style:normal;font-variant:normal;font-weight:900;font-stretch:normal;font-size:24.03325844px;line-height:125%;font-family:'Rounded-X M+ 1c';-inkscape-font-specification:'Rounded-X M+ 1c, Heavy';text-align:start;letter-spacing:0px;word-spacing:0px;writing-mode:lr-tb;text-anchor:start;fill:#5d9a1f;fill-opacity:1;stroke:none;stroke-width:2.10817385px;stroke-linecap:butt;stroke-linejoin:miter;stroke-opacity:1"
     id="path4169"
     inkscape:connector-curvature="0" />
  <path
     d="m 372.73072,599.37098 q 5.40677,0 8.76772,3.36095 3.40968,3.31228 3.40968,8.81645 0,6.28352 -3.70193,9.83933 -3.70194,3.5558 -9.93675,3.5558 -1.31517,0 -2.0458,-0.0487 -1.70484,-0.0974 -2.77646,-1.41258 -1.02289,-1.36389 -0.87677,-3.11742 0.1461,-1.65612 1.4613,-2.72773 1.31516,-1.07162 3.01998,-1.07162 h 0.24356 q 2.33805,0 3.84805,-1.21773 1.51,-1.26646 1.51,-3.31226 0,-4.33514 -4.23775,-4.38388 -0.24353,0 -0.34095,0.1948 -0.0974,0.19479 -0.0487,0.38967 0.0487,0.0974 0.0974,0.29226 0.0487,0.14609 0.0487,0.24355 0.43839,1.65612 -0.43838,3.16612 -0.82807,1.51 -2.48419,1.9971 l -0.29225,0.0974 q -1.65614,0.48708 -3.16614,-0.34097 -1.46128,-0.82807 -1.99708,-2.48419 0,-0.1461 -0.0974,-0.34098 -0.0974,-0.19479 -0.1461,-0.34095 -0.19479,-0.53581 -0.63323,-0.38968 -0.48709,0.1948 -1.51,0.53582 -0.97419,0.34095 -1.51,0.53579 -0.58451,0.1948 -0.38968,0.73063 3.02,10.32645 5.16322,18.46094 0.43839,1.65614 -0.4871,3.1174 -0.87677,1.51 -2.53288,1.89968 l -0.92549,0.24355 q -1.65612,0.38968 -3.16612,-0.48711 -1.46128,-0.87675 -1.89968,-2.58161 -2.63032,-9.93673 -4.77354,-17.29189 -0.19479,-0.5358 -0.63323,-0.38966 -0.14609,0.0487 -1.50998,0.58452 -1.36388,0.53579 -2.09451,0.82804 -1.60742,0.63324 -3.21484,0 -1.5587,-0.68191 -2.19193,-2.28933 l -0.0487,-0.0974 q -0.68193,-1.60742 0,-3.16612 0.68193,-1.60742 2.28935,-2.24065 0.87677,-0.34096 2.53291,-0.97419 1.65612,-0.68193 1.80223,-0.73065 0.53582,-0.1948 0.34098,-0.73063 -0.24356,-0.77935 -0.73065,-2.24065 -0.43837,-1.46128 -0.68193,-2.24063 -0.53579,-1.60742 0.24356,-3.11742 0.77935,-1.5587 2.43546,-2.04582 l 0.87677,-0.24351 q 1.65614,-0.4871 3.16614,0.34095 1.50998,0.77935 2.0458,2.43547 0.19479,0.68193 0.58451,1.9484 0.43839,1.26644 0.63323,1.94837 0.19479,0.53581 0.73063,0.34098 1.75356,-0.63324 2.9713,-1.02291 0.53579,-0.1948 0.38968,-0.63321 -0.0974,-0.29228 -0.34098,-1.02291 -0.19479,-0.73065 -0.34095,-1.12035 -0.53582,-1.60737 0.24353,-3.1174 0.82807,-1.51 2.48419,-1.94837 l 0.77935,-0.1948 q 1.65614,-0.48709 3.16612,0.34096 1.51,0.82807 1.99709,2.48419 0.0974,0.34097 0.29226,1.1203 0.24356,0.77937 0.34097,1.12035 0.1948,0.53581 0.77935,0.43837 1.9484,-0.29225 3.5071,-0.29225 z"
     style="font-style:normal;font-variant:normal;font-weight:900;font-stretch:normal;font-size:24.03325844px;line-height:125%;font-family:'Rounded-X M+ 1c';-inkscape-font-specification:'Rounded-X M+ 1c, Heavy';text-align:start;letter-spacing:0px;word-spacing:0px;writing-mode:lr-tb;text-anchor:start;fill:#5d9a1f;fill-opacity:1;stroke:none;stroke-width:2.10817385px;stroke-linecap:butt;stroke-linejoin:miter;stroke-opacity:1"
     id="path4171"
     inkscape:connector-curvature="0" />
  <path
     d="m 407.31453,601.31937 q 2.72772,0 3.99417,0 1.26646,0 2.92258,0.34096 1.70484,0.29225 2.24065,0.48711 0.58451,0.1948 1.41256,1.26643 0.82807,1.07162 0.97421,1.85097 0.1461,0.77937 0.38968,2.97128 0.24353,2.14324 0.24353,3.84807 0,1.70482 0,5.30934 0,9.69319 -2.38677,13.88222 -2.33805,4.14032 -6.86805,4.14032 -2.58161,0 -6.86805,-0.92549 -1.6074,-0.34095 -2.43547,-1.80225 -0.82805,-1.46128 -0.43839,-3.1174 0.38967,-1.60742 1.80225,-2.43549 1.46131,-0.87677 3.06873,-0.48709 2.09449,0.48709 2.92256,0.48709 1.94837,0 1.94837,-11.2032 0,-5.06579 -0.38965,-5.94258 -0.341,-0.87677 -2.53291,-0.87677 h -3.26354 q -0.53581,0 -0.63323,0.53582 -2.38677,10.76482 -6.47838,22.50382 -0.53579,1.5587 -2.04579,2.28936 -1.51,0.77934 -3.06872,0.24353 -1.55868,-0.53579 -2.28933,-1.99709 -0.68195,-1.41258 -0.1948,-2.92259 3.31226,-9.93673 5.65031,-20.16575 0.0974,-0.4871 -0.43839,-0.4871 h -1.85094 q -1.60742,0 -2.77646,-1.1203 -1.12031,-1.16903 -1.12031,-2.77645 0,-1.60744 1.12031,-2.72774 1.16904,-1.16903 2.77646,-1.16903 h 3.45836 q 0.58453,0 0.68195,-0.58453 0.63323,-3.31224 0.82805,-4.6761 0.29227,-1.70486 1.60742,-2.77646 1.36386,-1.07161 3.0687,-0.97417 1.65614,0.0974 2.67902,1.36386 1.02291,1.26642 0.77937,2.87384 -0.19479,1.41259 -0.68193,4.23775 -0.0487,0.1948 0.0974,0.38967 0.1461,0.1461 0.38965,0.1461 h 1.70486 z m 21.33478,0.97417 q 2.63033,7.79356 4.91966,16.51257 0.43839,1.60742 -0.48709,3.06868 -0.87677,1.4613 -2.53289,1.85097 l -0.38968,0.0974 q -1.65614,0.38968 -3.16614,-0.48711 -1.46126,-0.87677 -1.89965,-2.58159 -2.28935,-8.42675 -4.91966,-16.26901 -0.53583,-1.60742 0.24352,-3.0687 0.77937,-1.50998 2.38679,-1.89968 l 0.48709,-0.0974 q 1.70484,-0.4384 3.26354,0.38969 1.5587,0.82805 2.09451,2.48417 z"
     style="font-style:normal;font-variant:normal;font-weight:900;font-stretch:normal;font-size:24.03325844px;line-height:125%;font-family:'Rounded-X M+ 1c';-inkscape-font-specification:'Rounded-X M+ 1c, Heavy';text-align:start;letter-spacing:0px;word-spacing:0px;writing-mode:lr-tb;text-anchor:start;fill:#5d9a1f;fill-opacity:1;stroke:none;stroke-width:2.10817385px;stroke-linecap:butt;stroke-linejoin:miter;stroke-opacity:1"
     id="path4173"
     inkscape:connector-curvature="0" />
  <path
     d="m 447.06151,623.8232 q 0.341,0.38966 4.14033,5.16319 0.97421,1.26647 0.73065,2.82517 -0.24355,1.51 -1.51,2.38677 -1.31516,0.92549 -2.92258,0.68193 -1.5587,-0.24354 -2.58161,-1.51 -1.0229,-1.26645 -3.84807,-4.67612 -1.02286,-1.21772 -0.92547,-2.82514 0.1461,-1.60742 1.36387,-2.63031 1.26646,-1.02291 2.87388,-0.82809 1.65612,0.1461 2.679,1.4126 z"
     style="font-style:normal;font-variant:normal;font-weight:900;font-stretch:normal;font-size:24.03325844px;line-height:125%;font-family:'Rounded-X M+ 1c';-inkscape-font-specification:'Rounded-X M+ 1c, Heavy';text-align:start;letter-spacing:0px;word-spacing:0px;writing-mode:lr-tb;text-anchor:start;fill:#5d9a1f;fill-opacity:1;stroke:none;stroke-width:2.10817385px;stroke-linecap:butt;stroke-linejoin:miter;stroke-opacity:1"
     id="path4175"
     inkscape:connector-curvature="0" />
  <path
     d="m 511.553,606.67742 q 7.59868,0 11.59287,2.97129 3.99419,2.9713 3.99419,8.23191 0,14.36933 -24.20867,17.14576 -1.70482,0.19479 -3.0687,-0.87675 -1.31514,-1.02291 -1.5587,-2.72775 -0.24356,-1.65614 0.73065,-2.9713 0.97419,-1.36386 2.63033,-1.55868 16.22027,-2.28935 16.22027,-8.52419 0,-1.70481 -1.5587,-2.53288 -1.55872,-0.87679 -5.26065,-0.87679 -5.50417,0 -16.46383,2.28937 -1.70482,0.34095 -3.16612,-0.58451 -1.41256,-0.92551 -1.80226,-2.58163 -0.38967,-1.70482 0.4871,-3.16612 0.87677,-1.4613 2.53291,-1.80226 11.10579,-2.43547 18.89931,-2.43547 z m -11.05708,-12.2261 q 7.50129,0.73063 15.63576,0.97419 1.70486,0.0487 2.92258,1.26644 1.26645,1.21775 1.26645,2.92259 0,1.70483 -1.21773,2.92256 -1.16904,1.16904 -2.87386,1.12032 -7.25775,-0.19479 -16.70738,-1.16902 -1.70484,-0.1948 -2.72775,-1.51 -1.02291,-1.31514 -0.82807,-2.97128 0.1948,-1.65612 1.51,-2.67903 1.31517,-1.02291 3.02,-0.87677 z"
     style="font-style:normal;font-variant:normal;font-weight:900;font-stretch:normal;font-size:24.03325844px;line-height:125%;font-family:'Rounded-X M+ 1c';-inkscape-font-specification:'Rounded-X M+ 1c, Heavy';text-align:start;letter-spacing:0px;word-spacing:0px;writing-mode:lr-tb;text-anchor:start;fill:#5d9a1f;fill-opacity:1;stroke:none;stroke-width:2.10817385px;stroke-linecap:butt;stroke-linejoin:miter;stroke-opacity:1"
     id="path4177"
     inkscape:connector-curvature="0" />
  <path
     d="m 561.48032,609.11289 q 7.69612,0 11.15449,2.9713 3.45838,2.92259 3.45838,9.2061 0,6.52708 -5.60159,10.32643 -5.55291,3.79935 -15.83062,3.79935 -4.48128,0 -8.52417,-0.34097 -1.60741,-0.1461 -2.63032,-1.41259 -1.02291,-1.26644 -0.87677,-2.87386 0.1461,-1.60742 1.41258,-2.6303 1.26644,-1.02291 2.87386,-0.87677 4.09159,0.34095 7.74482,0.34095 5.1145,0 8.03708,-1.75353 2.92258,-1.80226 2.92258,-4.57871 0,-4.38388 -5.60163,-4.38388 -3.60449,0 -9.98543,3.16614 -3.89677,1.89968 -7.69612,1.12033 l -0.19479,-0.0487 q -1.70484,-0.3897 -2.67905,-1.80226 -0.97419,-1.41258 -0.68193,-3.06872 0.0487,-0.29226 0.48712,-2.92258 0.48709,-2.67901 0.68191,-4.04289 0.24355,-1.70484 1.60744,-2.77644 1.36386,-1.12033 3.11739,-0.97419 l 0.73066,0.0487 q 1.70481,0.14609 2.72774,1.51 1.07161,1.31514 0.87677,2.97128 -0.1461,1.07161 -0.4384,3.1174 v 0.0487 h 0.0974 q 6.91677,-4.14033 12.81062,-4.14033 z m -11.88513,-13.68738 q 8.37805,0.82805 16.75608,0.97419 1.60742,0.0487 2.72775,1.21774 1.16902,1.12033 1.16902,2.72773 0,1.60741 -1.16902,2.77644 -1.12033,1.12035 -2.72775,1.07163 -9.2548,-0.1461 -17.73027,-0.97419 -1.60744,-0.1461 -2.63032,-1.4126 -1.02289,-1.31515 -0.82807,-2.92254 0.19479,-1.60745 1.4613,-2.58163 1.31516,-1.02289 2.97128,-0.87677 z"
     style="font-style:normal;font-variant:normal;font-weight:900;font-stretch:normal;font-size:24.03325844px;line-height:125%;font-family:'Rounded-X M+ 1c';-inkscape-font-specification:'Rounded-X M+ 1c, Heavy';text-align:start;letter-spacing:0px;word-spacing:0px;writing-mode:lr-tb;text-anchor:start;fill:#5d9a1f;fill-opacity:1;stroke:none;stroke-width:2.10817385px;stroke-linecap:butt;stroke-linejoin:miter;stroke-opacity:1"
     id="path4179"
     inkscape:connector-curvature="0" />
  <path
     d="m 610.18986,609.11289 q 7.69615,0 11.1545,2.9713 3.4584,2.92259 3.4584,9.2061 0,6.52708 -5.60163,10.32643 -5.55289,3.79935 -15.8306,3.79935 -4.48126,0 -8.52419,-0.34097 -1.6074,-0.1461 -2.6303,-1.41259 -1.02291,-1.26644 -0.87677,-2.87386 0.14609,-1.60742 1.41256,-2.6303 1.26646,-1.02291 2.87388,-0.87677 4.09161,0.34095 7.74482,0.34095 5.11452,0 8.03708,-1.75353 2.92258,-1.80226 2.92258,-4.57871 0,-4.38388 -5.60161,-4.38388 -3.60451,0 -9.98545,3.16614 -3.89679,1.89968 -7.69612,1.12033 l -0.19479,-0.0487 q -1.70484,-0.3897 -2.67903,-1.80226 -0.97421,-1.41258 -0.68193,-3.06872 0.0487,-0.29226 0.48709,-2.92258 0.4871,-2.67901 0.68194,-4.04289 0.24355,-1.70484 1.60741,-2.77644 1.36387,-1.12033 3.1174,-0.97419 l 0.73065,0.0487 q 1.70484,0.14609 2.72775,1.51 1.07161,1.31514 0.87677,2.97128 -0.1461,1.07161 -0.4384,3.1174 v 0.0487 h 0.0976 q 6.91677,-4.14033 12.81062,-4.14033 z m -11.88512,-13.68738 q 8.37805,0.82805 16.7561,0.97419 1.6074,0.0487 2.72773,1.21774 1.16902,1.12033 1.16902,2.72773 0,1.60741 -1.16902,2.77644 -1.12033,1.12035 -2.72773,1.07163 -9.25482,-0.1461 -17.73029,-0.97419 -1.60742,-0.1461 -2.63033,-1.4126 -1.02288,-1.31515 -0.82806,-2.92254 0.19479,-1.60745 1.4613,-2.58163 1.31516,-1.02289 2.97128,-0.87677 z"
     style="font-style:normal;font-variant:normal;font-weight:900;font-stretch:normal;font-size:24.03325844px;line-height:125%;font-family:'Rounded-X M+ 1c';-inkscape-font-specification:'Rounded-X M+ 1c, Heavy';text-align:start;letter-spacing:0px;word-spacing:0px;writing-mode:lr-tb;text-anchor:start;fill:#5d9a1f;fill-opacity:1;stroke:none;stroke-width:2.10817385px;stroke-linecap:butt;stroke-linejoin:miter;stroke-opacity:1"
     id="path4181"
     inkscape:connector-curvature="0" />
  <path
     d="m 650.86238,601.31937 q 2.72774,0 3.99417,0 1.26646,0 2.92258,0.34096 1.70484,0.29225 2.24065,0.48711 0.58451,0.1948 1.41256,1.26643 0.82807,1.07162 0.97421,1.85097 0.1461,0.77937 0.38967,2.97128 0.24354,2.14324 0.24354,3.84807 0,1.70482 0,5.30934 0,9.69319 -2.38677,13.88222 -2.33805,4.14032 -6.86805,4.14032 -2.58161,0 -6.86805,-0.92549 -1.6074,-0.34095 -2.43547,-1.80225 -0.82805,-1.46128 -0.43839,-3.1174 0.38969,-1.60742 1.80225,-2.43549 1.46131,-0.87677 3.06872,-0.48709 2.0945,0.48709 2.92257,0.48709 1.94837,0 1.94837,-11.2032 0,-5.06579 -0.38965,-5.94258 -0.341,-0.87677 -2.53291,-0.87677 h -3.26354 q -0.53581,0 -0.63323,0.53582 -2.38677,10.76482 -6.47838,22.50382 -0.53579,1.5587 -2.04579,2.28936 -1.51,0.77934 -3.06872,0.24353 -1.55868,-0.53579 -2.28933,-1.99709 -0.68195,-1.41258 -0.1948,-2.92259 3.31224,-9.93673 5.65029,-20.16575 0.0976,-0.4871 -0.43837,-0.4871 h -1.85096 q -1.60742,0 -2.77646,-1.1203 -1.12031,-1.16903 -1.12031,-2.77645 0,-1.60744 1.12031,-2.72774 1.16904,-1.16903 2.77646,-1.16903 h 3.45838 q 0.58451,0 0.68193,-0.58453 0.63323,-3.31224 0.82805,-4.6761 0.29227,-1.70486 1.60741,-2.77646 1.36389,-1.07161 3.06873,-0.97417 1.65613,0.0974 2.679,1.36386 1.02291,1.26642 0.77937,2.87384 -0.19479,1.41259 -0.68193,4.23775 -0.0487,0.1948 0.0974,0.38967 0.14609,0.1461 0.38965,0.1461 h 1.70486 z m 21.33478,0.97417 q 2.63033,7.79356 4.91966,16.51257 0.43839,1.60742 -0.4871,3.06868 -0.87676,1.4613 -2.53288,1.85097 l -0.38966,0.0974 q -1.65613,0.38968 -3.16616,-0.48711 -1.46126,-0.87677 -1.89965,-2.58159 -2.28935,-8.42675 -4.91966,-16.26901 -0.53581,-1.60742 0.24354,-3.0687 0.77935,-1.50998 2.38677,-1.89968 l 0.48711,-0.0974 q 1.70482,-0.4384 3.26352,0.38969 1.55872,0.82805 2.09451,2.48417 z"
     style="font-style:normal;font-variant:normal;font-weight:900;font-stretch:normal;font-size:24.03325844px;line-height:125%;font-family:'Rounded-X M+ 1c';-inkscape-font-specification:'Rounded-X M+ 1c, Heavy';text-align:start;letter-spacing:0px;word-spacing:0px;writing-mode:lr-tb;text-anchor:start;fill:#5d9a1f;fill-opacity:1;stroke:none;stroke-width:2.10817385px;stroke-linecap:butt;stroke-linejoin:miter;stroke-opacity:1"
     id="path4183"
     inkscape:connector-curvature="0" />
  <path
     d="m 690.60938,623.8232 q 0.341,0.38966 4.14033,5.16319 0.97419,1.26647 0.73065,2.82517 -0.24355,1.51 -1.51,2.38677 -1.31516,0.92549 -2.92258,0.68193 -1.5587,-0.24354 -2.58159,-1.51 -1.0229,-1.26645 -3.84807,-4.67612 -1.0229,-1.21772 -0.92549,-2.82514 0.1461,-1.60742 1.36387,-2.63031 1.26646,-1.02291 2.87386,-0.82809 1.65614,0.1461 2.67902,1.4126 z"
     style="font-style:normal;font-variant:normal;font-weight:900;font-stretch:normal;font-size:24.03325844px;line-height:125%;font-family:'Rounded-X M+ 1c';-inkscape-font-specification:'Rounded-X M+ 1c, Heavy';text-align:start;letter-spacing:0px;word-spacing:0px;writing-mode:lr-tb;text-anchor:start;fill:#5d9a1f;fill-opacity:1;stroke:none;stroke-width:2.10817385px;stroke-linecap:butt;stroke-linejoin:miter;stroke-opacity:1"
     id="path4185"
     inkscape:connector-curvature="0" />
  <path
     d="m 747.74571,605.07 q 0.0487,-0.19479 -0.0974,-0.29225 -0.1461,-0.0974 -0.34098,-0.0487 -4.18902,1.41256 -6.47837,4.72482 -2.28936,3.31226 -2.28936,7.93966 0,2.77644 1.07161,5.30933 1.07161,2.4842 1.85096,2.4842 0.77937,0 1.70483,-1.80225 0.97419,-1.85098 2.19196,-6.5758 1.26644,-4.77354 2.38675,-11.73901 z m 5.89386,-9.59579 q 8.62159,0 14.27189,5.50419 5.69903,5.45547 5.69903,13.97964 0,7.55 -3.36096,12.56707 -3.31225,4.96838 -9.1087,6.67322 -1.65612,0.48709 -3.11742,-0.53582 -1.46128,-1.0229 -1.89965,-2.77644 l -0.0974,-0.19479 q -0.38968,-1.5587 0.48709,-3.01999 0.92547,-1.4613 2.53289,-2.19193 5.79645,-2.67902 5.79645,-10.52126 0,-3.79935 -1.9971,-6.62449 -1.94839,-2.82517 -5.26063,-3.94547 -0.53579,-0.1948 -0.63321,0.38965 -1.31517,8.76773 -2.92258,14.61287 -1.60742,5.84515 -3.60452,9.01129 -1.99709,3.11739 -4.09161,4.33514 -2.09451,1.21774 -4.87095,1.21774 -4.33515,0 -8.03708,-4.82225 -3.65321,-4.87096 -3.65321,-11.73899 0,-9.74194 6.57579,-15.83062 6.5758,-6.0887 17.2919,-6.0887 z"
     style="font-style:normal;font-variant:normal;font-weight:900;font-stretch:normal;font-size:24.03325844px;line-height:125%;font-family:'Rounded-X M+ 1c';-inkscape-font-specification:'Rounded-X M+ 1c, Heavy';text-align:start;letter-spacing:0px;word-spacing:0px;writing-mode:lr-tb;text-anchor:start;fill:#5d9a1f;fill-opacity:1;stroke:none;stroke-width:2.10817385px;stroke-linecap:butt;stroke-linejoin:miter;stroke-opacity:1"
     id="path4187"
     inkscape:connector-curvature="0" />
  <path
     d="m 820.90748,593.62325 q 1.07163,1.9484 1.60742,2.97128 0.53581,1.02291 0.14609,2.14324 -0.38967,1.0716 -1.4613,1.6074 -1.0716,0.53581 -2.19191,0.19479 -1.12032,-0.38967 -1.65612,-1.46128 -0.48711,-0.97421 -1.55872,-2.92258 -0.53579,-1.02289 -0.24353,-2.14321 0.34095,-1.16905 1.41256,-1.65614 1.07163,-0.53582 2.19195,-0.1461 1.16903,0.34098 1.75352,1.41258 z m -0.34096,16.31771 q 1.31517,1.12033 1.55872,2.82517 0.24354,1.65611 -0.77937,3.0687 -0.97418,1.36386 -2.67902,1.5587 -1.65614,0.19479 -2.92256,-0.87677 -1.36387,-1.16903 -1.9971,-1.75354 -0.0487,-0.0487 -0.0974,0 v 0.0974 q 1.36387,3.89677 1.36387,7.89093 0,5.69901 -4.77354,9.44966 -4.72482,3.70191 -12.7619,3.70191 -7.69614,0 -12.2748,-4.14028 -4.53002,-4.18903 -4.53002,-11.44675 0,-3.79935 2.14323,-8.1345 2.14324,-4.33516 5.84515,-7.79354 0.0487,-0.0487 0.0487,-0.0974 0,-0.0487 -0.0487,-0.0487 h -4.82224 q -1.60742,0 -2.77644,-1.12033 -1.12035,-1.16905 -1.12035,-2.77646 0,-1.6074 1.12035,-2.72773 1.16902,-1.16902 2.77644,-1.16902 h 10.47257 q 1.70481,0 2.92256,1.21774 1.21774,1.21775 1.21774,2.92256 0,3.5071 -3.11742,6.86805 -2.48419,2.63033 -3.94547,5.99129 -1.4613,3.31223 -1.4613,6.38095 0,3.99419 2.04582,6.13743 2.04581,2.14319 5.50418,2.14319 4.09159,0 6.28352,-2.14319 2.24065,-2.14324 2.24065,-6.13743 0,-3.84807 -0.34097,-5.94256 -0.34096,-2.14321 -1.75354,-5.74772 -0.68195,-1.75356 -0.24356,-3.5558 0.4384,-1.80228 1.85098,-3.02 1.51,-1.31516 3.60451,-0.97421 0.1461,0.0487 0.24354,-0.0974 0.0974,-0.14609 0,-0.29225 -0.1948,-0.38966 -0.63323,-1.169 -0.43838,-0.82807 -0.63321,-1.21775 -0.53582,-1.02291 -0.1948,-2.09451 0.341,-1.12033 1.36388,-1.65614 1.07161,-0.53579 2.19192,-0.1948 1.12034,0.34096 1.65613,1.41259 0.24356,0.48709 0.73066,1.46128 0.53581,0.92548 0.77935,1.41258 0.53581,1.0229 0.14609,2.14321 -0.34095,1.12033 -1.36386,1.60742 -0.24354,0.1461 -0.92549,0.24356 -0.1461,0 -0.19479,0.14609 -0.0487,0.1461 0.0487,0.24356 3.99419,3.94549 8.23192,7.40386 z"
     style="font-style:normal;font-variant:normal;font-weight:900;font-stretch:normal;font-size:24.03325844px;line-height:125%;font-family:'Rounded-X M+ 1c';-inkscape-font-specification:'Rounded-X M+ 1c, Heavy';text-align:start;letter-spacing:0px;word-spacing:0px;writing-mode:lr-tb;text-anchor:start;fill:#5d9a1f;fill-opacity:1;stroke:none;stroke-width:2.10817385px;stroke-linecap:butt;stroke-linejoin:miter;stroke-opacity:1"
     id="path4189"
     inkscape:connector-curvature="0" />
  <path
     d="m 845.16487,605.07 q 0.0487,-0.19479 -0.0974,-0.29225 -0.1461,-0.0974 -0.34098,-0.0487 -4.18902,1.41256 -6.47837,4.72482 -2.28935,3.31226 -2.28935,7.93966 0,2.77644 1.0716,5.30933 1.07161,2.4842 1.85098,2.4842 0.77933,0 1.70484,-1.80225 0.97418,-1.85098 2.19191,-6.5758 1.26646,-4.77354 2.38677,-11.73901 z m 5.89386,-9.59579 q 8.62159,0 14.2719,5.50419 5.69902,5.45547 5.69902,13.97964 0,7.55 -3.36095,12.56707 -3.31224,4.96838 -9.10869,6.67322 -1.65611,0.48709 -3.11742,-0.53582 -1.46128,-1.0229 -1.89967,-2.77644 l -0.0974,-0.19479 q -0.3897,-1.5587 0.48707,-3.01999 0.92549,-1.4613 2.53291,-2.19193 5.79645,-2.67902 5.79645,-10.52126 0,-3.79935 -1.99712,-6.62449 -1.94837,-2.82517 -5.26063,-3.94547 -0.53577,-0.1948 -0.63321,0.38965 -1.31517,8.76773 -2.92258,14.61287 -1.6074,5.84515 -3.60452,9.01129 -1.99707,3.11739 -4.09158,4.33514 -2.09452,1.21774 -4.87096,1.21774 -4.33517,0 -8.03708,-4.82225 -3.65323,-4.87096 -3.65323,-11.73899 0,-9.74194 6.57579,-15.83062 6.5758,-6.0887 17.2919,-6.0887 z"
     style="font-style:normal;font-variant:normal;font-weight:900;font-stretch:normal;font-size:24.03325844px;line-height:125%;font-family:'Rounded-X M+ 1c';-inkscape-font-specification:'Rounded-X M+ 1c, Heavy';text-align:start;letter-spacing:0px;word-spacing:0px;writing-mode:lr-tb;text-anchor:start;fill:#5d9a1f;fill-opacity:1;stroke:none;stroke-width:2.10817385px;stroke-linecap:butt;stroke-linejoin:miter;stroke-opacity:1"
     id="path4191"
     inkscape:connector-curvature="0" />
  <path
     d="m 918.32666,593.62325 q 1.07161,1.9484 1.60742,2.97128 0.53581,1.02291 0.1461,2.14324 -0.38968,1.0716 -1.46128,1.6074 -1.07161,0.53581 -2.19194,0.19479 -1.12032,-0.38967 -1.65611,-1.46128 -0.48712,-0.97421 -1.55872,-2.92258 -0.53578,-1.02289 -0.24354,-2.14321 0.34098,-1.16905 1.41258,-1.65614 1.07161,-0.53582 2.19193,-0.1461 1.16903,0.34098 1.75354,1.41258 z m -0.34098,16.31771 q 1.31519,1.12033 1.5587,2.82517 0.24356,1.65611 -0.77932,3.0687 -0.97421,1.36386 -2.67905,1.5587 -1.65612,0.19479 -2.92256,-0.87677 -1.36386,-1.16903 -1.9971,-1.75354 -0.0487,-0.0487 -0.0974,0 v 0.0974 q 1.36386,3.89677 1.36386,7.89093 0,5.69901 -4.77356,9.44966 -4.72482,3.70191 -12.7619,3.70191 -7.69612,0 -12.27482,-4.14028 -4.52998,-4.18903 -4.52998,-11.44675 0,-3.79935 2.14321,-8.1345 2.14324,-4.33516 5.84517,-7.79354 0.0487,-0.0487 0.0487,-0.0974 0,-0.0487 -0.0487,-0.0487 h -4.82226 q -1.6074,0 -2.77644,-1.12033 -1.12033,-1.16905 -1.12033,-2.77646 0,-1.6074 1.12033,-2.72773 1.16904,-1.16902 2.77644,-1.16902 h 10.47254 q 1.70486,0 2.92259,1.21774 1.21774,1.21775 1.21774,2.92256 0,3.5071 -3.11742,6.86805 -2.48417,2.63033 -3.94547,5.99129 -1.46128,3.31223 -1.46128,6.38095 0,3.99419 2.04582,6.13743 2.04577,2.14319 5.50416,2.14319 4.09161,0 6.28354,-2.14319 2.24065,-2.14324 2.24065,-6.13743 0,-3.84807 -0.34099,-5.94256 -0.34096,-2.14321 -1.75354,-5.74772 -0.68193,-1.75356 -0.24354,-3.5558 0.43838,-1.80228 1.85096,-3.02 1.50998,-1.31516 3.60449,-0.97421 0.1461,0.0487 0.24356,-0.0974 0.0974,-0.14609 0,-0.29225 -0.1948,-0.38966 -0.63321,-1.169 -0.4384,-0.82807 -0.63323,-1.21775 -0.53582,-1.02291 -0.1948,-2.09451 0.34098,-1.12033 1.36386,-1.65614 1.07163,-0.53579 2.19194,-0.1948 1.12032,0.34096 1.65611,1.41259 0.24356,0.48709 0.73065,1.46128 0.53582,0.92548 0.77935,1.41258 0.53582,1.0229 0.1461,2.14321 -0.34098,1.12033 -1.36388,1.60742 -0.24354,0.1461 -0.92547,0.24356 -0.1461,0 -0.1948,0.14609 -0.0487,0.1461 0.0487,0.24356 3.99419,3.94549 8.23192,7.40386 z"
     style="font-style:normal;font-variant:normal;font-weight:900;font-stretch:normal;font-size:24.03325844px;line-height:125%;font-family:'Rounded-X M+ 1c';-inkscape-font-specification:'Rounded-X M+ 1c, Heavy';text-align:start;letter-spacing:0px;word-spacing:0px;writing-mode:lr-tb;text-anchor:start;fill:#5d9a1f;fill-opacity:1;stroke:none;stroke-width:2.10817385px;stroke-linecap:butt;stroke-linejoin:miter;stroke-opacity:1"
     id="path4193"
     inkscape:connector-curvature="0" />
  <path
     d="m 950.91327,624.94351 v -0.1948 q 0,-0.58451 -0.53577,-0.68193 -0.48709,-0.0974 -1.4126,-0.0974 -3.40965,0 -3.40965,1.9484 0,1.02288 0.63319,1.51 0.68197,0.43837 2.28937,0.43837 2.43546,0 2.43546,-2.92258 z m 9.30357,-10.95964 q -0.53578,0 -0.53578,0.53579 v 4.91966 q 0,0.58453 0.43834,0.87679 2.38681,1.80223 5.60158,5.11449 1.16907,1.21775 1.12039,2.87386 -0.0489,1.65614 -1.21772,2.82515 -1.16907,1.16904 -2.77647,1.12034 -1.60748,-0.0487 -2.72778,-1.21774 l -0.82807,-0.82807 q -0.38966,-0.38968 -0.63321,0.1461 -1.16899,2.53288 -3.55578,3.89677 -2.38679,1.41258 -5.65035,1.41258 -12.17734,0 -12.17734,-9.74192 0,-9.49837 12.17734,-9.49837 h 0.92551 q 0.53577,0 0.53577,-0.4871 v -1.41258 q 0,-0.53579 -0.53577,-0.53579 h -7.35514 q -1.5587,0 -2.67903,-1.12033 -1.1203,-1.12032 -1.1203,-2.67902 0,-1.5587 1.1203,-2.63031 1.12033,-1.12032 2.67903,-1.12032 h 7.35514 q 0.53577,0 0.53577,-0.53582 v -1.85097 q 0,-0.5358 -0.53577,-0.5358 h -7.2577 q -1.60742,0 -2.77647,-1.12032 -1.1203,-1.16903 -1.1203,-2.77643 0,-1.60744 1.1203,-2.72776 1.16905,-1.16901 2.77647,-1.16901 h 20.45803 q 1.60738,0 2.72769,1.16901 1.16906,1.12032 1.16906,2.72776 0,1.6074 -1.16906,2.77643 -1.12031,1.12032 -2.72769,1.12032 h -3.36099 q -0.53578,0 -0.53578,0.5358 v 1.85097 q 0,0.53582 0.53578,0.53582 h 3.45833 q 1.55872,0 2.67911,1.12032 1.1203,1.07161 1.1203,2.63031 0,1.5587 -1.1203,2.67902 -1.12039,1.12033 -2.67911,1.12033 h -3.45833 z m -27.71575,-18.99673 q 1.65614,0.19479 2.58161,1.55867 0.97419,1.31519 0.68193,2.92261 -1.41256,7.45254 -1.41256,15.48962 0,8.03709 1.41256,15.48966 0.29226,1.60742 -0.68193,2.92256 -0.92547,1.36388 -2.58161,1.55872 h -0.38967 q -1.75356,0.19479 -3.21482,-0.82807 -1.4613,-0.97419 -1.80228,-2.72775 -1.51,-7.5987 -1.51,-16.41512 0,-8.81643 1.51,-16.41513 0.34098,-1.75354 1.80228,-2.72773 1.46126,-1.0229 3.21482,-0.82804 z"
     style="font-style:normal;font-variant:normal;font-weight:900;font-stretch:normal;font-size:24.03325844px;line-height:125%;font-family:'Rounded-X M+ 1c';-inkscape-font-specification:'Rounded-X M+ 1c, Heavy';text-align:start;letter-spacing:0px;word-spacing:0px;writing-mode:lr-tb;text-anchor:start;fill:#5d9a1f;fill-opacity:1;stroke:none;stroke-width:2.10817385px;stroke-linecap:butt;stroke-linejoin:miter;stroke-opacity:1"
     id="path4195"
     inkscape:connector-curvature="0" />
  <path
     d="m 1005.6141,598.54291 q 1.7536,-0.48707 3.361,0.29225 1.6074,0.73066 2.2406,2.38677 4.2865,11.15452 4.871,24.69579 0.049,1.70481 -1.169,2.92256 -1.1691,1.21772 -2.8739,1.21772 h -0.9742 q -1.7048,0 -2.9225,-1.21772 -1.2178,-1.21775 -1.3152,-2.97128 -0.5845,-11.39806 -4.2864,-22.11416 -0.5359,-1.5587 0.1948,-3.0687 0.7306,-1.50998 2.338,-1.94837 l 0.5358,-0.1948 z m -7.45247,19.8248 q 1.65616,0.63323 2.38667,2.19196 0.7307,1.50997 0,3.06867 -2.58155,5.60161 -6.18609,8.71903 -3.55577,3.0687 -6.91666,3.0687 -4.48129,0 -8.32938,-5.79644 -3.84807,-5.79643 -3.84807,-14.1745 0,-6.67319 1.55872,-13.54124 0.38966,-1.75356 1.8997,-2.72773 1.55872,-1.02291 3.36089,-0.82807 l 0.73065,0.0974 q 1.60749,0.19479 2.53291,1.5587 0.97419,1.31516 0.63321,2.92258 -1.4613,7.06287 -1.4613,12.51834 0,2.28935 0.341,4.38388 0.38965,2.04578 0.97418,3.40966 0.58454,1.31516 1.16907,2.14323 0.63319,0.77935 1.16907,0.77935 0.73063,0 1.89961,-1.36388 1.16905,-1.41256 2.48423,-4.04289 0.77931,-1.5587 2.38671,-2.28935 1.65616,-0.73065 3.21488,-0.0974 z"
     style="font-style:normal;font-variant:normal;font-weight:900;font-stretch:normal;font-size:24.03325844px;line-height:125%;font-family:'Rounded-X M+ 1c';-inkscape-font-specification:'Rounded-X M+ 1c, Heavy';text-align:start;letter-spacing:0px;word-spacing:0px;writing-mode:lr-tb;text-anchor:start;fill:#5d9a1f;fill-opacity:1;stroke:none;stroke-width:2.10817385px;stroke-linecap:butt;stroke-linejoin:miter;stroke-opacity:1"
     id="path4197"
     inkscape:connector-curvature="0" />
  <path
     d="m 1055.2492,628.01223 q 1.3639,1.02286 1.5587,2.72772 0.1948,1.70484 -0.9255,2.97128 l -0.4871,0.4871 q -1.1203,1.31516 -2.8738,1.51 -1.7048,0.19479 -3.0687,-0.82807 -5.9426,-4.43256 -13.8822,-9.88805 -4.7736,-3.31224 -6.5758,-4.82224 -1.8023,-1.5587 -2.4355,-2.77644 -0.6332,-1.26645 -0.6332,-3.40966 0,-3.21486 1.51,-4.87098 1.5587,-1.65612 8.037,-5.74772 5.6504,-3.5558 12.8594,-8.47547 1.4126,-0.97419 3.1174,-0.68194 1.7048,0.29226 2.7277,1.70484 l 0.4871,0.58452 q 1.0229,1.41258 0.7306,3.0687 -0.2922,1.65611 -1.7048,2.63032 -5.9913,4.14033 -12.3722,7.98836 -2.9226,1.80225 -3.7994,2.53291 -0.8767,0.68195 -0.8767,1.26646 0,0.58451 0.7306,1.26642 0.7793,0.63323 3.6532,2.58161 6.2836,4.14033 14.2232,10.18033 z"
     style="font-style:normal;font-variant:normal;font-weight:900;font-stretch:normal;font-size:24.03325844px;line-height:125%;font-family:'Rounded-X M+ 1c';-inkscape-font-specification:'Rounded-X M+ 1c, Heavy';text-align:start;letter-spacing:0px;word-spacing:0px;writing-mode:lr-tb;text-anchor:start;fill:#5d9a1f;fill-opacity:1;stroke:none;stroke-width:2.10817385px;stroke-linecap:butt;stroke-linejoin:miter;stroke-opacity:1"
     id="path4199"
     inkscape:connector-curvature="0" />
  <g
     inkscape:label=" 1"
     inkscape:groupmode="layer"
     id="layer1"
     transform="translate(0,-152.36216)" />
</svg>
