<?xml version="1.0" encoding="UTF-8" standalone="no"?>
<!-- Created with Inkscape (http://www.inkscape.org/) -->

<svg
   xmlns:dc="http://purl.org/dc/elements/1.1/"
   xmlns:cc="http://creativecommons.org/ns#"
   xmlns:rdf="http://www.w3.org/1999/02/22-rdf-syntax-ns#"
   xmlns:svg="http://www.w3.org/2000/svg"
   xmlns="http://www.w3.org/2000/svg"
   xmlns:sodipodi="http://sodipodi.sourceforge.net/DTD/sodipodi-0.dtd"
   xmlns:inkscape="http://www.inkscape.org/namespaces/inkscape"
   width="297mm"
   height="210mm"
   viewBox="0 0 1052.3622 744.09446"
   id="svg2"
   version="1.1"
   inkscape:version="0.91 r13725"
   sodipodi:docname="page1.svg">
  <sodipodi:namedview
     id="base"
     pagecolor="#ffffff"
     bordercolor="#666666"
     borderopacity="1.0"
     inkscape:pageopacity="0.0"
     inkscape:pageshadow="2"
     inkscape:zoom="0.72434125"
     inkscape:cx="526.1811"
     inkscape:cy="372.04724"
     inkscape:document-units="mm"
     inkscape:current-layer="layer5"
     showgrid="false"
     inkscape:window-width="1470"
     inkscape:window-height="841"
     inkscape:window-x="-8"
     inkscape:window-y="-8"
     inkscape:window-maximized="1"
     units="mm"
     inkscape:showpageshadow="false"
     width="359mm"
     showborder="true" />
  <defs
     id="defs4" />
  <metadata
     id="metadata7">
    <rdf:RDF>
      <cc:Work
         rdf:about="">
        <dc:format>image/svg+xml</dc:format>
        <dc:type
           rdf:resource="http://purl.org/dc/dcmitype/StillImage" />
        <dc:title></dc:title>
      </cc:Work>
    </rdf:RDF>
  </metadata>
  <g
     style="display:inline"
     transform="translate(0,-124.01573)"
     inkscape:label="インフラ"
     id="layer2"
     inkscape:groupmode="layer" />
  <g
     inkscape:groupmode="layer"
     id="layer6"
     inkscape:label="内容">
    <g
       id="g5540">
      <g
         style="fill:#7dcf2a;fill-opacity:1"
         id="g5515">
        <path
           inkscape:connector-curvature="0"
           id="path4392-05"
           d="m 883.84382,575.73247 c 1.76211,3.36125 0.44084,7.58991 -2.97401,9.37939 -3.36116,1.76199 -7.58988,0.44102 -9.35146,-2.92062 -1.78998,-3.41452 -0.44093,-7.58991 2.92059,-9.35144 3.41468,-1.79001 7.61534,-0.52205 9.40488,2.89267 z"
           style="opacity:1;fill:#7dcf2a;fill-opacity:1;fill-rule:nonzero;stroke:none" />
        <path
           inkscape:connector-curvature="0"
           id="path4394-9"
           d="m 923.74725,528.97904 c 0.86703,1.65383 0.17843,3.71476 -1.47557,4.58159 -1.65373,0.867 -3.68701,0.23177 -4.55377,-1.42221 -0.89499,-1.70724 -0.25964,-3.74051 1.39409,-4.60713 1.65409,-0.8672 3.74044,-0.25979 4.63525,1.44775 z"
           style="opacity:1;fill:#7dcf2a;fill-opacity:1;fill-rule:nonzero;stroke:none" />
        <path
           inkscape:connector-curvature="0"
           id="path4400-8"
           d="m 803.38469,530.30046 c 2.6837,5.12272 0.67549,11.41158 -4.44668,14.09568 -5.12192,2.68498 -11.4369,0.75677 -14.1212,-4.36548 -2.68364,-5.12258 -0.7033,-11.46504 4.41895,-14.14901 5.12204,-2.68504 11.46484,-0.70336 14.14893,4.41881 z"
           style="opacity:1;fill:#7dcf2a;fill-opacity:1;fill-rule:nonzero;stroke:none" />
        <path
           inkscape:connector-curvature="0"
           id="path4432-8"
           d="m 847.05505,533.74058 c -2.0675,-3.80682 -0.63196,-8.65562 3.17504,-10.72315 3.86732,-2.10041 8.65553,-0.63192 10.72321,3.17483 2.1002,3.86727 0.69217,8.62279 -3.17505,10.7233 -3.80674,2.06746 -8.62283,0.69223 -10.7232,-3.17498 z"
           style="opacity:1;fill:#7dcf2a;fill-opacity:1;fill-rule:nonzero;stroke:none" />
        <path
           inkscape:connector-curvature="0"
           id="path4434-3"
           d="m 804.99038,600.79746 c -1.01696,-1.87339 -0.26681,-4.23706 1.60652,-5.25449 1.87339,-1.01697 4.26477,-0.36 5.28211,1.51318 1.01694,1.87339 0.29945,4.29759 -1.57361,5.31489 -1.87338,1.01695 -4.2976,0.29974 -5.31502,-1.57358 z"
           style="opacity:1;fill:#7dcf2a;fill-opacity:1;fill-rule:nonzero;stroke:none" />
        <path
           inkscape:connector-curvature="0"
           id="path4440-6"
           d="m 956.3979,575.14068 c -3.15065,-5.8009 -0.96414,-13.01357 4.83638,-16.1641 5.80096,-3.15052 13.04123,-1.05755 16.19179,4.74344 3.15048,5.80082 0.99703,13.0738 -4.80367,16.22453 -5.80088,3.15046 -13.07393,0.99711 -16.2245,-4.80387 z"
           style="opacity:1;fill:#7dcf2a;fill-opacity:1;fill-rule:nonzero;stroke:none" />
        <path
           inkscape:connector-curvature="0"
           id="path4392-05-1"
           d="m 859.40821,559.57363 c -3.29745,1.87866 -7.56977,0.70636 -9.47779,-2.64381 -1.87853,-3.29736 -0.70647,-7.56976 2.59143,-9.44796 3.34982,-1.90841 7.56987,-0.70638 9.44804,2.5914 1.90846,3.34987 0.78831,7.59236 -2.56168,9.50037 z"
           style="opacity:1;fill:#7dcf2a;fill-opacity:1;fill-rule:nonzero;stroke:none" />
        <path
           inkscape:connector-curvature="0"
           id="path4394-9-5"
           d="m 907.53017,597.81557 c -1.62255,0.92445 -3.70631,0.30845 -4.63052,-1.3143 -0.92439,-1.62233 -0.3607,-3.67653 1.26194,-4.60067 1.67491,-0.95424 3.72918,-0.39045 4.65312,1.23191 0.92457,1.62273 0.39063,3.72905 -1.28454,4.68306 z"
           style="opacity:1;fill:#7dcf2a;fill-opacity:1;fill-rule:nonzero;stroke:none" />
        <path
           inkscape:connector-curvature="0"
           id="path4400-8-3"
           d="m 901.99519,477.57312 c -5.02552,2.86139 -11.3808,1.07463 -14.24269,-3.95043 -2.86269,-5.02478 -1.15669,-11.40341 3.86847,-14.26541 5.02544,-2.86133 11.43334,-1.10429 14.29496,3.92084 2.86278,5.0249 1.10433,11.43319 -3.92074,14.295 z"
           style="opacity:1;fill:#7dcf2a;fill-opacity:1;fill-rule:nonzero;stroke:none" />
        <path
           inkscape:connector-curvature="0"
           id="path4432-8-2"
           d="m 900.08628,521.33712 c 3.73213,-2.19949 8.62819,-0.9346 10.82774,2.79764 2.23449,3.79142 0.93466,8.62818 -2.79747,10.82781 -3.79136,2.23433 -8.59325,0.99365 -10.82783,-2.79757 -2.19955,-3.73212 -0.99372,-8.59342 2.79756,-10.82788 z"
           style="opacity:1;fill:#7dcf2a;fill-opacity:1;fill-rule:nonzero;stroke:none" />
        <path
           inkscape:connector-curvature="0"
           id="path4434-3-7"
           d="m 831.59768,481.64612 c 1.83672,-1.08192 4.22515,-0.41498 5.30759,1.42156 1.08191,1.83663 0.50902,4.24956 -1.32734,5.33188 -1.83662,1.08194 -4.28447,0.44971 -5.36674,-1.38657 -1.08191,-1.83664 -0.45004,-4.28447 1.38649,-5.36687 z"
           style="opacity:1;fill:#7dcf2a;fill-opacity:1;fill-rule:nonzero;stroke:none" />
        <path
           inkscape:connector-curvature="0"
           id="path4440-6-0"
           d="m 862.54002,632.0625 c 5.68705,-3.35184 12.9718,-1.41927 16.32358,4.26749 3.35169,5.6871 1.51346,12.99617 -4.17368,16.34789 -5.68696,3.35164 -13.03096,1.45419 -16.38282,-4.23264 -3.3516,-5.68698 -1.45422,-13.03103 4.23292,-16.38274 z"
           style="opacity:1;fill:#7dcf2a;fill-opacity:1;fill-rule:nonzero;stroke:none" />
        <path
           inkscape:connector-curvature="0"
           id="path4392-05-5"
           d="m 900.89831,306.13617 c -2.36842,2.9654 -6.77128,3.45701 -9.78336,1.0505 -2.96526,-2.3683 -3.45712,-6.77117 -1.08816,-9.73629 2.40594,-3.01235 6.77128,-3.45701 9.73627,-1.08816 3.01244,2.40606 3.54155,6.7619 1.13525,9.77395 z"
           style="opacity:1;fill:#7dcf2a;fill-opacity:1;fill-rule:nonzero;stroke:none" />
        <path
           inkscape:connector-curvature="0"
           id="path4394-9-8"
           d="m 925.47969,308.62646 c -1.16535,1.45911 -3.32917,1.65783 -4.78821,0.49218 -1.45895,-1.1652 -1.69537,-3.28217 -0.52974,-4.74108 1.20288,-1.50619 3.31997,-1.74248 4.77865,-0.57713 1.4594,1.1655 1.74255,3.31993 0.5393,4.82603 z"
           style="opacity:1;fill:#7dcf2a;fill-opacity:1;fill-rule:nonzero;stroke:none" />
        <path
           inkscape:connector-curvature="0"
           id="path4400-8-1"
           d="m 875.84902,198.96477 c -3.61026,4.51778 -10.17568,5.2092 -14.69362,1.59959 -4.51856,-3.60903 -5.29374,-10.16617 -1.68411,-14.68433 3.61008,-4.51766 10.21339,-5.25615 14.73124,-1.64642 4.51874,3.60911 5.25612,10.21323 1.64649,14.73116 z"
           style="opacity:1;fill:#7dcf2a;fill-opacity:1;fill-rule:nonzero;stroke:none" />
        <path
           inkscape:connector-curvature="0"
           id="path4432-8-9"
           d="m 890.26781,240.32939 c 2.65344,-3.42425 7.67011,-4.06061 11.09444,-1.40705 3.47874,2.69561 4.06057,7.6701 1.40722,11.09444 -2.69561,3.47855 -7.61579,4.10257 -11.09453,1.40717 -3.42424,-2.65347 -4.10274,-7.61592 -1.40713,-11.09456 z"
           style="opacity:1;fill:#7dcf2a;fill-opacity:1;fill-rule:nonzero;stroke:none" />
        <path
           inkscape:connector-curvature="0"
           id="path4434-3-0"
           d="m 811.95419,228.79515 c 1.30596,-1.68468 3.77174,-1.9488 5.45683,-0.64304 1.68473,1.306 2.04525,3.75961 0.73962,5.44459 -1.30599,1.68467 -3.81406,2.00299 -5.4989,0.69743 -1.68467,-1.30599 -2.00334,-3.81389 -0.69755,-5.49898 z"
           style="opacity:1;fill:#7dcf2a;fill-opacity:1;fill-rule:nonzero;stroke:none" />
        <path
           inkscape:connector-curvature="0"
           id="path4440-6-3"
           d="m 896.35326,357.08899 c 4.04332,-5.21813 11.52617,-6.11802 16.74405,-2.0749 5.21807,4.04344 6.21456,11.51393 2.17114,16.73195 -4.04332,5.21792 -11.56816,6.1723 -16.78622,2.1292 -5.21789,-4.04334 -6.17248,-11.56823 -2.12897,-16.78625 z"
           style="opacity:1;fill:#7dcf2a;fill-opacity:1;fill-rule:nonzero;stroke:none" />
        <path
           inkscape:connector-curvature="0"
           id="path4392-05-1-5"
           d="m 871.58688,262.0313 c -3.04638,-2.26312 -3.69192,-6.64609 -1.39239,-9.74058 2.26299,-3.04639 6.64602,-3.69208 9.69223,-1.42838 3.09472,2.29902 3.69201,6.6461 1.42839,9.69221 -2.29908,3.09486 -6.63368,3.77611 -9.72823,1.47675 z"
           style="opacity:1;fill:#7dcf2a;fill-opacity:1;fill-rule:nonzero;stroke:none" />
        <path
           inkscape:connector-curvature="0"
           id="path4394-9-5-9"
           d="m 855.93501,321.47191 c -1.49898,-1.11349 -1.77336,-3.26903 -0.65956,-4.768 1.11345,-1.49893 3.22079,-1.80927 4.7196,-0.69551 1.54749,1.14946 1.85771,3.25699 0.74408,4.75557 -1.11362,1.49928 -3.2568,1.85774 -4.80412,0.70794 z"
           style="opacity:1;fill:#7dcf2a;fill-opacity:1;fill-rule:nonzero;stroke:none" />
        <path
           inkscape:connector-curvature="0"
           id="path4432-8-2-3"
           d="m 922.95733,283.89031 c 3.51501,2.53194 4.32665,7.52323 1.79463,11.03838 -2.57213,3.57102 -7.52323,4.32668 -11.03842,1.79486 -3.57077,-2.57218 -4.36658,-7.46751 -1.79472,-11.03849 2.53201,-3.51505 7.46756,-4.36682 11.03851,-1.79475 z"
           style="opacity:1;fill:#7dcf2a;fill-opacity:1;fill-rule:nonzero;stroke:none" />
        <path
           inkscape:connector-curvature="0"
           id="path4434-3-7-2"
           d="m 931.7425,205.22087 c 1.72932,1.2462 2.07965,3.70122 0.83379,5.43098 -1.24631,1.72938 -3.68576,2.17567 -5.41544,0.9298 -1.7294,-1.24621 -2.13531,-3.74156 -0.88954,-5.47111 1.24622,-1.72938 3.74142,-2.13562 5.47119,-0.88967 z"
           style="opacity:1;fill:#7dcf2a;fill-opacity:1;fill-rule:nonzero;stroke:none" />
        <path
           inkscape:connector-curvature="0"
           id="path4440-6-0-7"
           d="m 769.66875,375.93874 c 5.35652,3.85813 6.51784,11.3049 2.65985,16.66116 -3.85821,5.3564 -11.28924,6.6139 -16.64565,2.75565 -5.35629,-3.85816 -6.57356,-11.34493 -2.71562,-16.70138 3.85815,-5.3563 11.34502,-6.57367 16.70142,-2.71543 z"
           style="opacity:1;fill:#7dcf2a;fill-opacity:1;fill-rule:nonzero;stroke:none" />
      </g>
      <g
         style="fill:#ffe60c;fill-opacity:1"
         id="g5481"
         transform="translate(2,0)">
        <path
           inkscape:connector-curvature="0"
           id="path4388-0"
           d="m 830.15927,534.13587 c 2.68356,5.12244 0.75658,11.43683 -4.3658,14.1212 -5.12245,2.68356 -11.46499,0.7031 -14.14909,-4.41908 -2.68356,-5.12245 -0.70323,-11.46492 4.41909,-14.14909 5.12177,-2.68491 11.41144,-0.67542 14.0958,4.44697 z"
           style="opacity:1;fill:#ffe60c;fill-opacity:1;fill-rule:nonzero;stroke:none" />
        <path
           inkscape:connector-curvature="0"
           id="path4390-2"
           d="m 907.36738,480.9794 c 0.86702,1.65384 0.23176,3.68684 -1.42224,4.55367 -1.70716,0.89486 -3.74043,0.25991 -4.60719,-1.39407 -0.895,-1.70724 -0.25974,-3.74045 1.44778,-4.63522 1.654,-0.86712 3.68692,-0.23177 4.58165,1.47562 z"
           style="opacity:1;fill:#ffe60c;fill-opacity:1;fill-rule:nonzero;stroke:none" />
        <path
           inkscape:connector-curvature="0"
           id="path4396-9"
           d="m 974.05419,527.64347 c 1.76211,3.36138 0.44111,7.58998 -2.9204,9.35151 -3.41477,1.79007 -7.64358,0.46897 -9.40507,-2.89254 -1.78998,-3.41453 -0.46871,-7.64339 2.94614,-9.43286 3.36125,-1.76206 7.58979,-0.44083 9.37933,2.97389 z"
           style="opacity:1;fill:#ffe60c;fill-opacity:1;fill-rule:nonzero;stroke:none" />
        <path
           inkscape:connector-curvature="0"
           id="path4406-2"
           d="m 807.08078,612.62605 c 0.86705,1.65383 0.23193,3.68683 -1.42209,4.55359 -1.65412,0.86719 -3.74039,0.25992 -4.6072,-1.3942 -0.89494,-1.70728 -0.20645,-3.76819 1.44767,-4.63501 1.65384,-0.86706 3.68684,-0.23191 4.58162,1.47562 z"
           style="opacity:1;fill:#ffe60c;fill-opacity:1;fill-rule:nonzero;stroke:none" />
        <path
           inkscape:connector-curvature="0"
           id="path4428-7"
           d="m 987.20666,499.17279 c -3.15048,-5.80084 -1.0576,-13.04101 4.74345,-16.19173 5.80079,-3.1506 13.07389,-0.99704 16.22449,4.80386 3.1507,5.80078 0.9643,13.01338 -4.8365,16.16403 -5.80101,3.15046 -12.98096,1.02466 -16.13144,-4.77616 z"
           style="opacity:1;fill:#ffe60c;fill-opacity:1;fill-rule:nonzero;stroke:none" />
        <path
           inkscape:connector-curvature="0"
           id="path4430-16"
           d="m 916.42704,560.58514 c -1.01696,-1.87326 -0.26688,-4.23707 1.60646,-5.2543 1.87335,-1.01695 4.26491,-0.36007 5.28204,1.5132 1.05001,1.93369 0.29949,4.29736 -1.57386,5.3148 -1.87334,1.01695 -4.26454,0.35993 -5.31464,-1.5737 z"
           style="opacity:1;fill:#ffe60c;fill-opacity:1;fill-rule:nonzero;stroke:none" />
        <path
           inkscape:connector-curvature="0"
           id="path4436-1"
           d="m 751.61357,586.51518 c -2.06767,-3.8069 -0.69243,-8.62266 3.17477,-10.72301 3.86734,-2.10043 8.65575,-0.63199 10.72322,3.17483 2.10041,3.86734 0.72518,8.68311 -3.14208,10.78366 -3.86721,2.10036 -8.65562,0.63193 -10.75591,-3.23548 z"
           style="opacity:1;fill:#ffe60c;fill-opacity:1;fill-rule:nonzero;stroke:none" />
        <path
           inkscape:connector-curvature="0"
           id="path4446-8"
           d="m 916.91486,506.91003 c -1.01678,-1.87312 -0.29932,-4.29745 1.57394,-5.31488 1.87344,-1.01695 4.29761,-0.29955 5.31465,1.57343 1.01704,1.87353 0.26688,4.2372 -1.60629,5.25458 -1.87343,1.01695 -4.26482,0.35999 -5.2823,-1.51313 z"
           style="opacity:1;fill:#ffe60c;fill-opacity:1;fill-rule:nonzero;stroke:none" />
        <path
           inkscape:connector-curvature="0"
           id="path4388-0-9"
           d="m 777.65034,469.12786 c -5.02535,2.86125 -11.40341,1.15653 -14.26538,-3.86873 -2.86131,-5.02534 -1.10407,-11.43332 3.92101,-14.2951 5.02525,-2.86128 11.43324,-1.10424 14.29504,3.92095 2.8626,5.02463 1.07458,11.38079 -3.95067,14.24288 z"
           style="opacity:1;fill:#ffe60c;fill-opacity:1;fill-rule:nonzero;stroke:none" />
        <path
           inkscape:connector-curvature="0"
           id="path4390-2-4"
           d="m 776.57108,426.16338 c -1.62246,0.92445 -3.67647,0.36084 -4.60068,-1.2619 -0.95405,-1.67473 -0.39062,-3.72899 1.23193,-4.65312 1.67481,-0.95424 3.72909,-0.3906 4.68305,1.28456 0.92457,1.62259 0.36069,3.67652 -1.3143,4.63046 z"
           style="opacity:1;fill:#ffe60c;fill-opacity:1;fill-rule:nonzero;stroke:none" />
        <path
           inkscape:connector-curvature="0"
           id="path4396-9-3"
           d="m 910.62632,648.04494 c -3.29763,1.87874 -7.56995,0.70659 -9.44804,-2.5912 -1.90855,-3.35001 -0.73631,-7.62248 2.5615,-9.50062 3.34973,-1.9084 7.62223,-0.73603 9.53015,2.61413 1.87871,3.29749 0.70638,7.5697 -2.64361,9.47769 z"
           style="opacity:1;fill:#ffe60c;fill-opacity:1;fill-rule:nonzero;stroke:none" />
        <path
           inkscape:connector-curvature="0"
           id="path4406-2-5"
           d="m 819.84958,484.14938 c -1.62246,0.92446 -3.67647,0.36086 -4.60059,-1.26176 -0.92465,-1.62274 -0.3908,-3.729 1.23201,-4.6532 1.67491,-0.95423 3.75867,-0.33825 4.68288,1.2845 0.92447,1.62246 0.36087,3.67646 -1.3143,4.63046 z"
           style="opacity:1;fill:#ffe60c;fill-opacity:1;fill-rule:nonzero;stroke:none" />
        <path
           inkscape:connector-curvature="0"
           id="path4428-7-7"
           d="m 939.54002,660.19253 c 5.68696,-3.35164 12.99593,-1.51358 16.34789,4.17359 3.35178,5.6869 1.45422,13.03089 -4.23283,16.38274 -5.68687,3.35175 -12.97163,1.41933 -16.3235,-4.2677 -3.3516,-5.68699 -1.47852,-12.93702 4.20844,-16.28863 z"
           style="opacity:1;fill:#ffe60c;fill-opacity:1;fill-rule:nonzero;stroke:none" />
        <path
           inkscape:connector-curvature="0"
           id="path4430-16-6"
           d="m 794.56148,506.42727 c 1.83648,-1.08185 4.22513,-0.41499 5.30732,1.42151 1.08192,1.83661 0.50916,4.24968 -1.32733,5.33187 -1.89575,1.11703 -4.28426,0.44978 -5.36666,-1.38678 -1.08191,-1.83665 -0.50902,-4.24942 1.38667,-5.3666 z"
           style="opacity:1;fill:#ffe60c;fill-opacity:1;fill-rule:nonzero;stroke:none" />
        <path
           inkscape:connector-curvature="0"
           id="path4436-1-0"
           d="m 844.00231,427.80197 c 3.73213,-2.19967 8.59317,-0.99391 10.82765,2.7974 2.23449,3.79143 0.93467,8.62829 -2.79746,10.82779 -3.79146,2.23453 -8.6524,1.02876 -10.88707,-2.76261 -2.2344,-3.79128 -0.93466,-8.62816 2.85688,-10.86258 z"
           style="opacity:1;fill:#ffe60c;fill-opacity:1;fill-rule:nonzero;stroke:none" />
        <path
           inkscape:connector-curvature="0"
           id="path4446-8-1"
           d="m 929.34638,590.21469 c 1.83636,-1.08177 4.28439,-0.44962 5.36674,1.38695 1.08191,1.8366 0.44986,4.28437 -1.3864,5.36642 -1.83681,1.08201 -4.22533,0.41507 -5.30759,-1.42134 -1.08191,-1.83664 -0.50911,-4.24956 1.32725,-5.33203 z"
           style="opacity:1;fill:#ffe60c;fill-opacity:1;fill-rule:nonzero;stroke:none" />
        <path
           inkscape:connector-curvature="0"
           id="path4388-0-1"
           d="m 798.10238,196.68238 c -3.61008,4.51753 -10.1662,5.29359 -14.68446,1.68389 -4.51755,-3.61008 -5.25596,-10.21347 -1.64634,-14.73141 3.61008,-4.51755 10.21336,-5.25606 14.73142,-1.64634 4.51851,3.60893 5.20909,10.1756 1.59938,14.69386 z"
           style="opacity:1;fill:#ffe60c;fill-opacity:1;fill-rule:nonzero;stroke:none" />
        <path
           inkscape:connector-curvature="0"
           id="path4396-9-9"
           d="m 946.94048,354.14578 c -2.3685,2.96552 -6.77127,3.45723 -9.73627,1.08838 -3.01261,-2.40616 -3.50438,-6.80914 -1.13542,-9.77415 2.40594,-3.01234 6.80907,-3.50398 9.82106,-1.09746 2.96535,2.3684 3.45694,6.77118 1.05063,9.78323 z"
           style="opacity:1;fill:#ffe60c;fill-opacity:1;fill-rule:nonzero;stroke:none" />
        <path
           inkscape:connector-curvature="0"
           id="path4406-2-8"
           d="m 801.96591,235.46746 c -1.16531,1.45911 -3.28204,1.6955 -4.74096,0.52994 -1.45936,-1.1655 -1.74269,-3.31979 -0.57703,-4.7788 1.20301,-1.50616 3.36677,-1.70493 4.82579,-0.53927 1.45913,1.1653 1.6955,3.28205 0.4922,4.78813 z"
           style="opacity:1;fill:#ffe60c;fill-opacity:1;fill-rule:nonzero;stroke:none" />
        <path
           inkscape:connector-curvature="0"
           id="path4428-7-8"
           d="m 978.29685,354.73353 c 4.04324,-5.21791 11.51366,-6.21455 16.7319,-2.17114 5.21805,4.04323 6.17225,11.56813 2.12906,16.78625 -4.04323,5.21801 -11.52599,6.11799 -16.74414,2.07468 -5.21797,-4.04332 -6.16014,-11.47188 -2.11682,-16.68979 z"
           style="opacity:1;fill:#ffe60c;fill-opacity:1;fill-rule:nonzero;stroke:none" />
        <path
           inkscape:connector-curvature="0"
           id="path4430-16-0"
           d="m 786.71496,265.52076 c 1.30591,-1.68457 3.77176,-1.9488 5.45664,-0.64303 1.68469,1.30599 2.04538,3.75971 0.73961,5.44459 -1.34793,1.73917 -3.81381,2.00299 -5.49892,0.69724 -1.68467,-1.306 -2.04514,-3.75953 -0.69733,-5.4988 z"
           style="opacity:1;fill:#ffe60c;fill-opacity:1;fill-rule:nonzero;stroke:none" />
        <path
           inkscape:connector-curvature="0"
           id="path4436-1-8"
           d="m 803.55672,174.18242 c 2.65346,-3.42445 7.61558,-4.10274 11.09418,-1.40723 3.47883,2.69561 4.06075,7.6702 1.40731,11.09443 -2.69562,3.47876 -7.65776,4.15706 -11.1366,1.46157 -3.47864,-2.69552 -4.06062,-7.67009 -1.36489,-11.14877 z"
           style="opacity:1;fill:#ffe60c;fill-opacity:1;fill-rule:nonzero;stroke:none" />
        <path
           inkscape:connector-curvature="0"
           id="path4446-8-3"
           d="m 942.93549,293.49318 c 1.30581,-1.68445 3.81397,-2.0029 5.49897,-0.69714 1.68474,1.306 2.00317,3.81392 0.69763,5.49856 -1.30617,1.68481 -3.77189,1.94892 -5.45689,0.64328 -1.68465,-1.306 -2.04525,-3.75961 -0.73971,-5.4447 z"
           style="opacity:1;fill:#ffe60c;fill-opacity:1;fill-rule:nonzero;stroke:none" />
        <path
           inkscape:connector-curvature="0"
           id="path4388-0-9-2"
           d="m 963.35065,190.25321 c -4.64124,-3.4497 -5.64631,-9.97462 -2.19705,-14.6165 3.4497,-4.64118 10.02316,-5.61034 14.66476,-2.16111 4.64115,3.44969 5.61039,10.02305 2.16113,14.66473 -3.44854,4.6421 -9.98698,5.56216 -14.62884,2.11288 z"
           style="opacity:1;fill:#ffe60c;fill-opacity:1;fill-rule:nonzero;stroke:none" />
        <path
           inkscape:connector-curvature="0"
           id="path4390-2-4-7"
           d="m 906.12621,337.9263 c -1.49898,-1.11348 -1.80929,-3.22066 -0.69548,-4.7196 1.14936,-1.54729 3.25671,-1.85785 4.75551,-0.74409 1.5475,1.14946 1.8578,3.25684 0.7079,4.80416 -1.11354,1.49916 -3.22071,1.80927 -4.76793,0.65953 z"
           style="opacity:1;fill:#ffe60c;fill-opacity:1;fill-rule:nonzero;stroke:none" />
        <path
           inkscape:connector-curvature="0"
           id="path4396-9-3-3"
           d="m 811.19502,344.51331 c -3.04668,-2.26321 -3.69224,-6.64606 -1.42858,-9.69221 2.29913,-3.09497 6.68222,-3.74057 9.72843,-1.47695 3.09463,2.29899 3.74008,6.68218 1.44055,9.77665 -2.26308,3.04651 -6.64602,3.69187 -9.7404,1.39251 z"
           style="opacity:1;fill:#ffe60c;fill-opacity:1;fill-rule:nonzero;stroke:none" />
        <path
           inkscape:connector-curvature="0"
           id="path4400-8-3-1"
           d="m 963.79175,268.03211 c -4.64141,-3.44989 -5.56223,-9.98706 -2.11306,-14.62861 3.44863,-4.64223 9.97456,-5.64653 14.61634,-2.19732 4.64123,3.4498 5.61047,10.02317 2.16122,14.66461 -3.44872,4.64234 -10.0229,5.61054 -14.6645,2.16132 z"
           style="opacity:1;fill:#ffe60c;fill-opacity:1;fill-rule:nonzero;stroke:none" />
        <path
           inkscape:connector-curvature="0"
           id="path4406-2-5-2"
           d="m 924.72453,195.47235 c -1.49898,-1.11347 -1.80928,-3.22067 -0.69557,-4.71949 1.11363,-1.49927 3.25671,-1.85785 4.75569,-0.744 1.54741,1.14947 1.82171,3.30501 0.70781,4.80396 -1.11344,1.49904 -3.22061,1.80935 -4.76793,0.65953 z"
           style="opacity:1;fill:#ffe60c;fill-opacity:1;fill-rule:nonzero;stroke:none" />
        <path
           inkscape:connector-curvature="0"
           id="path4428-7-7-7"
           d="m 811.70552,375.87103 c 5.35624,3.85817 6.61389,11.28907 2.75561,16.64569 -3.85802,5.35638 -11.34491,6.57354 -16.70141,2.71541 -5.35637,-3.85805 -6.5178,-11.30469 -2.65967,-16.66119 3.85817,-5.35628 11.24917,-6.55807 16.60547,-2.69991 z"
           style="opacity:1;fill:#ffe60c;fill-opacity:1;fill-rule:nonzero;stroke:none" />
        <path
           inkscape:connector-curvature="0"
           id="path4430-16-6-9"
           d="m 894.15576,181.28303 c 1.72923,1.24611 2.07965,3.70121 0.83361,5.43078 -1.24613,1.72937 -3.68576,2.17576 -5.41534,0.92978 -1.78534,-1.2862 -2.13523,-3.74134 -0.88937,-5.47112 1.24631,-1.72937 3.68567,-2.17553 5.4711,-0.88944 z"
           style="opacity:1;fill:#ffe60c;fill-opacity:1;fill-rule:nonzero;stroke:none" />
        <path
           inkscape:connector-curvature="0"
           id="path4436-1-0-1"
           d="m 986.02772,194.9164 c 3.51529,2.53192 4.36694,7.46728 1.79481,11.03816 -2.57213,3.57101 -7.52331,4.32679 -11.03833,1.79485 -3.57103,-2.57215 -4.42269,-7.50751 -1.85065,-11.0786 2.57204,-3.57088 7.52323,-4.32668 11.09417,-1.75441 z"
           style="opacity:1;fill:#ffe60c;fill-opacity:1;fill-rule:nonzero;stroke:none" />
        <path
           inkscape:connector-curvature="0"
           id="path4446-8-1-5"
           d="m 871.67024,338.38715 c 1.72914,1.24602 2.13514,3.74149 0.88919,5.47125 -1.24613,1.72937 -3.74142,2.1354 -5.47074,0.88962 -1.72959,-1.2463 -2.07983,-3.70131 -0.83397,-5.43096 1.24622,-1.72938 3.68567,-2.17565 5.41552,-0.92991 z"
           style="opacity:1;fill:#ffe60c;fill-opacity:1;fill-rule:nonzero;stroke:none" />
        <path
           inkscape:connector-curvature="0"
           id="path4388-0-1-6"
           d="m 833.53402,280.68647 c -5.72414,-0.82156 -9.71679,-6.07928 -8.89594,-11.80387 0.82155,-5.72416 6.13913,-9.70835 11.86332,-8.88734 5.72415,0.82157 9.70838,6.13894 8.88743,11.86333 -0.82009,5.72444 -6.13022,9.64874 -11.85481,8.82788 z"
           style="opacity:1;fill:#ffe60c;fill-opacity:1;fill-rule:nonzero;stroke:none" />
        <path
           inkscape:connector-curvature="0"
           id="path4406-2-8-0"
           d="m 802.06121,303.67932 c -1.84848,-0.26474 -3.12535,-1.96946 -2.86029,-3.81789 0.26479,-1.84879 1.97807,-3.18515 3.82665,-2.92006 1.90813,0.27338 3.17642,2.0377 2.91132,3.88628 -0.26473,1.8485 -1.96946,3.12534 -3.87768,2.85167 z"
           style="opacity:1;fill:#ffe60c;fill-opacity:1;fill-rule:nonzero;stroke:none" />
        <path
           inkscape:connector-curvature="0"
           id="path4430-16-0-1"
           d="m 768.42457,305.76942 c 2.11408,0.27164 3.59195,2.26317 3.32058,4.37745 -0.27165,2.11424 -2.2038,3.66909 -4.31811,3.39774 -2.18245,-0.28019 -3.65997,-2.27195 -3.38874,-4.38643 0.27166,-2.11421 2.20378,-3.66879 4.38627,-3.38876 z"
           style="opacity:1;fill:#ffe60c;fill-opacity:1;fill-rule:nonzero;stroke:none" />
        <path
           inkscape:connector-curvature="0"
           id="path4436-1-8-6"
           d="m 855.69336,273.98134 c 4.29696,0.55111 7.3973,4.48438 6.83734,8.84938 -0.55984,4.36517 -4.55276,7.3887 -8.84954,6.83748 -4.36517,-0.55993 -7.46546,-4.49327 -6.90567,-8.85844 0.55992,-4.36502 4.55278,-7.38856 8.91787,-6.82842 z"
           style="opacity:1;fill:#ffe60c;fill-opacity:1;fill-rule:nonzero;stroke:none" />
        <path
           inkscape:connector-curvature="0"
           id="path4388-0-9-2-9"
           d="m 922.85058,419.86577 c 0.6206,-5.74948 5.73533,-9.92372 11.48513,-9.30384 5.74943,0.62063 9.91732,5.79541 9.2973,11.54495 -0.62063,5.7494 -5.79527,9.91729 -11.54489,9.29731 -5.74963,-0.61915 -9.85744,-5.78864 -9.23754,-11.53842 z"
           style="opacity:1;fill:#ffe60c;fill-opacity:1;fill-rule:nonzero;stroke:none" />
        <path
           inkscape:connector-curvature="0"
           id="path4400-8-3-1-8"
           d="m 856.03132,459.67703 c 0.62067,-5.74971 5.78867,-9.85753 11.53814,-9.23756 5.74979,0.61917 9.92387,5.73515 9.30397,11.48485 -0.62068,5.74951 -5.79535,9.91743 -11.54474,9.2973 -5.74993,-0.61917 -9.91735,-5.79508 -9.29737,-11.54459 z"
           style="opacity:1;fill:#ffe60c;fill-opacity:1;fill-rule:nonzero;stroke:none" />
        <path
           inkscape:connector-curvature="0"
           id="path4406-2-5-2-1"
           d="m 898.76983,389.21721 c 0.19985,-1.85656 1.85888,-3.19231 3.71542,-2.99217 1.85689,0.19984 3.25244,1.86531 3.05226,3.72206 -0.20632,1.91657 -1.92527,3.24578 -3.78202,3.04556 -1.8566,-0.19979 -3.19233,-1.8588 -2.98566,-3.77545 z"
           style="opacity:1;fill:#ffe60c;fill-opacity:1;fill-rule:nonzero;stroke:none" />
        <path
           inkscape:connector-curvature="0"
           id="path4430-16-6-9-1"
           d="m 891.06029,278.23887 c -0.19745,2.12227 -2.13602,3.66897 -4.25854,3.47175 -2.1224,-0.19739 -3.74399,-2.07397 -3.54682,-4.19648 0.20356,-2.19096 2.14243,-3.73722 4.26504,-3.54026 2.1225,0.19754 3.74374,2.074 3.54032,4.26499 z"
           style="opacity:1;fill:#ffe60c;fill-opacity:1;fill-rule:nonzero;stroke:none" />
        <path
           inkscape:connector-curvature="0"
           id="path4436-1-0-1-7"
           d="m 930.32751,441.77672 c -0.40031,4.31366 -4.22268,7.5498 -8.60463,7.14302 -4.38207,-0.40672 -7.54359,-4.29133 -7.14313,-8.60476 0.40672,-4.38211 4.22909,-7.61825 8.61118,-7.21166 4.38192,0.40672 7.54345,4.29132 7.13658,8.6734 z"
           style="opacity:1;fill:#ffe60c;fill-opacity:1;fill-rule:nonzero;stroke:none" />
      </g>
      <g
         style="fill:#007dff;fill-opacity:1"
         id="g5451"
         transform="translate(8,0)">
        <path
           inkscape:connector-curvature="0"
           id="path4398-1"
           d="m 820.90843,594.92475 c 0.895,1.70724 0.2064,3.76839 -1.4476,4.63514 -1.654,0.86713 -3.74017,0.25966 -4.6349,-1.44773 -0.86711,-1.65398 -0.1786,-3.71471 1.47557,-4.58154 1.65382,-0.86706 3.74017,-0.25985 4.60693,1.39413 z"
           style="opacity:1;fill:#007dff;fill-opacity:1;fill-rule:nonzero;stroke:none" />
        <path
           inkscape:connector-curvature="0"
           id="path4402-0"
           d="m 971.80452,483.97989 c 2.68372,5.12258 0.70316,11.46498 -4.41895,14.14921 -5.12264,2.68363 -11.41189,0.67563 -14.09606,-4.44681 -2.68489,-5.12165 -0.75651,-11.4369 4.36578,-14.12122 5.12255,-2.68362 11.46514,-0.70316 14.14923,4.41882 z"
           style="opacity:1;fill:#007dff;fill-opacity:1;fill-rule:nonzero;stroke:none" />
        <path
           inkscape:connector-curvature="0"
           id="path4404-2"
           d="m 862.74248,504.27108 c 1.79007,3.41466 0.49436,7.56196 -2.92059,9.35144 -3.41459,1.79 -7.56191,0.4943 -9.35136,-2.92062 -1.79008,-3.41464 -0.49436,-7.56197 2.92049,-9.35143 3.41477,-1.79 7.56219,-0.49417 9.35146,2.92061 z"
           style="opacity:1;fill:#007dff;fill-opacity:1;fill-rule:nonzero;stroke:none" />
        <path
           inkscape:connector-curvature="0"
           id="path4438-9"
           d="m 951.6205,514.84086 c -1.01695,-1.87339 -0.26688,-4.23708 1.60647,-5.25449 1.87343,-1.01696 4.20424,-0.32719 5.22163,1.54613 1.01696,1.87339 0.35998,4.26477 -1.51318,5.28212 -1.87335,1.0169 -4.29761,0.29942 -5.31492,-1.57376 z"
           style="opacity:1;fill:#007dff;fill-opacity:1;fill-rule:nonzero;stroke:none" />
        <path
           inkscape:connector-curvature="0"
           id="path4442-6"
           d="m 754.99709,661.47756 c -3.15052,-5.80096 -0.9971,-13.07394 4.80374,-16.2244 5.80104,-3.15073 13.07401,-0.9973 16.22468,4.8036 3.15047,5.80084 0.99698,13.07401 -4.80387,16.22447 -5.80084,3.15046 -13.07408,0.99718 -16.22455,-4.80367 z"
           style="opacity:1;fill:#007dff;fill-opacity:1;fill-rule:nonzero;stroke:none" />
        <path
           inkscape:connector-curvature="0"
           id="path4444-4"
           d="m 879.13406,636.46849 c -2.1002,-3.86727 -0.63187,-8.65561 3.17495,-10.7233 3.86732,-2.10021 8.68332,-0.7251 10.78352,3.14216 2.10046,3.86735 0.63195,8.65563 -3.23518,10.75598 -3.80692,2.06746 -8.62292,0.69236 -10.72329,-3.17484 z"
           style="opacity:1;fill:#007dff;fill-opacity:1;fill-rule:nonzero;stroke:none" />
        <path
           inkscape:connector-curvature="0"
           id="path4448-2"
           d="m 888.5677,562.48867 c -1.01702,-1.87352 -0.3598,-4.26483 1.51319,-5.28213 1.93375,-1.04998 4.2977,-0.29962 5.31501,1.57357 1.01695,1.87325 0.3271,4.20406 -1.60656,5.25417 -1.87343,1.01702 -4.20442,0.32732 -5.22164,-1.54561 z"
           style="opacity:1;fill:#007dff;fill-opacity:1;fill-rule:nonzero;stroke:none" />
        <path
           inkscape:connector-curvature="0"
           id="path4398-1-5"
           d="m 842.79398,466.63947 c -1.6749,0.95425 -3.75884,0.33819 -4.68296,-1.28443 -0.92448,-1.62259 -0.39045,-3.72879 1.28464,-4.68273 1.62254,-0.9245 3.70603,-0.30859 4.63033,1.31416 0.92439,1.62246 0.39063,3.72885 -1.23201,4.653 z"
           style="opacity:1;fill:#007dff;fill-opacity:1;fill-rule:nonzero;stroke:none" />
        <path
           inkscape:connector-curvature="0"
           id="path4402-0-8"
           d="m 981.92718,620.49221 c -5.02543,2.86135 -11.43333,1.10411 -14.29522,-3.92088 -2.86135,-5.02548 -1.07476,-11.38118 3.9505,-14.24315 5.02453,-2.86251 11.40349,-1.1564 14.26546,3.86872 2.86126,5.02548 1.10416,11.43347 -3.92074,14.29531 z"
           style="opacity:1;fill:#007dff;fill-opacity:1;fill-rule:nonzero;stroke:none" />
        <path
           inkscape:connector-curvature="0"
           id="path4404-2-6"
           d="m 938.08205,543.70309 c -3.3499,1.90847 -7.54002,0.75877 -9.44795,-2.59139 -1.90846,-3.3499 -0.75873,-7.54003 2.59134,-9.44797 3.34991,-1.90847 7.54003,-0.75877 9.44804,2.59139 1.90846,3.34989 0.75865,7.54011 -2.59143,9.44797 z"
           style="opacity:1;fill:#007dff;fill-opacity:1;fill-rule:nonzero;stroke:none" />
        <path
           inkscape:connector-curvature="0"
           id="path4438-9-8"
           d="m 930.63066,640.89659 c 1.83671,-1.08193 4.22515,-0.41501 5.3075,1.42154 1.082,1.83664 0.47426,4.19016 -1.36228,5.27257 -1.83671,1.08192 -4.24954,0.50909 -5.33189,-1.32733 -1.08191,-1.83651 -0.44978,-4.28447 1.38667,-5.36678 z"
           style="opacity:1;fill:#007dff;fill-opacity:1;fill-rule:nonzero;stroke:none" />
        <path
           inkscape:connector-curvature="0"
           id="path4442-6-2"
           d="m 791.92678,416.56315 c 5.68709,-3.35168 13.03101,-1.45424 16.38263,4.23272 3.35193,5.68717 1.45447,13.03109 -4.23256,16.38293 -5.68698,3.35163 -13.03108,1.45412 -16.38274,-4.23286 -3.35163,-5.68697 -1.45431,-13.03117 4.23267,-16.38279 z"
           style="opacity:1;fill:#007dff;fill-opacity:1;fill-rule:nonzero;stroke:none" />
        <path
           inkscape:connector-curvature="0"
           id="path4444-4-3"
           d="m 814.53475,572.43311 c 3.79137,-2.23432 8.62819,-0.93459 10.82792,2.79759 2.23431,3.79135 1.02865,8.65259 -2.76271,10.88691 -3.79146,2.23453 -8.62828,0.93461 -10.86263,-2.85669 -2.19955,-3.7321 -0.9939,-8.59335 2.79742,-10.82781 z"
           style="opacity:1;fill:#007dff;fill-opacity:1;fill-rule:nonzero;stroke:none" />
        <path
           inkscape:connector-curvature="0"
           id="path4448-2-2"
           d="m 872.81335,497.28204 c 1.83681,-1.08199 4.24963,-0.50896 5.33181,1.32733 1.11711,1.89575 0.44995,4.28452 -1.3864,5.36685 -1.83654,1.08184 -4.19013,0.4741 -5.30724,-1.42157 -1.08199,-1.83677 -0.47434,-4.19042 1.36183,-5.27261 z"
           style="opacity:1;fill:#007dff;fill-opacity:1;fill-rule:nonzero;stroke:none" />
        <path
           inkscape:connector-curvature="0"
           id="path4398-1-52"
           d="m 838.38263,242.5691 c -1.20306,1.50619 -3.36705,1.70493 -4.82592,0.53938 -1.45922,-1.16539 -1.74236,-3.31971 -0.53921,-4.82568 1.16545,-1.45924 3.329,-1.65795 4.78804,-0.49229 1.45913,1.16529 1.74254,3.31969 0.57709,4.77859 z"
           style="opacity:1;fill:#007dff;fill-opacity:1;fill-rule:nonzero;stroke:none" />
        <path
           inkscape:connector-curvature="0"
           id="path4402-0-4"
           d="m 993.3341,339.30241 c -3.61026,4.51766 -10.21347,5.25594 -14.73159,1.64645 -4.51767,-3.61019 -5.2094,-10.17588 -1.59959,-14.69405 3.60883,-4.51841 10.1663,-5.2935 14.68451,-1.6839 4.51767,3.61019 5.25604,10.21358 1.64667,14.7315 z"
           style="opacity:1;fill:#007dff;fill-opacity:1;fill-rule:nonzero;stroke:none" />
        <path
           inkscape:connector-curvature="0"
           id="path4404-2-8"
           d="m 930.88253,247.61781 c -2.40612,3.01248 -6.72428,3.49467 -9.73636,1.08816 -3.01244,-2.40605 -3.49464,-6.72421 -1.08807,-9.73627 2.40603,-3.01247 6.72419,-3.49467 9.73627,-1.08815 3.01243,2.40605 3.49455,6.72431 1.08816,9.73626 z"
           style="opacity:1;fill:#007dff;fill-opacity:1;fill-rule:nonzero;stroke:none" />
        <path
           inkscape:connector-curvature="0"
           id="path4438-9-0"
           d="m 956.96061,333.2387 c 1.3059,-1.68468 3.77171,-1.9488 5.4568,-0.64305 1.68474,1.30599 1.99084,3.71735 0.68512,5.40245 -1.30599,1.68468 -3.75965,2.04526 -5.44465,0.73961 -1.68456,-1.3059 -2.0029,-3.81403 -0.69727,-5.49901 z"
           style="opacity:1;fill:#007dff;fill-opacity:1;fill-rule:nonzero;stroke:none" />
        <path
           inkscape:connector-curvature="0"
           id="path4442-6-8"
           d="m 750.93713,201.00017 c 4.04343,-5.21804 11.56823,-6.17241 16.78614,-2.12908 5.21823,4.04341 6.1726,11.56821 2.1293,16.78633 -4.04333,5.21792 -11.56834,6.17232 -16.78626,2.12898 -5.21791,-4.04333 -6.17252,-11.56833 -2.12918,-16.78623 z"
           style="opacity:1;fill:#007dff;fill-opacity:1;fill-rule:nonzero;stroke:none" />
        <path
           inkscape:connector-curvature="0"
           id="path4444-4-5"
           d="m 823.77255,312.58805 c 2.69561,-3.47856 7.67003,-4.06061 11.09453,-1.40717 3.47856,2.69563 4.15707,7.65796 1.46146,11.1365 -2.6957,3.47877 -7.67012,4.06063 -11.14877,1.36511 -3.42423,-2.65347 -4.10283,-7.6158 -1.40722,-11.09444 z"
           style="opacity:1;fill:#007dff;fill-opacity:1;fill-rule:nonzero;stroke:none" />
        <path
           inkscape:connector-curvature="0"
           id="path4448-2-1"
           d="m 853.07027,220.63981 c 1.30599,-1.68481 3.75965,-2.04517 5.44456,-0.73962 1.73914,1.34794 2.00317,3.81402 0.69753,5.49898 -1.3059,1.68458 -3.71729,1.99076 -5.45653,0.64293 -1.68482,-1.30609 -1.99111,-3.71755 -0.68556,-5.40229 z"
           style="opacity:1;fill:#007dff;fill-opacity:1;fill-rule:nonzero;stroke:none" />
        <path
           inkscape:connector-curvature="0"
           id="path4398-1-5-7"
           d="m 926.89746,239.83525 c -1.54741,-1.14947 -1.82188,-3.3052 -0.70808,-4.80404 1.11363,-1.49916 3.25671,-1.85751 4.80385,-0.70777 1.49925,1.11359 1.77346,3.26888 0.65965,4.76785 -1.11344,1.49904 -3.25662,1.85773 -4.75542,0.74396 z"
           style="opacity:1;fill:#007dff;fill-opacity:1;fill-rule:nonzero;stroke:none" />
        <path
           inkscape:connector-curvature="0"
           id="path4402-0-8-2"
           d="m 835.64869,398.07864 c -4.64123,-3.44979 -5.6103,-10.02319 -2.16113,-14.66483 3.44979,-4.64129 9.98716,-5.56251 14.62902,-2.11312 4.64195,3.44841 5.64622,9.97474 2.19696,14.6165 -3.44979,4.64131 -10.02325,5.61046 -14.66485,2.16145 z"
           style="opacity:1;fill:#007dff;fill-opacity:1;fill-rule:nonzero;stroke:none" />
        <path
           inkscape:connector-curvature="0"
           id="path4404-2-6-4"
           d="m 925.0905,332.4552 c -3.09491,-2.29909 -3.72793,-6.59774 -1.4284,-9.69222 2.29918,-3.09485 6.59768,-3.72796 9.69222,-1.42837 3.09491,2.29909 3.72793,6.59773 1.4284,9.69221 -2.29909,3.09485 -6.59786,3.72786 -9.69222,1.42838 z"
           style="opacity:1;fill:#007dff;fill-opacity:1;fill-rule:nonzero;stroke:none" />
        <path
           inkscape:connector-curvature="0"
           id="path4438-9-8-1"
           d="m 840.43512,361.51515 c 1.72941,1.24622 2.07974,3.70121 0.83379,5.43099 -1.24622,1.72938 -3.64537,2.11979 -5.37514,0.87384 -1.7294,-1.2462 -2.17569,-3.6857 -0.92983,-5.41536 1.24612,-1.72926 3.74159,-2.13532 5.47118,-0.88947 z"
           style="opacity:1;fill:#007dff;fill-opacity:1;fill-rule:nonzero;stroke:none" />
        <path
           inkscape:connector-curvature="0"
           id="path4442-6-2-6"
           d="m 957.38403,143.26807 c 5.35637,3.85825 6.57373,11.34502 2.71553,16.70127 -3.85819,5.35663 -11.34506,6.57389 -16.70152,2.71577 -5.3562,-3.85817 -6.57355,-11.34514 -2.71536,-16.70143 3.85811,-5.35628 11.34515,-6.57378 16.70135,-2.71561 z"
           style="opacity:1;fill:#007dff;fill-opacity:1;fill-rule:nonzero;stroke:none" />
        <path
           inkscape:connector-curvature="0"
           id="path4444-4-3-5"
           d="m 856.4098,227.68571 c 3.57086,2.57219 4.32674,7.52322 1.79481,11.03849 -2.57222,3.57077 -7.50777,4.42265 -11.07853,1.85048 -3.57095,-2.57216 -4.32665,-7.52322 -1.75461,-11.09412 2.53193,-3.51504 7.46748,-4.36691 11.03833,-1.79485 z"
           style="opacity:1;fill:#007dff;fill-opacity:1;fill-rule:nonzero;stroke:none" />
        <path
           inkscape:connector-curvature="0"
           id="path4448-2-2-4"
           d="m 941.33242,254.02613 c 1.7295,1.24632 2.17561,3.68583 0.92984,5.41538 -1.28625,1.78529 -3.74151,2.13552 -5.47128,0.88967 -1.72923,-1.24612 -2.11959,-3.6453 -0.83352,-5.43069 1.24631,-1.72949 3.64555,-2.12002 5.37496,-0.87436 z"
           style="opacity:1;fill:#007dff;fill-opacity:1;fill-rule:nonzero;stroke:none" />
        <path
           inkscape:connector-curvature="0"
           id="path4398-1-52-7"
           d="m 883.7282,319.66266 c 0.51404,-1.85788 2.42565,-2.89137 4.22528,-2.39322 1.79988,0.49787 2.90718,2.36741 2.39297,4.22512 -0.49792,1.79993 -2.40914,2.83322 -4.20896,2.33503 -1.79976,-0.49781 -2.90734,-2.36731 -2.40929,-4.16693 z"
           style="opacity:1;fill:#007dff;fill-opacity:1;fill-rule:nonzero;stroke:none" />
        <path
           inkscape:connector-curvature="0"
           id="path4404-2-8-8"
           d="m 801.7695,466.90472 c 1.02802,-3.71584 4.80894,-5.85687 8.52451,-4.82828 3.71585,1.02796 5.85687,4.80884 4.82822,8.5245 -1.02794,3.7158 -4.80885,5.85684 -8.52451,4.82828 -3.71576,-1.02801 -5.85673,-4.80902 -4.82822,-8.5245 z"
           style="opacity:1;fill:#007dff;fill-opacity:1;fill-rule:nonzero;stroke:none" />
        <path
           inkscape:connector-curvature="0"
           id="path4442-6-8-2"
           d="m 985.55263,439.02452 c -1.66641,6.38752 -8.2101,10.22335 -14.59745,8.55698 -6.38768,-1.66632 -10.22352,-8.21 -8.55726,-14.59754 1.66637,-6.38736 8.21024,-10.22331 14.5976,-8.55693 6.38736,1.66637 10.22349,8.21014 8.55711,14.59749 z"
           style="opacity:1;fill:#007dff;fill-opacity:1;fill-rule:nonzero;stroke:none" />
        <path
           inkscape:connector-curvature="0"
           id="path4448-2-1-3"
           d="m 875.67099,406.53339 c -0.53846,2.06259 -2.65287,3.35857 -4.71538,2.82055 -2.12903,-0.55567 -3.34132,-2.71938 -2.80324,-4.78196 0.53847,-2.06234 2.63531,-3.29188 4.76439,-2.73635 2.06264,0.53855 3.29231,2.63541 2.75423,4.69776 z"
           style="opacity:1;fill:#007dff;fill-opacity:1;fill-rule:nonzero;stroke:none" />
        <path
           inkscape:connector-curvature="0"
           id="path4398-1-5-7-3"
           d="m 868.15684,297.94649 c 1.87471,0.44857 2.97452,2.32284 2.53966,4.13887 -0.43455,1.81624 -2.2642,2.98828 -4.13873,2.53935 -1.81637,-0.43448 -2.91583,-2.30842 -2.48102,-4.12457 0.4345,-1.8161 2.26411,-2.98849 4.08009,-2.55365 z"
           style="opacity:1;fill:#007dff;fill-opacity:1;fill-rule:nonzero;stroke:none" />
        <path
           inkscape:connector-curvature="0"
           id="path4442-6-2-6-1"
           d="m 751.14613,542.80438 c -6.44193,-1.44175 -10.50457,-7.84709 -9.06281,-14.28887 1.44152,-6.44208 7.847,-10.50474 14.28898,-9.06315 6.44171,1.44176 10.50443,7.84729 9.06269,14.2891 -1.44166,6.44176 -7.84714,10.50468 -14.28886,9.06292 z"
           style="opacity:1;fill:#007dff;fill-opacity:1;fill-rule:nonzero;stroke:none" />
        <path
           inkscape:connector-curvature="0"
           id="path4444-4-3-5-6"
           d="m 900.29678,419.13985 c -4.29457,-0.96121 -6.93604,-5.21641 -5.98999,-9.44403 0.96128,-4.29449 5.1645,-7.01815 9.45896,-6.0569 4.29463,0.96115 6.93595,5.21644 5.97488,9.51098 -0.94614,4.22741 -5.14935,6.95105 -9.44385,5.98995 z"
           style="opacity:1;fill:#007dff;fill-opacity:1;fill-rule:nonzero;stroke:none" />
        <path
           inkscape:connector-curvature="0"
           id="path4448-2-2-4-3"
           d="m 904.5256,272.16648 c -2.08022,-0.46602 -3.44947,-2.53372 -2.98394,-4.61378 0.48076,-2.14719 2.60066,-3.4345 4.68088,-2.96899 2.07995,0.46592 3.38204,2.51847 2.9015,4.66568 -0.4661,2.08024 -2.51857,3.38255 -4.59844,2.91709 z"
           style="opacity:1;fill:#007dff;fill-opacity:1;fill-rule:nonzero;stroke:none" />
      </g>
    </g>
    <rect
       style="opacity:1;fill:#ffffff;fill-opacity:0.61445785;stroke:none;stroke-width:3;stroke-linecap:round;stroke-linejoin:miter;stroke-miterlimit:4;stroke-dasharray:none;stroke-dashoffset:0;stroke-opacity:1"
       id="rect4941-1-4-5"
       width="354.33072"
       height="765.35431"
       x="708.66144"
       y="-10.6299" />
    <text
       xml:space="preserve"
       style="font-style:normal;font-variant:normal;font-weight:normal;font-stretch:normal;font-size:15.625px;line-height:189.99999762%;font-family:Meiryo;-inkscape-font-specification:'Meiryo, Normal';text-align:center;letter-spacing:0px;word-spacing:0px;writing-mode:lr-tb;text-anchor:middle;opacity:1;fill:#000000;fill-opacity:1;stroke:none;stroke-width:1px;stroke-linecap:butt;stroke-linejoin:miter;stroke-opacity:1"
       x="880.01501"
       y="158.04343"
       id="text4989"
       sodipodi:linespacing="190%"><tspan
         sodipodi:role="line"
         x="880.01501"
         y="158.04343"
         id="tspan4993">「ニコニコ保育園」という園名に</tspan><tspan
         sodipodi:role="line"
         x="880.01501"
         y="187.73093"
         id="tspan5247">どのような印象を抱かれましたか？</tspan><tspan
         sodipodi:role="line"
         x="880.01501"
         y="217.41843"
         id="tspan4995">「常に笑顔が絶えないような」...</tspan><tspan
         sodipodi:role="line"
         x="880.01501"
         y="247.10593"
         id="tspan5102">そのようなイメージを思い浮かべる方が</tspan><tspan
         sodipodi:role="line"
         x="880.01501"
         y="276.79343"
         id="tspan5253">多いのかなと思います。</tspan><tspan
         sodipodi:role="line"
         x="880.01501"
         y="306.48093"
         id="tspan5365" /><tspan
         sodipodi:role="line"
         x="880.01501"
         y="336.16843"
         id="tspan5263">しかし、当園はこの園名に</tspan><tspan
         sodipodi:role="line"
         x="880.01501"
         y="365.85593"
         id="tspan5322">「笑顔のこぼれやすい空間であるように」</tspan><tspan
         sodipodi:role="line"
         x="880.01501"
         y="395.54343"
         id="tspan5324">という願いを込めています。</tspan><tspan
         sodipodi:role="line"
         x="880.01501"
         y="425.23093"
         id="tspan5049">「笑顔とは&quot;絶えない&quot;ことに</tspan><tspan
         sodipodi:role="line"
         x="880.01501"
         y="454.91843"
         id="tspan5053">価値があるのではなく、</tspan><tspan
         sodipodi:role="line"
         x="880.01501"
         y="484.60593"
         id="tspan5295">自然な時間のなかに</tspan><tspan
         sodipodi:role="line"
         x="880.01501"
         y="514.2934"
         id="tspan5306">&quot;こぼれる&quot;ように表れる」</tspan><tspan
         sodipodi:role="line"
         x="880.01501"
         y="543.9809"
         id="tspan5267">そのような考えがあるからです。</tspan><tspan
         sodipodi:role="line"
         x="880.01501"
         y="573.6684"
         id="tspan5289" /><tspan
         sodipodi:role="line"
         x="880.01501"
         y="603.3559"
         id="tspan5084">園児一人一人にとっての</tspan><tspan
         sodipodi:role="line"
         x="880.01501"
         y="633.0434"
         id="tspan5086">「おうちの次に居心地の良い場所」</tspan><tspan
         sodipodi:role="line"
         x="880.01501"
         y="662.7309"
         id="tspan5090">になることが当園の目標です。</tspan></text>
    <text
       xml:space="preserve"
       style="font-style:normal;font-variant:normal;font-weight:normal;font-stretch:normal;font-size:22.41499901px;line-height:125%;font-family:Meiryo;-inkscape-font-specification:'Meiryo, Normal';text-align:start;letter-spacing:0px;word-spacing:0px;writing-mode:lr-tb;text-anchor:start;display:inline;fill:#000000;fill-opacity:1;stroke:none;stroke-width:1px;stroke-linecap:butt;stroke-linejoin:miter;stroke-opacity:1"
       x="487.44791"
       y="82.017883"
       id="text4903"
       sodipodi:linespacing="125%"><tspan
         sodipodi:role="line"
         id="tspan4905"
         x="487.44791"
         y="82.017883">利用規約</tspan><tspan
         sodipodi:role="line"
         x="487.44791"
         y="110.03663"
         id="tspan4907" /><tspan
         sodipodi:role="line"
         x="487.44791"
         y="138.05537"
         id="tspan4909" /></text>
    <text
       xml:space="preserve"
       style="font-style:normal;font-variant:normal;font-weight:normal;font-stretch:normal;font-size:22.41503906px;line-height:125%;font-family:'メイリオ';-inkscape-font-specification:'メイリオ, Normal';text-align:start;letter-spacing:0px;word-spacing:0px;writing-mode:lr-tb;text-anchor:start;display:inline;opacity:1;fill:#000000;fill-opacity:1;stroke:none;stroke-width:1px;stroke-linecap:butt;stroke-linejoin:miter;stroke-opacity:1"
       x="835.58325"
       y="82.564774"
       id="text5791"
       sodipodi:linespacing="125%"><tspan
         sodipodi:role="line"
         id="tspan5793"
         x="835.58325"
         y="82.564774">あいさつ</tspan></text>
    <g
       style="display:inline"
       id="g4395"
       transform="matrix(0.74966812,0,0,0.74966812,5.1336905,38.79312)">
      <circle
         r="22.552542"
         cy="319.43747"
         cx="400.59793"
         id="path4257-53"
         style="opacity:0.85;fill:#ffc30c;fill-opacity:1;stroke:none;stroke-width:14.03800011;stroke-linejoin:round;stroke-miterlimit:4;stroke-dasharray:none;stroke-opacity:1" />
      <circle
         r="18.158049"
         cy="200.05057"
         cx="295.54288"
         id="path4257-5-6"
         style="opacity:0.85;fill:#ffc30c;fill-opacity:1;stroke:none;stroke-width:14.03800011;stroke-linejoin:round;stroke-miterlimit:4;stroke-dasharray:none;stroke-opacity:1" />
      <circle
         r="13.031139"
         cy="366.42191"
         cx="146.13014"
         id="path4257-5-5-0"
         style="opacity:0.85;fill:#ffc30c;fill-opacity:1;stroke:none;stroke-width:14.03800011;stroke-linejoin:round;stroke-miterlimit:4;stroke-dasharray:none;stroke-opacity:1" />
      <circle
         r="8.6366463"
         cy="432.34717"
         cx="329.35059"
         id="path4257-5-5-6-8"
         style="opacity:0.85;fill:#ffc30c;fill-opacity:1;stroke:none;stroke-width:14.03800011;stroke-linejoin:round;stroke-miterlimit:4;stroke-dasharray:none;stroke-opacity:1" />
      <circle
         r="4.2421536"
         cy="307.71561"
         cx="64.832024"
         id="path4257-5-5-6-0-1"
         style="opacity:0.85;fill:#ffc30c;fill-opacity:1;stroke:none;stroke-width:14.03800011;stroke-linejoin:round;stroke-miterlimit:4;stroke-dasharray:none;stroke-opacity:1" />
      <text
         xml:space="preserve"
         style="font-style:normal;font-variant:normal;font-weight:900;font-stretch:normal;font-size:53.74999237px;line-height:129.99999523%;font-family:'Rounded-X M+ 1c';-inkscape-font-specification:'Rounded-X M+ 1c, Heavy';text-align:center;letter-spacing:0px;word-spacing:0px;writing-mode:lr-tb;text-anchor:middle;opacity:0.85;fill:#303379;fill-opacity:1;stroke:none;stroke-width:1px;stroke-linecap:butt;stroke-linejoin:miter;stroke-opacity:1"
         x="228.28615"
         y="270.80197"
         id="text8483-8"
         sodipodi:linespacing="130%"><tspan
           sodipodi:role="line"
           x="228.28615"
           y="270.80197"
           id="tspan8144-3"
           style="font-style:normal;font-variant:normal;font-weight:900;font-stretch:normal;font-size:53.74999237px;line-height:129.99999523%;font-family:'Rounded-X M+ 1c';-inkscape-font-specification:'Rounded-X M+ 1c, Heavy';text-align:center;writing-mode:lr-tb;text-anchor:middle;fill:#003586;fill-opacity:1">ニコニコ保育園</tspan><tspan
           id="tspan4235-0"
           sodipodi:role="line"
           x="228.28615"
           y="340.67697"
           style="font-style:normal;font-variant:normal;font-weight:900;font-stretch:normal;font-size:53.74999237px;line-height:129.99999523%;font-family:'Rounded-X M+ 1c';-inkscape-font-specification:'Rounded-X M+ 1c, Heavy';text-align:center;writing-mode:lr-tb;text-anchor:middle;fill:#003586;fill-opacity:1">和泉中央園</tspan></text>
      <text
         sodipodi:linespacing="125%"
         id="text4251-0"
         y="401.48026"
         x="27.302969"
         style="font-style:normal;font-variant:normal;font-weight:900;font-stretch:normal;font-size:24.03325844px;line-height:125%;font-family:'Rounded-X M+ 1c';-inkscape-font-specification:'Rounded-X M+ 1c, Heavy';text-align:start;letter-spacing:0px;word-spacing:0px;writing-mode:lr-tb;text-anchor:start;opacity:0.85;fill:#5d9a1f;fill-opacity:1;stroke:none;stroke-width:1px;stroke-linecap:butt;stroke-linejoin:miter;stroke-opacity:1"
         xml:space="preserve"><tspan
           style="font-style:normal;font-variant:normal;font-weight:900;font-stretch:normal;font-size:24.03325844px;line-height:125%;font-family:'Rounded-X M+ 1c';-inkscape-font-specification:'Rounded-X M+ 1c, Heavy';text-align:start;writing-mode:lr-tb;text-anchor:start;fill:#5d9a1f;fill-opacity:1"
           y="401.48026"
           x="27.302969"
           id="tspan4253-1"
           sodipodi:role="line">すこやか、うららか、のびのびほいく</tspan></text>
    </g>
    <text
       xml:space="preserve"
       style="font-style:normal;font-variant:normal;font-weight:normal;font-stretch:normal;font-size:9.92108536px;line-height:200%;font-family:Meiryo;-inkscape-font-specification:'Meiryo, Normal';text-align:center;letter-spacing:0px;word-spacing:0px;writing-mode:lr-tb;text-anchor:middle;display:inline;opacity:1;fill:#000000;fill-opacity:0.81388017;stroke:none;stroke-width:1px;stroke-linecap:butt;stroke-linejoin:miter;stroke-opacity:1"
       x="880.66064"
       y="141.00453"
       id="text5795-0"
       sodipodi:linespacing="200%"><tspan
         id="tspan4817"
         sodipodi:role="line"
         x="880.66064"
         y="141.00453" /></text>
    <text
       sodipodi:linespacing="125%"
       id="text8667"
       y="689.63446"
       x="30.735655"
       style="font-style:normal;font-variant:normal;font-weight:normal;font-stretch:normal;font-size:12.28674984px;line-height:125%;font-family:'メイリオ';-inkscape-font-specification:'メイリオ, Normal';text-align:start;letter-spacing:0px;word-spacing:0px;writing-mode:lr-tb;text-anchor:start;opacity:1;fill:#000000;fill-opacity:1;stroke:none;stroke-width:1px;stroke-linecap:butt;stroke-linejoin:miter;stroke-opacity:1"
       xml:space="preserve"><tspan
         y="689.63446"
         x="30.735655"
         id="tspan8669"
         sodipodi:role="line">〒594-1105</tspan><tspan
         id="tspan8673"
         y="704.99292"
         x="30.735655"
         sodipodi:role="line">和泉市のぞみ野三丁目1237-58  Shima.B.L.D.G  1F</tspan></text>
    <text
       sodipodi:linespacing="125%"
       id="text4239-2"
       y="846.92542"
       x="167.07285"
       style="font-style:normal;font-variant:normal;font-weight:normal;font-stretch:normal;font-size:12.28672695px;line-height:125%;font-family:Meiryo;-inkscape-font-specification:'Meiryo, Normal';text-align:start;letter-spacing:0px;word-spacing:0px;writing-mode:lr-tb;text-anchor:start;opacity:1;fill:#000000;fill-opacity:1;stroke:none;stroke-width:1px;stroke-linecap:butt;stroke-linejoin:miter;stroke-opacity:1"
       xml:space="preserve"
       transform="translate(0,-124.01573)"><tspan
         y="846.92542"
         x="167.07285"
         id="tspan4241-4"
         sodipodi:role="line">Web : niconico-hoik.com</tspan></text>
    <text
       sodipodi:linespacing="125%"
       id="text4239-8"
       y="722.8501"
       x="39.144451"
       style="font-style:normal;font-variant:normal;font-weight:normal;font-stretch:normal;font-size:12.28672695px;line-height:125%;font-family:Meiryo;-inkscape-font-specification:'Meiryo, Normal';text-align:start;letter-spacing:0px;word-spacing:0px;writing-mode:lr-tb;text-anchor:start;opacity:1;fill:#000000;fill-opacity:1;stroke:none;stroke-width:1px;stroke-linecap:butt;stroke-linejoin:miter;stroke-opacity:1"
       xml:space="preserve"><tspan
         y="722.8501"
         x="39.144451"
         id="tspan4241-6"
         sodipodi:role="line">Tel : 0725-56-3396</tspan></text>
    <text
       xml:space="preserve"
       style="font-style:normal;font-variant:normal;font-weight:normal;font-stretch:normal;font-size:12.72311878px;line-height:189.99999762%;font-family:Meiryo;-inkscape-font-specification:'Meiryo, Normal';text-align:justify;letter-spacing:0px;word-spacing:0px;writing-mode:lr-tb;text-anchor:start;opacity:1;fill:#000000;fill-opacity:1;stroke:none;stroke-width:1px;stroke-linecap:butt;stroke-linejoin:miter;stroke-opacity:1"
       x="395.38779"
       y="110.28976"
       id="text4989-3"
       sodipodi:linespacing="190%"><tspan
         sodipodi:role="line"
         x="395.38779"
         y="110.28976"
         id="tspan4772" /><tspan
         sodipodi:role="line"
         x="395.38779"
         y="134.46368"
         id="tspan4778">&lt;休園日&gt;</tspan><tspan
         sodipodi:role="line"
         x="395.38779"
         y="158.6376"
         id="tspan5008">年末年始4日間 盆期4日間</tspan><tspan
         sodipodi:role="line"
         x="395.38779"
         y="182.81154"
         id="tspan5103" /></text>
    <text
       xml:space="preserve"
       style="font-style:normal;font-variant:normal;font-weight:normal;font-stretch:normal;font-size:12.72311878px;line-height:189.99999762%;font-family:Meiryo;-inkscape-font-specification:'Meiryo, Normal';text-align:justify;letter-spacing:0px;word-spacing:0px;writing-mode:lr-tb;text-anchor:start;opacity:1;fill:#000000;fill-opacity:1;stroke:none;stroke-width:1px;stroke-linecap:butt;stroke-linejoin:miter;stroke-opacity:1"
       x="395.66684"
       y="188.56165"
       id="text4989-3-8"
       sodipodi:linespacing="190%"><tspan
         sodipodi:role="line"
         x="395.66684"
         y="188.56165"
         id="tspan5010-0">&lt;注意事項&gt;</tspan><tspan
         sodipodi:role="line"
         x="395.66684"
         y="212.73557"
         id="tspan4790-3">①「法定伝染病および伝染の恐れのある病気」</tspan><tspan
         sodipodi:role="line"
         x="395.66684"
         y="236.9095"
         id="tspan4987-6">（インフルエンザ・はしか・水疱瘡・おたふく</tspan><tspan
         sodipodi:role="line"
         x="395.66684"
         y="261.08344"
         id="tspan5046-3">風邪、等）に感染した場合、完治証明書を持参</tspan><tspan
         sodipodi:role="line"
         x="395.66684"
         y="285.25735"
         id="tspan4846-93">して頂くまではご利用になれません。</tspan><tspan
         sodipodi:role="line"
         x="395.66684"
         y="309.43127"
         id="tspan4622-8" /><tspan
         sodipodi:role="line"
         x="395.66684"
         y="333.60519"
         id="tspan5063-1">②保護者の方のご連絡先を明確にしてください。</tspan><tspan
         sodipodi:role="line"
         x="395.66684"
         y="357.77911"
         id="tspan5067-6">降園時間が予定よりも遅くなる場合にはご連絡</tspan><tspan
         sodipodi:role="line"
         x="395.66684"
         y="381.95303"
         id="tspan4854-4">をお願いします。また、在園中に感染病などの</tspan><tspan
         sodipodi:role="line"
         x="395.66684"
         y="406.12698"
         id="tspan4796-3">状態異常が発覚した場合にはただちにこちらか</tspan><tspan
         sodipodi:role="line"
         x="395.66684"
         y="430.3009"
         id="tspan4860-9">ら連絡し、お迎えに来て頂きます。</tspan><tspan
         sodipodi:role="line"
         x="395.66684"
         y="454.47482"
         id="tspan4624-4" /><tspan
         sodipodi:role="line"
         x="395.66684"
         y="478.64874"
         id="tspan4862-9">③本園の保育管理下にてお子様が傷害を被った</tspan><tspan
         sodipodi:role="line"
         x="395.66684"
         y="502.82266"
         id="tspan4994-7">際は保険にて対応させて頂きます。</tspan><tspan
         sodipodi:role="line"
         x="395.66684"
         y="526.99658"
         id="tspan4626-6" /><tspan
         sodipodi:role="line"
         x="395.66684"
         y="551.17053"
         id="tspan4800-7">④おもちゃ・おやつ等の持ち込みはお断りいた</tspan><tspan
         sodipodi:role="line"
         x="395.66684"
         y="575.34442"
         id="tspan4868-97">します。必要性がある場合には特例として認め</tspan><tspan
         sodipodi:role="line"
         x="395.66684"
         y="599.51837"
         id="tspan4996-2">る場合もございます。ご相談ください。</tspan><tspan
         sodipodi:role="line"
         x="395.66684"
         y="623.69232"
         id="tspan4628-8" /><tspan
         sodipodi:role="line"
         x="395.66684"
         y="647.86621"
         id="tspan4804-5">⑤保育料等のお支払いは当園の指定する方法に</tspan><tspan
         sodipodi:role="line"
         x="395.66684"
         y="672.04016"
         id="tspan4874-9">沿ってお支払い頂きます。一旦納入された費用</tspan><tspan
         sodipodi:role="line"
         x="395.66684"
         y="696.21405"
         id="tspan5103-5">は原則として返還されません。</tspan></text>
  </g>
  <g
     transform="translate(0,-124.01573)"
     style="opacity:1"
     inkscape:label="title"
     id="layer3"
     inkscape:groupmode="layer" />
  <g
     style="opacity:0.66399997"
     transform="translate(0,-124.01573)"
     inkscape:label="gazo"
     id="layer4"
     inkscape:groupmode="layer" />
  <g
     style="opacity:1"
     transform="translate(0,-308.26777)"
     id="layer1"
     inkscape:groupmode="layer"
     inkscape:label="レイヤー 1" />
  <g
     transform="translate(0,-187.79525)"
     inkscape:label="枠"
     id="layer5"
     inkscape:groupmode="layer"
     sodipodi:insensitive="true"
     style="opacity:0">
    <g
       id="g5008"
       style="display:inline"
       transform="translate(0,63.779536)">
      <path
         style="fill:none;fill-rule:evenodd;stroke:#000000;stroke-width:0.52251965;stroke-linecap:butt;stroke-linejoin:miter;stroke-miterlimit:4;stroke-dasharray:none;stroke-opacity:1"
         d="m 0,857.36057 1052.3622,0"
         id="path4921"
         inkscape:connector-curvature="0" />
      <path
         style="display:inline;fill:none;fill-rule:evenodd;stroke:#000000;stroke-width:0.52251965;stroke-linecap:butt;stroke-linejoin:miter;stroke-miterlimit:4;stroke-dasharray:none;stroke-opacity:1"
         d="m 0,134.38438 1052.3622,0"
         id="path4921-2"
         inkscape:connector-curvature="0" />
      <path
         style="fill:none;fill-rule:evenodd;stroke:#000000;stroke-width:0.52242565;stroke-linecap:butt;stroke-linejoin:miter;stroke-miterlimit:4;stroke-dasharray:none;stroke-opacity:1"
         d="m 10.922243,124.01556 0,744.09449"
         id="path4938"
         inkscape:connector-curvature="0" />
      <path
         style="display:inline;fill:none;fill-rule:evenodd;stroke:#000000;stroke-width:0.52242571;stroke-linecap:butt;stroke-linejoin:miter;stroke-miterlimit:4;stroke-dasharray:none;stroke-opacity:1"
         d="m 1041.9935,124.01563 0,744.09449"
         id="path4938-9"
         inkscape:connector-curvature="0" />
      <path
         style="display:inline;opacity:1;fill:none;fill-rule:evenodd;stroke:#000000;stroke-width:0.52088434;stroke-linecap:butt;stroke-linejoin:miter;stroke-miterlimit:4;stroke-dasharray:none;stroke-opacity:1"
         d="m 354.59115,134.6455 0,722.83465"
         id="path8440-0"
         inkscape:connector-curvature="0" />
      <path
         style="display:inline;opacity:1;fill:none;fill-rule:evenodd;stroke:#000000;stroke-width:0.52088434;stroke-linecap:butt;stroke-linejoin:miter;stroke-miterlimit:4;stroke-dasharray:none;stroke-opacity:1"
         d="m 708.95374,134.64563 0,722.83465"
         id="path8440"
         inkscape:connector-curvature="0" />
      <path
         style="display:inline;opacity:1;fill:none;fill-rule:evenodd;stroke:#000000;stroke-width:0.52088434;stroke-linecap:butt;stroke-linejoin:miter;stroke-miterlimit:4;stroke-dasharray:none;stroke-opacity:1"
         d="m 719.55178,134.64563 0,722.83465"
         id="path8440-1"
         inkscape:connector-curvature="0" />
      <path
         style="display:inline;opacity:1;fill:none;fill-rule:evenodd;stroke:#000000;stroke-width:0.52088434;stroke-linecap:butt;stroke-linejoin:miter;stroke-miterlimit:4;stroke-dasharray:none;stroke-opacity:1"
         d="m 698.29194,134.64563 0,722.83465"
         id="path8440-1-2"
         inkscape:connector-curvature="0" />
      <path
         style="display:inline;opacity:1;fill:none;fill-rule:evenodd;stroke:#000000;stroke-width:0.52088434;stroke-linecap:butt;stroke-linejoin:miter;stroke-miterlimit:4;stroke-dasharray:none;stroke-opacity:1"
         d="m 365.22107,134.64563 0,722.83465"
         id="path8440-1-2-0"
         inkscape:connector-curvature="0" />
      <path
         style="display:inline;opacity:1;fill:none;fill-rule:evenodd;stroke:#000000;stroke-width:0.52088434;stroke-linecap:butt;stroke-linejoin:miter;stroke-miterlimit:4;stroke-dasharray:none;stroke-opacity:1"
         d="m 343.96123,134.64563 0,722.83465"
         id="path8440-1-2-0-8"
         inkscape:connector-curvature="0" />
    </g>
  </g>
  <g
     sodipodi:insensitive="true"
     inkscape:groupmode="layer"
     inkscape:label="Printing Marks"
     id="printing-marks">
    <g
       id="CropMarks"
       inkscape:label="CropMarks">
      <path
         d="M 0,-3.5433070866 L 0,-38.9763779526"
         id="cropTL1"
         style="stroke:#000000;stroke-width:0.25;fill:none" />
      <path
         d="M -3.5433070866,0 L -38.9763779526,0"
         id="cropTL2"
         style="stroke:#000000;stroke-width:0.25;fill:none" />
      <path
         d="M 1052.36220472,-3.5433070866 L 1052.36220472,-38.9763779526"
         id="cropTR1"
         style="stroke:#000000;stroke-width:0.25;fill:none" />
      <path
         d="M 1055.90551181,0 L 1091.33858267,0"
         id="cropTR2"
         style="stroke:#000000;stroke-width:0.25;fill:none" />
      <path
         d="M 0,747.637795273 L 0,783.070866139"
         id="cropBL1"
         style="stroke:#000000;stroke-width:0.25;fill:none" />
      <path
         d="M -3.5433070866,744.094488186 L -38.9763779526,744.094488186"
         id="cropBL2"
         style="stroke:#000000;stroke-width:0.25;fill:none" />
      <path
         d="M 1052.36220472,747.637795273 L 1052.36220472,783.070866139"
         id="cropBR1"
         style="stroke:#000000;stroke-width:0.25;fill:none" />
      <path
         d="M 1055.90551181,744.094488186 L 1091.33858267,744.094488186"
         id="cropBR2"
         style="stroke:#000000;stroke-width:0.25;fill:none" />
    </g>
    <g
       id="BleedMarks"
       inkscape:label="BleedMarks">
      <path
         d="M -10.6299212598,-10.6299212598 L -10.6299212598,-46.0629921258"
         id="bleedTL1"
         style="stroke-dashoffset:0;stroke:#000000;stroke-dasharray:4, 2, 1, 2;stroke-miterlimit:4;stroke-width:0.25;fill:none" />
      <path
         d="M -10.6299212598,-10.6299212598 L -46.0629921258,-10.6299212598"
         id="bleedTL2"
         style="stroke-dashoffset:0;stroke:#000000;stroke-dasharray:4, 2, 1, 2;stroke-miterlimit:4;stroke-width:0.25;fill:none" />
      <path
         d="M 1062.99212598,-10.6299212598 L 1062.99212598,-46.0629921258"
         id="bleedTR1"
         style="stroke-dashoffset:0;stroke:#000000;stroke-dasharray:4, 2, 1, 2;stroke-miterlimit:4;stroke-width:0.25;fill:none" />
      <path
         d="M 1062.99212598,-10.6299212598 L 1098.42519685,-10.6299212598"
         id="bleedTR2"
         style="stroke-dashoffset:0;stroke:#000000;stroke-dasharray:4, 2, 1, 2;stroke-miterlimit:4;stroke-width:0.25;fill:none" />
      <path
         d="M -10.6299212598,754.724409446 L -10.6299212598,790.157480312"
         id="bleedBL1"
         style="stroke-dashoffset:0;stroke:#000000;stroke-dasharray:4, 2, 1, 2;stroke-miterlimit:4;stroke-width:0.25;fill:none" />
      <path
         d="M -10.6299212598,754.724409446 L -46.0629921258,754.724409446"
         id="bleedBL2"
         style="stroke-dashoffset:0;stroke:#000000;stroke-dasharray:4, 2, 1, 2;stroke-miterlimit:4;stroke-width:0.25;fill:none" />
      <path
         d="M 1062.99212598,754.724409446 L 1062.99212598,790.157480312"
         id="bleedBR1"
         style="stroke-dashoffset:0;stroke:#000000;stroke-dasharray:4, 2, 1, 2;stroke-miterlimit:4;stroke-width:0.25;fill:none" />
      <path
         d="M 1062.99212598,754.724409446 L 1098.42519685,754.724409446"
         id="bleedBR2"
         style="stroke-dashoffset:0;stroke:#000000;stroke-dasharray:4, 2, 1, 2;stroke-miterlimit:4;stroke-width:0.25;fill:none" />
    </g>
    <g
       id="StarTarget"
       inkscape:label="StarTarget">
      <path
         id="path4890"
         d=" M 0,0 L 0,0  L 3.45632460263,17.3761171724 L 5.00407613632,16.9951419462 L 0,0  L 6.77982458912,16.3679444736 L 8.22351193151,15.6923382343 L 0,0  L 9.84277971881,14.7307608478 L 11.126922775,13.7864867645 L 0,0  L 12.5274823438,12.5274823438 L 13.6027322162,11.3508283399 L 0,0  L 14.7307608478,9.84277971881 L 15.5557962869,8.4789639478 L 0,0  L 16.3679444736,6.77982458912 L 16.9110598301,5.28125772624 L 0,0  L 17.3761171724,3.45632460263 L 17.6164408279,1.88059573202 L 0,0  L 17.716535433,1.0848249205e-15 L 17.644831884,-1.59233650153 L 0,0  L 17.3761171724,-3.45632460263 L 16.9951419462,-5.00407613632 L 0,0  L 16.3679444736,-6.77982458912 L 15.6923382343,-8.22351193151 L 0,0  L 14.7307608478,-9.84277971881 L 13.7864867645,-11.126922775 L 0,0  L 12.5274823438,-12.5274823438 L 11.3508283399,-13.6027322162 L 0,0  L 9.84277971881,-14.7307608478 L 8.4789639478,-15.5557962869 L 0,0  L 6.77982458912,-16.3679444736 L 5.28125772624,-16.9110598301 L 0,0  L 3.45632460263,-17.3761171724 L 1.88059573202,-17.6164408279 L 0,0  L -1.35657946024e-14,-17.716535433 L -1.59233650153,-17.644831884 L 0,0  L -3.45632460263,-17.3761171724 L -5.00407613632,-16.9951419462 L 0,0  L -6.77982458912,-16.3679444736 L -8.22351193151,-15.6923382343 L 0,0  L -9.84277971881,-14.7307608478 L -11.126922775,-13.7864867645 L 0,0  L -12.5274823438,-12.5274823438 L -13.6027322162,-11.3508283399 L 0,0  L -14.7307608478,-9.84277971881 L -15.5557962869,-8.4789639478 L 0,0  L -16.3679444736,-6.77982458912 L -16.9110598301,-5.28125772624 L 0,0  L -17.3761171724,-3.45632460263 L -17.6164408279,-1.88059573202 L 0,0  L -17.716535433,4.39518585688e-14 L -17.644831884,1.59233650153 L 0,0  L -17.3761171724,3.45632460263 L -16.9951419462,5.00407613632 L 0,0  L -16.3679444736,6.77982458912 L -15.6923382343,8.22351193151 L 0,0  L -14.7307608478,9.84277971881 L -13.7864867645,11.126922775 L 0,0  L -12.5274823438,12.5274823438 L -11.3508283399,13.6027322162 L 0,0  L -9.84277971881,14.7307608478 L -8.4789639478,15.5557962869 L 0,0  L -6.77982458912,16.3679444736 L -5.28125772624,16.9110598301 L 0,0  L -3.45632460263,17.3761171724 L -1.88059573202,17.6164408279 L 0,0  L 7.43379225352e-14,17.716535433 L 1.59233650153,17.644831884"
         transform="translate(-28.3464566928,372.047244093)"
         style="stroke:none;fill-opacity:1;fill:#000 device-cmyk(1,1,1,1)"
         inkscape:label="starTargetL" />
      <path
         id="path4892"
         d=" M 0,0 L 0,0  L 3.45632460263,17.3761171724 L 5.00407613632,16.9951419462 L 0,0  L 6.77982458912,16.3679444736 L 8.22351193151,15.6923382343 L 0,0  L 9.84277971881,14.7307608478 L 11.126922775,13.7864867645 L 0,0  L 12.5274823438,12.5274823438 L 13.6027322162,11.3508283399 L 0,0  L 14.7307608478,9.84277971881 L 15.5557962869,8.4789639478 L 0,0  L 16.3679444736,6.77982458912 L 16.9110598301,5.28125772624 L 0,0  L 17.3761171724,3.45632460263 L 17.6164408279,1.88059573202 L 0,0  L 17.716535433,1.0848249205e-15 L 17.644831884,-1.59233650153 L 0,0  L 17.3761171724,-3.45632460263 L 16.9951419462,-5.00407613632 L 0,0  L 16.3679444736,-6.77982458912 L 15.6923382343,-8.22351193151 L 0,0  L 14.7307608478,-9.84277971881 L 13.7864867645,-11.126922775 L 0,0  L 12.5274823438,-12.5274823438 L 11.3508283399,-13.6027322162 L 0,0  L 9.84277971881,-14.7307608478 L 8.4789639478,-15.5557962869 L 0,0  L 6.77982458912,-16.3679444736 L 5.28125772624,-16.9110598301 L 0,0  L 3.45632460263,-17.3761171724 L 1.88059573202,-17.6164408279 L 0,0  L -1.35657946024e-14,-17.716535433 L -1.59233650153,-17.644831884 L 0,0  L -3.45632460263,-17.3761171724 L -5.00407613632,-16.9951419462 L 0,0  L -6.77982458912,-16.3679444736 L -8.22351193151,-15.6923382343 L 0,0  L -9.84277971881,-14.7307608478 L -11.126922775,-13.7864867645 L 0,0  L -12.5274823438,-12.5274823438 L -13.6027322162,-11.3508283399 L 0,0  L -14.7307608478,-9.84277971881 L -15.5557962869,-8.4789639478 L 0,0  L -16.3679444736,-6.77982458912 L -16.9110598301,-5.28125772624 L 0,0  L -17.3761171724,-3.45632460263 L -17.6164408279,-1.88059573202 L 0,0  L -17.716535433,4.39518585688e-14 L -17.644831884,1.59233650153 L 0,0  L -17.3761171724,3.45632460263 L -16.9951419462,5.00407613632 L 0,0  L -16.3679444736,6.77982458912 L -15.6923382343,8.22351193151 L 0,0  L -14.7307608478,9.84277971881 L -13.7864867645,11.126922775 L 0,0  L -12.5274823438,12.5274823438 L -11.3508283399,13.6027322162 L 0,0  L -9.84277971881,14.7307608478 L -8.4789639478,15.5557962869 L 0,0  L -6.77982458912,16.3679444736 L -5.28125772624,16.9110598301 L 0,0  L -3.45632460263,17.3761171724 L -1.88059573202,17.6164408279 L 0,0  L 7.43379225352e-14,17.716535433 L 1.59233650153,17.644831884"
         transform="translate(1080.70866141,372.047244093)"
         style="stroke:none;fill-opacity:1;fill:#000 device-cmyk(1,1,1,1)"
         inkscape:label="starTargetR" />
    </g>
  </g>
</svg>
