<?xml version="1.0" encoding="UTF-8" standalone="no"?>
<!-- Created with Inkscape (http://www.inkscape.org/) -->

<svg
   xmlns:dc="http://purl.org/dc/elements/1.1/"
   xmlns:cc="http://creativecommons.org/ns#"
   xmlns:rdf="http://www.w3.org/1999/02/22-rdf-syntax-ns#"
   xmlns:svg="http://www.w3.org/2000/svg"
   xmlns="http://www.w3.org/2000/svg"
   xmlns:sodipodi="http://sodipodi.sourceforge.net/DTD/sodipodi-0.dtd"
   xmlns:inkscape="http://www.inkscape.org/namespaces/inkscape"
   width="91mm"
   height="55mm"
   viewBox="0 0 322.44093 194.88189"
   id="svg4899"
   version="1.1"
   inkscape:version="0.92.1 r15371"
   sodipodi:docname="business_card.svg">
  <sodipodi:namedview
     id="base"
     pagecolor="#ffffff"
     bordercolor="#666666"
     borderopacity="1.0"
     inkscape:pageopacity="0.0"
     inkscape:pageshadow="2"
     inkscape:zoom="2.501104"
     inkscape:cx="171.96851"
     inkscape:cy="103.93701"
     inkscape:document-units="px"
     inkscape:current-layer="layer1"
     showgrid="false"
     inkscape:window-width="1837"
     inkscape:window-height="1051"
     inkscape:window-x="1116"
     inkscape:window-y="-9"
     inkscape:window-maximized="1"
     inkscape:showpageshadow="false" />
  <defs
     id="defs4901">
    <pattern
       y="0"
       x="0"
       height="6"
       width="6"
       patternUnits="userSpaceOnUse"
       id="EMFhbasepattern" />
  </defs>
  <metadata
     id="metadata4904">
    <rdf:RDF>
      <cc:Work
         rdf:about="">
        <dc:format>image/svg+xml</dc:format>
        <dc:type
           rdf:resource="http://purl.org/dc/dcmitype/StillImage" />
        <dc:title></dc:title>
      </cc:Work>
    </rdf:RDF>
  </metadata>
  <g
     inkscape:label="レイヤー 1"
     inkscape:groupmode="layer"
     id="layer1"
     transform="translate(0,-857.48031)">
    <rect
       style="opacity:1;fill:none;fill-opacity:0.17014925;stroke:none;stroke-width:0.69999999;stroke-linecap:round;stroke-linejoin:miter;stroke-miterlimit:4;stroke-dasharray:0.7, 2.10000000000000010;stroke-dashoffset:0;stroke-opacity:0.71641792"
       id="rect4412"
       width="301.18109"
       height="173.62204"
       x="10.629906"
       y="868.11023" />
    <circle
       cy="954.11957"
       cx="148.61667"
       id="path4257-53"
       style="display:inline;opacity:0.72000002;fill:#ffc30c;fill-opacity:1;stroke:none;stroke-width:14.03800011;stroke-linejoin:round;stroke-miterlimit:4;stroke-dasharray:none;stroke-opacity:1"
       r="8.2923546" />
    <circle
       cy="910.22217"
       cx="109.98896"
       id="path4257-5-6"
       style="display:inline;opacity:0.72000002;fill:#ffc30c;fill-opacity:1;stroke:none;stroke-width:14.03800011;stroke-linejoin:round;stroke-miterlimit:4;stroke-dasharray:none;stroke-opacity:1"
       r="6.6765409" />
    <circle
       cy="972.13074"
       cx="55.051311"
       id="path4257-5-5-0"
       style="display:inline;opacity:0.72000002;fill:#ffc30c;fill-opacity:1;stroke:none;stroke-width:14.03800011;stroke-linejoin:round;stroke-miterlimit:4;stroke-dasharray:none;stroke-opacity:1"
       r="4.7914248" />
    <circle
       cy="995.63544"
       cx="122.41972"
       id="path4257-5-5-6-8"
       style="display:inline;opacity:0.72000002;fill:#ffc30c;fill-opacity:1;stroke:none;stroke-width:14.03800011;stroke-linejoin:round;stroke-miterlimit:4;stroke-dasharray:none;stroke-opacity:1"
       r="3.1756122" />
    <circle
       cy="949.80957"
       cx="25.158779"
       id="path4257-5-5-6-0-1"
       style="display:inline;opacity:0.72000002;fill:#ffc30c;fill-opacity:1;stroke:none;stroke-width:14.03800011;stroke-linejoin:round;stroke-miterlimit:4;stroke-dasharray:none;stroke-opacity:1"
       r="1.5597992" />
    <text
       xml:space="preserve"
       style="font-style:normal;font-variant:normal;font-weight:900;font-stretch:normal;line-height:0%;font-family:'Rounded-X M+ 1c';-inkscape-font-specification:'Rounded-X M+ 1c, Heavy';text-align:center;letter-spacing:0px;word-spacing:0px;writing-mode:lr-tb;text-anchor:middle;display:inline;opacity:0.8;fill:#303379;fill-opacity:1;stroke:none;stroke-width:1px;stroke-linecap:butt;stroke-linejoin:miter;stroke-opacity:1"
       x="85.259293"
       y="936.23676"
       id="text8483-8"><tspan
         sodipodi:role="line"
         x="85.259293"
         y="936.23676"
         id="tspan8144-3"
         style="font-style:normal;font-variant:normal;font-weight:900;font-stretch:normal;font-size:19.76335907px;line-height:129.99999523%;font-family:'Rounded-X M+ 1c';-inkscape-font-specification:'Rounded-X M+ 1c, Heavy';text-align:center;writing-mode:lr-tb;text-anchor:middle;fill:#003586;fill-opacity:1">ニコニコ保育園</tspan><tspan
         id="tspan4235-0"
         sodipodi:role="line"
         x="85.259293"
         y="961.92914"
         style="font-style:normal;font-variant:normal;font-weight:900;font-stretch:normal;font-size:19.76335907px;line-height:129.99999523%;font-family:'Rounded-X M+ 1c';-inkscape-font-specification:'Rounded-X M+ 1c, Heavy';text-align:center;writing-mode:lr-tb;text-anchor:middle;fill:#003586;fill-opacity:1">和泉中央園</tspan></text>
    <text
       id="text4251-0"
       y="984.28595"
       x="11.359694"
       style="font-style:normal;font-variant:normal;font-weight:900;font-stretch:normal;line-height:0%;font-family:'Rounded-X M+ 1c';-inkscape-font-specification:'Rounded-X M+ 1c, Heavy';text-align:start;letter-spacing:0px;word-spacing:0px;writing-mode:lr-tb;text-anchor:start;display:inline;opacity:0.8;fill:#000000;fill-opacity:1;stroke:none;stroke-width:1px;stroke-linecap:butt;stroke-linejoin:miter;stroke-opacity:1"
       xml:space="preserve"><tspan
         style="font-style:normal;font-variant:normal;font-weight:900;font-stretch:normal;font-size:8.83679867px;line-height:125%;font-family:'Rounded-X M+ 1c';-inkscape-font-specification:'Rounded-X M+ 1c, Heavy';text-align:start;writing-mode:lr-tb;text-anchor:start;fill:#5d9a1f;fill-opacity:1"
         y="984.28595"
         x="11.359694"
         id="tspan4253-1"
         sodipodi:role="line">すこやか、うららか、のびのびほいく</tspan></text>
    <g
       style="font-style:normal;font-variant:normal;font-weight:normal;font-stretch:normal;font-size:22.06465721px;line-height:125%;font-family:Meiryo;-inkscape-font-specification:'Meiryo, Normal';text-align:start;letter-spacing:0px;word-spacing:0px;writing-mode:lr-tb;text-anchor:start;fill:#000000;fill-opacity:1;stroke:none;stroke-width:1px;stroke-linecap:butt;stroke-linejoin:miter;stroke-opacity:1"
       id="text4235"
       transform="matrix(0.94435357,0,0,0.94435357,11.383693,53.069497)">
      <path
         d="m 210.48851,941.26888 q 0,3.39374 -1.05582,6.74437 -1.04506,3.33987 -3.05975,5.65623 l -1.16357,-0.8619 q 1.73458,-2.05779 2.66112,-5.14986 0.93732,-3.09207 0.93732,-6.75515 l 0,-1.38981 -2.74731,0 0,-1.30363 2.74731,0 0,-4.23408 1.6807,0 0,4.23408 5.06367,0 0,2.96279 -0.0108,3.17826 q -0.0108,1.65916 -0.12929,3.43683 -0.10774,1.77767 -0.38785,2.96278 -0.26935,1.18511 -0.62488,1.65916 -0.34476,0.47404 -0.88345,0.73261 -0.53869,0.25857 -1.19589,0.25857 l -2.34868,0 -0.19392,-1.50832 1.70225,0 q 0.60333,0 0.96964,-0.14006 0.36631,-0.15083 0.59256,-0.48482 0.22624,-0.33399 0.37708,-0.96964 0.1616,-0.63565 0.26934,-1.66993 0.11851,-1.03428 0.15083,-2.05779 0.0323,-1.03428 0.0323,-4.75123 l 0,-2.30558 -3.38296,0 0,1.75612 z m 13.24095,10.43977 -4.19099,0 0,1.59452 -1.6807,0 0,-17.63664 7.5524,0 0,17.48581 -1.68071,0 0,-1.44369 z m -4.19099,-1.40058 4.19099,0 0,-13.29482 -4.19099,0 0,13.29482 z"
         id="path4161"
         inkscape:connector-curvature="0" />
      <path
         d="m 238.54632,938.87711 0,3.32909 q 0,7.26151 -2.6719,11.11852 l -1.17433,-0.72184 q 2.27326,-3.82469 2.27326,-9.58865 l 0,-5.4192 8.37121,0 0,-3.67385 1.71303,0 0,3.67385 4.72968,0 0,1.28208 -4.68659,0 q 0.18315,4.3526 0.99119,7.23996 1.16356,-2.97355 1.55142,-5.10676 l 1.52987,0.4094 q -0.68952,3.0382 -2.46719,6.62587 0.43095,1.19588 1.07738,2.35945 0.6572,1.15279 1.01273,1.15279 0.11851,0 0.22625,-0.15083 0.10774,-0.15083 0.2047,-1.55142 0.097,-1.40059 0.10774,-2.2194 l 1.28208,0.21548 q 0,3.31832 -0.26935,4.52498 -0.26934,1.21743 -1.26053,1.21743 -0.4525,0 -0.90499,-0.32321 -0.44173,-0.31244 -1.16357,-1.40059 -0.72184,-1.09892 -1.21743,-2.15475 -1.22821,2.05779 -2.8335,3.9001 l -1.08815,-0.76494 q 1.87463,-2.21939 3.21058,-4.84819 -1.30363,-3.61998 -1.58375,-9.12537 l -6.95984,0 z m 11.36631,-1.73458 q -0.57101,-0.79726 -1.73457,-2.29481 l 1.10969,-0.72184 q 0.87268,0.91577 1.82077,2.20862 l -1.19589,0.80803 z m -15.25564,1.32517 q -0.88345,-1.30362 -2.47796,-3.0382 l 1.21743,-0.93731 q 0.94809,1.01273 2.52106,2.94123 l -1.26053,1.03428 z m -0.905,5.13909 q -1.12047,-1.63761 -2.381,-3.09207 l 1.26053,-0.91577 q 0.87268,1.02351 2.4241,2.9951 l -1.30363,1.01274 z m 5.78551,-1.48678 0,-1.17434 5.31147,0 0,1.17434 -5.31147,0 z m 1.64839,8.2527 0,0.90499 -1.40059,0 0,-6.95984 5.12831,0 0,6.05485 -3.72772,0 z m 2.35945,-4.9667 -2.35945,0 0,3.86777 2.35945,0 0,-3.86777 z m -10.66602,7.81097 -1.40059,-0.84035 q 1.42214,-2.35946 2.66112,-7.23997 l 1.32517,0.47405 q -1.33594,5.26836 -2.5857,7.60627 z"
         id="path4163"
         inkscape:connector-curvature="0" />
      <path
         d="m 274.56593,953.59406 0,-9.38394 -8.98532,0 0,-1.40059 8.98532,0 0,-5.67777 q -4.34183,0.38785 -7.33693,0.46327 l -0.26935,-1.3144 q 3.40451,-0.097 8.48972,-0.60333 5.08522,-0.50637 7.34771,-1.05583 l 0.63565,1.28208 q -2.381,0.56024 -7.16455,1.05583 l 0,5.85015 9.43781,0 0,1.40059 -9.43781,0 0,9.38394 -1.70225,0 z"
         id="path4165"
         inkscape:connector-curvature="0" />
      <path
         d="m 298.60511,953.61561 -0.70029,-1.14202 q 3.09207,-1.60529 4.8051,-4.8051 1.7238,-3.21058 1.7238,-6.80901 l 0,-6.75515 1.73457,0 0,6.79824 q 0,0.28012 -0.0108,0.50637 0.52791,3.83546 2.30558,6.60431 1.77767,2.75809 3.93243,4.29873 l -1.05583,1.26053 q -2.04702,-1.38981 -3.60921,-3.68462 -1.55142,-2.30559 -2.20862,-4.72968 -0.8619,3.13516 -2.82273,5.31146 -1.95005,2.16553 -4.09403,3.14594 z m -6.77669,-4.32028 -0.96964,-0.80803 q 0.99119,-1.07738 2.28404,-3.32909 1.30362,-2.25172 1.86386,-3.9432 l -3.42606,0 0,-1.26053 3.55534,0 0,-3.4045 q -1.7238,0.33398 -3.28599,0.54946 l -0.29089,-1.26053 q 4.27718,-0.46327 7.31538,-1.65916 l 0.67875,1.22821 q -1.08815,0.38785 -2.76886,0.78648 l 0,3.76004 2.56415,0 0,1.26053 -2.56415,0 0,1.59452 q 0.72184,0.87267 2.60725,2.55338 l -0.82958,1.30362 q -0.85113,-0.74338 -1.77767,-1.90695 l 0,8.93145 -1.64839,0 0,-9.25466 q -1.96082,3.59843 -3.30754,4.85896 z m 17.79825,-5.04212 -1.47601,-0.39863 q 0.40941,-1.01273 0.98042,-3.27522 0.58178,-2.26249 0.8188,-3.77081 l 1.70226,0.31244 q -1.19589,5.35455 -2.02547,7.13222 z m -8.4574,0.16161 -1.55142,-0.38786 q 0.92654,-2.63957 1.36827,-6.72282 l 1.58374,0.2047 q -0.33399,3.42606 -1.40059,6.90598 z"
         id="path4167"
         inkscape:connector-curvature="0" />
    </g>
    <text
       xml:space="preserve"
       style="font-style:normal;font-variant:normal;font-weight:normal;font-stretch:normal;line-height:0%;font-family:Meiryo;-inkscape-font-specification:'Meiryo, Normal';text-align:start;letter-spacing:0px;word-spacing:0px;writing-mode:lr-tb;text-anchor:start;fill:#000000;fill-opacity:1;stroke:none;stroke-width:1px;stroke-linecap:butt;stroke-linejoin:miter;stroke-opacity:1"
       x="12.057527"
       y="1026.8596"
       id="text4239"><tspan
         sodipodi:role="line"
         id="tspan4241"
         x="12.057527"
         y="1026.8596"
         style="font-size:7.49975491px;line-height:1.25">〒594-1105</tspan></text>
    <text
       xml:space="preserve"
       style="font-style:normal;font-variant:normal;font-weight:normal;font-stretch:normal;line-height:0%;font-family:Meiryo;-inkscape-font-specification:'Meiryo, Normal';text-align:start;letter-spacing:0px;word-spacing:0px;writing-mode:lr-tb;text-anchor:start;fill:#000000;fill-opacity:1;stroke:none;stroke-width:1px;stroke-linecap:butt;stroke-linejoin:miter;stroke-opacity:1"
       x="58.519562"
       y="1026.897"
       id="text4239-3"><tspan
         sodipodi:role="line"
         x="58.519562"
         y="1026.897"
         id="tspan4261"
         style="font-size:7.5px;line-height:1.25">和泉市のぞみ野三丁目1237-58  Shima.B.L.D.G  1F</tspan></text>
    <text
       xml:space="preserve"
       style="font-style:normal;font-variant:normal;font-weight:normal;font-stretch:normal;line-height:0%;font-family:Meiryo;-inkscape-font-specification:'Meiryo, Normal';text-align:start;letter-spacing:0px;word-spacing:0px;writing-mode:lr-tb;text-anchor:start;fill:#000000;fill-opacity:1;stroke:none;stroke-width:1px;stroke-linecap:butt;stroke-linejoin:miter;stroke-opacity:1"
       x="112.12383"
       y="1038.6616"
       id="text4239-8"><tspan
         sodipodi:role="line"
         id="tspan4241-6"
         x="112.12383"
         y="1038.6616"
         style="font-size:7.5px;line-height:1.25">Tel : 0725-56-3396 / 090-1131-3914</tspan></text>
    <text
       xml:space="preserve"
       style="font-style:normal;font-variant:normal;font-weight:normal;font-stretch:normal;line-height:0%;font-family:Meiryo;-inkscape-font-specification:'Meiryo, Normal';text-align:start;letter-spacing:0px;word-spacing:0px;writing-mode:lr-tb;text-anchor:start;fill:#000000;fill-opacity:1;stroke:none;stroke-width:1px;stroke-linecap:butt;stroke-linejoin:miter;stroke-opacity:1"
       x="12.767747"
       y="1038.6616"
       id="text4239-2"><tspan
         sodipodi:role="line"
         id="tspan4241-4"
         x="12.767747"
         y="1038.6616"
         style="font-size:7.5px;line-height:1.25">Web : niconico-hoik.com</tspan></text>
    <g
       style="font-style:normal;font-variant:normal;font-weight:normal;font-stretch:normal;font-size:9.29110336px;line-height:125%;font-family:Meiryo;-inkscape-font-specification:'Meiryo, Normal';text-align:start;letter-spacing:0px;word-spacing:0px;writing-mode:lr-tb;text-anchor:start;fill:#000000;fill-opacity:1;stroke:none;stroke-width:1px;stroke-linecap:butt;stroke-linejoin:miter;stroke-opacity:1"
       id="text4239-5"
       transform="matrix(0.91994585,0,0,0.91994585,14.863611,77.208322)">
      <path
         d="m 183.37342,946.556 -6.46929,0 0,0.37654 -0.67596,0 0,-7.82575 7.83937,0 0,7.82575 -0.69412,0 0,-0.37654 z m -6.46929,-0.52172 6.46929,0 0,-6.38763 -6.46929,0 0,6.38763 z m 0.54894,-4.27354 0,-0.46728 2.28194,0 0,-0.54894 -1.88725,0 0,-0.47181 1.88725,0 0,-0.38108 0.66236,0 0,0.38108 2.00067,0 0,0.47181 -2.00067,0 0,0.54894 2.39082,0 0,0.46728 -5.33512,0 z m 0.0726,3.78812 -0.25405,-0.43552 q 0.52626,-0.20869 1.15685,-0.58069 0.63514,-0.37655 1.00714,-0.74402 l -1.47441,0 0,-1.51525 4.12383,0 0,1.51525 -1.74208,0 0,0.19054 q 0.31303,0.21323 0.92094,0.48089 0.96631,-0.53533 1.40183,-0.91641 l 0.37655,0.38562 q -0.74402,0.49903 -1.23398,0.75762 0.65328,0.25406 1.14778,0.38108 l -0.31303,0.50357 q -1.48803,-0.51718 -2.30009,-1.04797 l 0,1.23398 -0.63514,0 0,-1.4971 q -0.93909,0.82567 -2.18214,1.28841 z m 3.95145,-2.84903 -2.90801,0 0,0.6805 2.90801,0 0,-0.6805 z"
         id="path4190"
         inkscape:connector-curvature="0" />
      <path
         d="m 187.54649,946.9643 -0.11342,-0.59884 1.20676,-0.11342 0,-2.60405 -1.43359,0 0,-0.53986 1.43359,0 0,-4.06939 6.33773,0 0,0.51264 -5.6663,0 0,0.87104 5.33512,0 0,0.4945 -5.33512,0 0,0.82567 5.29883,0 0,0.49904 -5.29883,0 0,0.8665 6.30143,0 0,0.53986 -3.75636,0 q 0.41284,0.72134 1.0389,1.30203 1.10241,-0.51264 1.83735,-1.05705 l 0.47181,0.4446 q -0.77577,0.51718 -1.8555,0.98446 0.84382,0.61698 2.31371,1.0525 l -0.38108,0.57162 q -1.37008,-0.33571 -2.48156,-1.21129 -1.11149,-0.87557 -1.6695,-2.08687 l -1.8192,0 0,2.536 q 2.10047,-0.22229 2.75829,-0.34025 l 0.009,0.55801 q -0.47182,0.0862 -2.10502,0.29035 -1.6332,0.20415 -2.42712,0.2722 z"
         id="path4192"
         inkscape:connector-curvature="0" />
    </g>
    <text
       xml:space="preserve"
       style="font-style:normal;font-variant:normal;font-weight:normal;font-stretch:normal;line-height:0%;font-family:Meiryo;-inkscape-font-specification:'Meiryo, Normal';text-align:start;letter-spacing:0px;word-spacing:0px;writing-mode:lr-tb;text-anchor:start;fill:#000000;fill-opacity:1;stroke:none;stroke-width:1px;stroke-linecap:butt;stroke-linejoin:miter;stroke-opacity:1"
       x="254.04956"
       y="964.97333"
       id="text4239-2-3"><tspan
         sodipodi:role="line"
         id="tspan4241-4-8"
         x="254.04956"
         y="964.97333"
         style="font-size:9.30623722px;line-height:1.25">kagen chiaki</tspan></text>
  </g>
  <g
     sodipodi:insensitive="true"
     inkscape:groupmode="layer"
     inkscape:label="Printing Marks"
     id="printing-marks">
    <g
       id="CropMarks"
       inkscape:label="CropMarks">
      <path
         d="M 0,-10.6299212598 L 0,-46.0629921258"
         id="cropTL1"
         style="stroke:#000000;stroke-width:0.25;fill:none" />
      <path
         d="M -10.6299212598,0 L -46.0629921258,0"
         id="cropTL2"
         style="stroke:#000000;stroke-width:0.25;fill:none" />
      <path
         d="M 322.440944881,-10.6299212598 L 322.440944881,-46.0629921258"
         id="cropTR1"
         style="stroke:#000000;stroke-width:0.25;fill:none" />
      <path
         d="M 333.07086614,0 L 368.503937006,0"
         id="cropTR2"
         style="stroke:#000000;stroke-width:0.25;fill:none" />
      <path
         d="M 0,205.511811023 L 0,240.944881889"
         id="cropBL1"
         style="stroke:#000000;stroke-width:0.25;fill:none" />
      <path
         d="M -10.6299212598,194.881889763 L -46.0629921258,194.881889763"
         id="cropBL2"
         style="stroke:#000000;stroke-width:0.25;fill:none" />
      <path
         d="M 322.440944881,205.511811023 L 322.440944881,240.944881889"
         id="cropBR1"
         style="stroke:#000000;stroke-width:0.25;fill:none" />
      <path
         d="M 333.07086614,194.881889763 L 368.503937006,194.881889763"
         id="cropBR2"
         style="stroke:#000000;stroke-width:0.25;fill:none" />
    </g>
    <g
       id="BleedMarks"
       inkscape:label="BleedMarks">
      <path
         d="M -10.6299212598,-10.6299212598 L -10.6299212598,-46.0629921258"
         id="bleedTL1"
         style="stroke-dashoffset:0;stroke:#000000;stroke-dasharray:4, 2, 1, 2;stroke-miterlimit:4;stroke-width:0.25;fill:none" />
      <path
         d="M -10.6299212598,-10.6299212598 L -46.0629921258,-10.6299212598"
         id="bleedTL2"
         style="stroke-dashoffset:0;stroke:#000000;stroke-dasharray:4, 2, 1, 2;stroke-miterlimit:4;stroke-width:0.25;fill:none" />
      <path
         d="M 333.07086614,-10.6299212598 L 333.07086614,-46.0629921258"
         id="bleedTR1"
         style="stroke-dashoffset:0;stroke:#000000;stroke-dasharray:4, 2, 1, 2;stroke-miterlimit:4;stroke-width:0.25;fill:none" />
      <path
         d="M 333.07086614,-10.6299212598 L 368.503937006,-10.6299212598"
         id="bleedTR2"
         style="stroke-dashoffset:0;stroke:#000000;stroke-dasharray:4, 2, 1, 2;stroke-miterlimit:4;stroke-width:0.25;fill:none" />
      <path
         d="M -10.6299212598,205.511811023 L -10.6299212598,240.944881889"
         id="bleedBL1"
         style="stroke-dashoffset:0;stroke:#000000;stroke-dasharray:4, 2, 1, 2;stroke-miterlimit:4;stroke-width:0.25;fill:none" />
      <path
         d="M -10.6299212598,205.511811023 L -46.0629921258,205.511811023"
         id="bleedBL2"
         style="stroke-dashoffset:0;stroke:#000000;stroke-dasharray:4, 2, 1, 2;stroke-miterlimit:4;stroke-width:0.25;fill:none" />
      <path
         d="M 333.07086614,205.511811023 L 333.07086614,240.944881889"
         id="bleedBR1"
         style="stroke-dashoffset:0;stroke:#000000;stroke-dasharray:4, 2, 1, 2;stroke-miterlimit:4;stroke-width:0.25;fill:none" />
      <path
         d="M 333.07086614,205.511811023 L 368.503937006,205.511811023"
         id="bleedBR2"
         style="stroke-dashoffset:0;stroke:#000000;stroke-dasharray:4, 2, 1, 2;stroke-miterlimit:4;stroke-width:0.25;fill:none" />
    </g>
    <g
       id="StarTarget"
       inkscape:label="StarTarget">
      <path
         id="path5750"
         d=" M 0,0 L 0,0  L 3.45632460263,17.3761171724 L 5.00407613632,16.9951419462 L 0,0  L 6.77982458912,16.3679444736 L 8.22351193151,15.6923382343 L 0,0  L 9.84277971881,14.7307608478 L 11.126922775,13.7864867645 L 0,0  L 12.5274823438,12.5274823438 L 13.6027322162,11.3508283399 L 0,0  L 14.7307608478,9.84277971881 L 15.5557962869,8.4789639478 L 0,0  L 16.3679444736,6.77982458912 L 16.9110598301,5.28125772624 L 0,0  L 17.3761171724,3.45632460263 L 17.6164408279,1.88059573202 L 0,0  L 17.716535433,1.0848249205e-15 L 17.644831884,-1.59233650153 L 0,0  L 17.3761171724,-3.45632460263 L 16.9951419462,-5.00407613632 L 0,0  L 16.3679444736,-6.77982458912 L 15.6923382343,-8.22351193151 L 0,0  L 14.7307608478,-9.84277971881 L 13.7864867645,-11.126922775 L 0,0  L 12.5274823438,-12.5274823438 L 11.3508283399,-13.6027322162 L 0,0  L 9.84277971881,-14.7307608478 L 8.4789639478,-15.5557962869 L 0,0  L 6.77982458912,-16.3679444736 L 5.28125772624,-16.9110598301 L 0,0  L 3.45632460263,-17.3761171724 L 1.88059573202,-17.6164408279 L 0,0  L -1.35657946024e-14,-17.716535433 L -1.59233650153,-17.644831884 L 0,0  L -3.45632460263,-17.3761171724 L -5.00407613632,-16.9951419462 L 0,0  L -6.77982458912,-16.3679444736 L -8.22351193151,-15.6923382343 L 0,0  L -9.84277971881,-14.7307608478 L -11.126922775,-13.7864867645 L 0,0  L -12.5274823438,-12.5274823438 L -13.6027322162,-11.3508283399 L 0,0  L -14.7307608478,-9.84277971881 L -15.5557962869,-8.4789639478 L 0,0  L -16.3679444736,-6.77982458912 L -16.9110598301,-5.28125772624 L 0,0  L -17.3761171724,-3.45632460263 L -17.6164408279,-1.88059573202 L 0,0  L -17.716535433,4.39518585688e-14 L -17.644831884,1.59233650153 L 0,0  L -17.3761171724,3.45632460263 L -16.9951419462,5.00407613632 L 0,0  L -16.3679444736,6.77982458912 L -15.6923382343,8.22351193151 L 0,0  L -14.7307608478,9.84277971881 L -13.7864867645,11.126922775 L 0,0  L -12.5274823438,12.5274823438 L -11.3508283399,13.6027322162 L 0,0  L -9.84277971881,14.7307608478 L -8.4789639478,15.5557962869 L 0,0  L -6.77982458912,16.3679444736 L -5.28125772624,16.9110598301 L 0,0  L -3.45632460263,17.3761171724 L -1.88059573202,17.6164408279 L 0,0  L 7.43379225352e-14,17.716535433 L 1.59233650153,17.644831884"
         transform="translate(-28.3464566928,97.4409448815)"
         style="stroke:none;fill-opacity:1;fill:#000 device-cmyk(1,1,1,1)"
         inkscape:label="starTargetL" />
      <path
         id="path5752"
         d=" M 0,0 L 0,0  L 3.45632460263,17.3761171724 L 5.00407613632,16.9951419462 L 0,0  L 6.77982458912,16.3679444736 L 8.22351193151,15.6923382343 L 0,0  L 9.84277971881,14.7307608478 L 11.126922775,13.7864867645 L 0,0  L 12.5274823438,12.5274823438 L 13.6027322162,11.3508283399 L 0,0  L 14.7307608478,9.84277971881 L 15.5557962869,8.4789639478 L 0,0  L 16.3679444736,6.77982458912 L 16.9110598301,5.28125772624 L 0,0  L 17.3761171724,3.45632460263 L 17.6164408279,1.88059573202 L 0,0  L 17.716535433,1.0848249205e-15 L 17.644831884,-1.59233650153 L 0,0  L 17.3761171724,-3.45632460263 L 16.9951419462,-5.00407613632 L 0,0  L 16.3679444736,-6.77982458912 L 15.6923382343,-8.22351193151 L 0,0  L 14.7307608478,-9.84277971881 L 13.7864867645,-11.126922775 L 0,0  L 12.5274823438,-12.5274823438 L 11.3508283399,-13.6027322162 L 0,0  L 9.84277971881,-14.7307608478 L 8.4789639478,-15.5557962869 L 0,0  L 6.77982458912,-16.3679444736 L 5.28125772624,-16.9110598301 L 0,0  L 3.45632460263,-17.3761171724 L 1.88059573202,-17.6164408279 L 0,0  L -1.35657946024e-14,-17.716535433 L -1.59233650153,-17.644831884 L 0,0  L -3.45632460263,-17.3761171724 L -5.00407613632,-16.9951419462 L 0,0  L -6.77982458912,-16.3679444736 L -8.22351193151,-15.6923382343 L 0,0  L -9.84277971881,-14.7307608478 L -11.126922775,-13.7864867645 L 0,0  L -12.5274823438,-12.5274823438 L -13.6027322162,-11.3508283399 L 0,0  L -14.7307608478,-9.84277971881 L -15.5557962869,-8.4789639478 L 0,0  L -16.3679444736,-6.77982458912 L -16.9110598301,-5.28125772624 L 0,0  L -17.3761171724,-3.45632460263 L -17.6164408279,-1.88059573202 L 0,0  L -17.716535433,4.39518585688e-14 L -17.644831884,1.59233650153 L 0,0  L -17.3761171724,3.45632460263 L -16.9951419462,5.00407613632 L 0,0  L -16.3679444736,6.77982458912 L -15.6923382343,8.22351193151 L 0,0  L -14.7307608478,9.84277971881 L -13.7864867645,11.126922775 L 0,0  L -12.5274823438,12.5274823438 L -11.3508283399,13.6027322162 L 0,0  L -9.84277971881,14.7307608478 L -8.4789639478,15.5557962869 L 0,0  L -6.77982458912,16.3679444736 L -5.28125772624,16.9110598301 L 0,0  L -3.45632460263,17.3761171724 L -1.88059573202,17.6164408279 L 0,0  L 7.43379225352e-14,17.716535433 L 1.59233650153,17.644831884"
         transform="translate(350.787401573,97.4409448815)"
         style="stroke:none;fill-opacity:1;fill:#000 device-cmyk(1,1,1,1)"
         inkscape:label="starTargetR" />
    </g>
  </g>
</svg>
